{
.appVersion = "3151";
.formatVersion = 3;
axes = (
{
name = Weight;
tag = wght;
},
{
name = Width;
tag = wdth;
},
{
name = "Optical size";
tag = opsz;
}
);
customParameters = (
{
name = macintoshFONDFamilyID;
value = 128;
},
{
name = macintoshFONDName;
value = HoloFont;
},
{
name = openTypeHeadFlags;
value = (
);
},
{
name = openTypeNameVersion;
value = "Version 0.50 b010";
},
{
name = codePageRanges;
value = (
1252
);
},
{
name = openTypeOS2FamilyClass;
value = (
0,
0
);
},
{
name = openTypeOS2Panose;
value = (
0,
0,
0,
0,
0,
0,
0,
0,
0,
0
);
},
{
name = openTypeOS2Selection;
value = (
);
},
{
name = openTypeOS2StrikeoutPosition;
value = 530;
},
{
name = openTypeOS2StrikeoutSize;
value = 120;
},
{
name = openTypeOS2SubscriptXOffset;
value = 0;
},
{
name = openTypeOS2SubscriptXSize;
value = 1434;
},
{
name = openTypeOS2SubscriptYOffset;
value = 287;
},
{
name = openTypeOS2SubscriptYSize;
value = 1331;
},
{
name = openTypeOS2SuperscriptXOffset;
value = 0;
},
{
name = openTypeOS2SuperscriptXSize;
value = 1434;
},
{
name = openTypeOS2SuperscriptYOffset;
value = 977;
},
{
name = openTypeOS2SuperscriptYSize;
value = 1331;
},
{
name = fsType;
value = (
3
);
},
{
name = unicodeRanges;
value = (
0
);
},
{
name = postscriptBlueFuzz;
value = 1;
},
{
name = postscriptBlueScale;
value = 0.0255;
},
{
name = postscriptBlueShift;
value = 7;
},
{
name = postscriptForceBold;
value = 0;
},
{
name = postscriptIsFixedPitch;
value = 0;
},
{
name = postscriptUniqueID;
value = -1;
},
{
name = year;
value = 2017;
},
{
name = "Family Alignment Zones";
value = (
{
pos = 1474;
size = 18;
},
{
pos = 1434;
size = 27;
},
{
pos = 1020;
size = 39;
},
{
pos = 0;
size = "-27";
},
{
pos = "-427";
size = "-17";
}
);
}
);
date = "2017-12-08 23:56:07 +0000";
familyName = HoloFont;
fontMaster = (
{
axesValues = (
100,
100,
10
);
customParameters = (
{
name = TTFStems;
value = (
{
horizontal = 1;
name = "Y:1";
width = 69;
},
{
horizontal = 1;
name = "X:1";
width = 76;
}
);
},
{
name = typoAscender;

glyphs = (
{
glyphname = A;
lastChange = "2017-11-16 23:22:27 +0000";
layers = (
{
layerId = "0FCA90BE-146C-409C-AA6F-2BDBAA20F869";
shapes = (
{
closed = 1;
nodes = (
(254,0,l),
(599,1056,ls),
(620,1120,o),
(641,1184,o),
(662,1248,c),
(619,1179,l),
(666,1179,l),
(624,1248,l),
(645,1184,o),
(666,1119,o),
(687,1055,cs),
(1034,0,l),
(1275,0,l),
(771,1434,l),
(534,1434,l),
(25,0,l)
);
},
{
closed = 1;
nodes = (
(938,367,l),
(873,569,l),
(418,569,l),
(353,367,l)
);
}
);
width = 1302;
},
{
layerId = "0C6ED426-E59F-42BE-A2AF-648DBA17C507";
shapes = (
{
closed = 1;
nodes = (
(127,0,l),
(554,1205,ls),
(580,1278,o),
(606,1351,o),
(632,1424,c),
(597,1353,l),
(619,1353,l),
(584,1423,l),
(610,1350,o),
(635,1276,o),
(661,1203,cs),
(1083,0,l),
(1169,0,l),
(661,1434,l),
(559,1434,l),
(42,0,l)
);
},
{
closed = 1;
nodes = (
(945,466,l),
(917,542,l),
(294,542,l),
(267,466,l)
);
}
);
width = 1215;
},
{
layerId = "27ACF26B-8C89-4195-A22E-C9A713B2D4DA";
shapes = (
{
closed = 1;
nodes = (
(448,0,l),
(687,900,ls),
(701,953,o),
(716,1007,o),
(730,1060,c),
(682,998,l),
(758,998,l),
(706,1061,l),
(721,1007,o),
(735,954,o),
(750,900,cs),
(992,0,l),
(1450,0,l),
(954,1434,l),
(507,1434,l),
(9,0,l)
);
},
{
closed = 1;
nodes = (
(940,255,l),
(841,611,l),
(598,611,l),
(498,255,l)
);
}
);
width = 1460;
},
{
layerId = "758B6861-60C6-4092-9073-6CD691788EA2";
shapes = (
{
closed = 1;
nodes = (
(227,0,l),
(512,1074,ls),
(530,1141,o),
(545,1205,o),
(563,1291,c),
(528,1216,l),
(570,1216,l),
(536,1290,l),
(554,1205,o),
(569,1140,o),
(587,1073,cs),
(874,0,l),
(1092,0,l),
(670,1434,l),
(447,1434,l),
(21,0,l)
);
},
{
closed = 1;
nodes = (
(796,375,l),
(741,560,l),
(359,560,l),
(308,375,l)
);
}
);
width = 1115;
},
{
layerId = "83D261EB-5180-4991-884D-E57EC90CAEFB";
shapes = (
{
closed = 1;
nodes = (
(272,0,l),
(659,1048,ls),
(682,1111,o),
(706,1175,o),
(730,1238,c),
(680,1169,l),
(730,1169,l),
(684,1238,l),
(708,1175,o),
(731,1110,o),
(755,1047,cs),
(1144,0,l),
(1398,0,l),
(844,1434,l),
(588,1434,l),
(29,0,l)
);
},
{
closed = 1;
nodes = (
(1036,363,l),
(956,572,l),
(458,572,l),
(382,363,l)
);
}
);
width = 1429;
},
{
layerId = "DCA03E4F-A7C4-4A27-9237-642BF2693270";
shapes = (
{
closed = 1;
nodes = (
(296,0,l),
(643,1014,ls),
(672,1100,o),
(688,1180,o),
(699,1273,c),
(669,1201,l),
(719,1201,l),
(691,1273,l),
(703,1180,o),
(719,1099,o),
(748,1014,cs),
(1098,0,l),
(1356,0,l),
(832,1444,l),
(579,1444,l),
(50,0,l)
);
},
{
closed = 1;
nodes = (
(1000,354,l),
(922,577,l),
(472,577,l),
(397,354,l)
);
}
);
width = 1406;
},
{
layerId = "5A3B0B44-0D2D-4186-9E39-19797E3BFD87";
shapes = (
{
closed = 1;
nodes = (
(226,0,l),
(554,1078,ls),
(574,1143,o),
(594,1209,o),
(614,1274,c),
(574,1207,l),
(617,1207,l),
(578,1274,l),
(598,1208,o),
(618,1142,o),
(638,1077,cs),
(967,0,l),
(1189,0,l),
(717,1434,l),
(495,1434,l),
(16,0,l)
);
},
{
closed = 1;
nodes = (
(873,390,l),
(815,575,l),
(378,575,l),
(320,390,l)
);
}
);
width = 1208;
}
);
unicode = 65;
userData = {
com.typemytype.robofont.mark = (
0.656,
1,
0.6,
1
);
};
},
{
glyphname = B;
lastChange = "2017-11-16 23:22:27 +0000";
layers = (
{
layerId = "0FCA90BE-146C-409C-AA6F-2BDBAA20F869";
shapes = (
{
closed = 1;
nodes = (
(654,0,ls),
(949,0,o),
(1179,104,o),
(1179,394,cs),
(1179,545,o),
(1118,668,o),
(948,722,cs),
(921,731,o),
(890,738,o),
(857,743,c),
(887,730,l),
(887,752,l),
(857,737,l),
(890,744,o),
(920,753,o),
(947,766,cs),
(1062,821,o),
(1126,930,o),
(1126,1071,cs),
(1126,1324,o),
(919,1434,o),
(645,1434,cs),
(377,1434,l),
(377,1239,l),
(627,1239,ls),
(779,1239,o),
(899,1191,o),
(899,1041,cs),
(899,896,o),
(788,826,o),
(625,826,cs),
(378,826,l),
(378,633,l),
(631,633,ls),
(815,633,o),
(945,569,o),
(945,407,cs),
(945,241,o),
(809,195,o),
(652,195,cs),
(377,195,l),
(377,0,l)
);
},
{
closed = 1;
nodes = (
(397,0,l),
(397,1434,l),
(175,1434,l),
(175,0,l)
);
}
);
width = 1274;
},
{
layerId = "0C6ED426-E59F-42BE-A2AF-648DBA17C507";
shapes = (
{
closed = 1;
nodes = (
(648,0,ls),
(921,0,o),
(1138,100,o),
(1138,368,cs),
(1138,532,o),
(1057,662,o),
(890,716,cs),
(863,725,o),
(834,731,o),
(802,736,c),
(825,722,l),
(825,744,l),
(802,729,l),
(836,736,o),
(867,747,o),
(896,761,cs),
(1017,820,o),
(1088,934,o),
(1088,1083,cs),
(1088,1322,o),
(906,1434,o),
(634,1434,cs),
(266,1434,l),
(266,1358,l),
(622,1358,ls),
(833,1358,o),
(1008,1292,o),
(1008,1075,cs),
(1008,869,o),
(849,767,o),
(611,767,cs),
(267,767,l),
(267,691,l),
(606,691,ls),
(866,691,o),
(1057,603,o),
(1057,372,cs),
(1057,139,o),
(863,76,o),
(644,76,cs),
(266,76,l),
(266,0,l)
);
},
{
closed = 1;
nodes = (
(283,0,l),
(283,1434,l),
(205,1434,l),
(205,0,l)
);
}
);
width = 1258;
},
{
layerId = "27ACF26B-8C89-4195-A22E-C9A713B2D4DA";
shapes = (
{
closed = 1;
nodes = (
(689,0,ls),
(1017,0,o),
(1271,102,o),
(1271,399,cs),
(1271,544,o),
(1209,668,o),
(1041,722,cs),
(1014,731,o),
(984,737,o),
(951,742,c),
(983,730,l),
(983,752,l),
(951,738,l),
(984,745,o),
(1014,755,o),
(1041,768,cs),
(1156,823,o),
(1220,933,o),
(1220,1071,cs),
(1220,1327,o),
(997,1434,o),
(670,1434,cs),
(547,1434,l),
(547,1094,l),
(670,1094,ls),
(735,1094,o),
(782,1070,o),
(782,993,cs),
(782,916,o),
(735,880,o),
(673,880,cs),
(548,880,l),
(548,578,l),
(681,578,ls),
(760,578,o),
(817,544,o),
(817,455,cs),
(817,365,o),
(757,340,o),
(688,340,cs),
(547,340,l),
(547,0,l)
);
},
{
closed = 1;
nodes = (
(567,0,l),
(567,1434,l),
(140,1434,l),
(140,0,l)
);
}
);
width = 1336;
},
{
layerId = "758B6861-60C6-4092-9073-6CD691788EA2";
shapes = (
{
closed = 1;
nodes = (
(556,0,ls),
(808,0,o),
(1005,98,o),
(1005,394,cs),
(1005,555,o),
(948,668,o),
(809,721,cs),
(785,730,o),
(763,736,o),
(730,742,c),
(756,729,l),
(756,751,l),
(730,736,l),
(763,744,o),
(788,754,o),
(808,765,cs),
(905,819,o),
(959,931,o),
(959,1073,cs),
(959,1327,o),
(782,1434,o),
(549,1434,cs),
(332,1434,l),
(332,1255,l),
(533,1255,ls),
(657,1255,o),
(753,1207,o),
(753,1045,cs),
(753,889,o),
(664,818,o),
(532,818,cs),
(333,818,l),
(333,641,l),
(538,641,ls),
(687,641,o),
(792,576,o),
(792,402,cs),
(792,225,o),
(682,179,o),
(555,179,cs),
(332,179,l),
(332,0,l)
);
},
{
closed = 1;
nodes = (
(349,0,l),
(349,1434,l),
(147,1434,l),
(147,0,l)
);
}
);
width = 1084;
},
{
layerId = "83D261EB-5180-4991-884D-E57EC90CAEFB";
shapes = (
{
closed = 1;
nodes = (
(735,0,ls),
(1062,0,o),
(1293,105,o),
(1293,393,cs),
(1293,544,o),
(1229,666,o),
(1039,722,cs),
(1009,731,o),
(975,738,o),
(938,743,c),
(972,730,l),
(972,752,l),
(938,737,l),
(975,744,o),
(1005,752,o),
(1037,766,cs),
(1165,822,o),
(1235,929,o),
(1235,1074,cs),
(1235,1323,o),
(1027,1434,o),
(723,1434,cs),
(405,1434,l),
(405,1231,l),
(702,1231,ls),
(883,1231,o),
(999,1185,o),
(999,1038,cs),
(999,897,o),
(891,829,o),
(705,829,cs),
(406,829,l),
(406,629,l),
(710,629,ls),
(922,629,o),
(1050,568,o),
(1050,409,cs),
(1050,247,o),
(915,203,o),
(735,203,cs),
(405,203,l),
(405,0,l)
);
},
{
closed = 1;
nodes = (
(427,0,l),
(427,1434,l),
(195,1434,l),
(195,0,l)
);
}
);
width = 1400;
},
{
layerId = "DCA03E4F-A7C4-4A27-9237-642BF2693270";
shapes = (
{
closed = 1;
nodes = (
(716,0,ls),
(1026,0,o),
(1252,106,o),
(1252,391,cs),
(1252,559,o),
(1172,684,o),
(1023,725,cs),
(989,734,o),
(951,740,o),
(913,743,c),
(939,735,l),
(939,757,l),
(913,747,l),
(949,754,o),
(980,757,o),
(1019,775,cs),
(1123,823,o),
(1197,929,o),
(1197,1081,cs),
(1197,1335,o),
(993,1444,o),
(706,1444,cs),
(418,1444,l),
(418,1227,l),
(689,1227,ls),
(844,1227,o),
(955,1186,o),
(955,1041,cs),
(955,901,o),
(851,839,o),
(685,839,cs),
(419,839,l),
(419,629,l),
(691,629,ls),
(879,629,o),
(1002,573,o),
(1002,416,cs),
(1002,256,o),
(875,217,o),
(715,217,cs),
(418,217,l),
(418,0,l)
);
},
{
closed = 1;
nodes = (
(437,0,l),
(437,1444,l),
(202,1444,l),
(202,0,l)
);
}
);
width = 1370;
},
{
layerId = "5A3B0B44-0D2D-4186-9E39-19797E3BFD87";
shapes = (
{
closed = 1;
nodes = (
(608,0,ls),
(885,0,o),
(1101,105,o),
(1101,398,cs),
(1101,553,o),
(1042,680,o),
(883,735,cs),
(857,744,o),
(828,751,o),
(797,756,c),
(825,743,l),
(825,765,l),
(797,750,l),
(828,757,o),
(855,766,o),
(881,779,cs),
(987,834,o),
(1048,941,o),
(1048,1080,cs),
(1048,1327,o),
(854,1434,o),
(595,1434,cs),
(346,1434,l),
(346,1254,l),
(577,1254,ls),
(724,1254,o),
(838,1205,o),
(838,1052,cs),
(838,903,o),
(733,832,o),
(576,832,cs),
(347,832,l),
(347,654,l),
(583,654,ls),
(761,654,o),
(885,585,o),
(885,409,cs),
(885,229,o),
(756,180,o),
(606,180,cs),
(346,180,l),
(346,0,l)
);
},
{
closed = 1;
nodes = (
(364,0,l),
(364,1434,l),
(158,1434,l),
(158,0,l)
);
}
);
width = 1183;
}
);
unicode = 66;
userData = {
com.typemytype.robofont.mark = (
1,
0.826,
0.6,
1
);
};
},
{
glyphname = C;
lastChange = "2017-11-16 23:22:27 +0000";
layers = (
{
layerId = "0FCA90BE-146C-409C-AA6F-2BDBAA20F869";
shapes = (
{
closed = 1;
nodes = (
(1031,212,o),
(922,168,o),
(789,168,cs),
(535,168,o),
(338,330,o),
(338,721,cs),
(338,1090,o),
(513,1266,o),
(792,1266,cs),
(915,1266,o),
(1013,1232,o),
(1126,1152,c),
(1233,1319,l),
(1111,1410,o),
(970,1461,o),
(790,1461,cs),
(383,1461,o),
(110,1201,o),
(110,713,cs),
(110,303,o),
(303,-27,o),
(781,-27,cs),
(961,-27,o),
(1093,20,o),
(1243,122,c),
(1138,288,l)
);
}
);
width = 1303;
},
{
layerId = "0C6ED426-E59F-42BE-A2AF-648DBA17C507";
shapes = (
{
closed = 1;
nodes = (
(1038,88,o),
(924,49,o),
(782,49,cs),
(462,49,o),
(206,246,o),
(206,721,cs),
(206,1168,o),
(434,1385,o),
(790,1385,cs),
(915,1385,o),
(1020,1358,o),
(1139,1287,c),
(1176,1346,l),
(1068,1416,o),
(943,1456,o),
(786,1456,cs),
(388,1456,o),
(125,1200,o),
(125,716,cs),
(125,302,o),
(317,-22,o),
(779,-22,cs),
(937,-22,o),
(1059,16,o),
(1188,98,c),
(1150,157,l)
);
}
);
width = 1268;
},
{
layerId = "27ACF26B-8C89-4195-A22E-C9A713B2D4DA";
shapes = (
{
closed = 1;
nodes = (
(1082,376,o),
(994,335,o),
(874,335,cs),
(719,335,o),
(543,404,o),
(543,721,cs),
(543,1035,o),
(716,1099,o),
(869,1099,cs),
(981,1099,o),
(1064,1065,o),
(1150,1009,c),
(1318,1324,l),
(1170,1415,o),
(1020,1468,o),
(831,1468,cs),
(410,1468,o),
(95,1203,o),
(95,715,cs),
(95,305,o),
(317,-35,o),
(821,-35,cs),
(1008,-35,o),
(1180,12,o),
(1336,121,c),
(1169,430,l)
);
}
);
width = 1386;
},
{
layerId = "758B6861-60C6-4092-9073-6CD691788EA2";
shapes = (
{
closed = 1;
nodes = (
(870,191,o),
(778,152,o),
(673,152,cs),
(460,152,o),
(300,312,o),
(300,721,cs),
(300,1107,o),
(442,1282,o),
(676,1282,cs),
(774,1282,o),
(856,1252,o),
(949,1178,c),
(1052,1326,l),
(947,1414,o),
(825,1461,o),
(674,1461,cs),
(324,1461,o),
(93,1209,o),
(93,713,cs),
(93,297,o),
(256,-27,o),
(666,-27,cs),
(817,-27,o),
(939,17,o),
(1060,118,c),
(957,261,l)
);
}
);
width = 1107;
},
{
layerId = "83D261EB-5180-4991-884D-E57EC90CAEFB";
shapes = (
{
closed = 1;
nodes = (
(1132,220,o),
(1011,176,o),
(861,176,cs),
(577,176,o),
(358,333,o),
(358,722,cs),
(358,1087,o),
(551,1258,o),
(865,1258,cs),
(1004,1258,o),
(1113,1224,o),
(1239,1145,c),
(1345,1317,l),
(1213,1408,o),
(1065,1461,o),
(865,1461,cs),
(421,1461,o),
(122,1201,o),
(122,713,cs),
(122,303,o),
(334,-27,o),
(855,-27,cs),
(1056,-27,o),
(1197,22,o),
(1355,124,c),
(1251,295,l)
);
}
);
width = 1421;
},
{
layerId = "DCA03E4F-A7C4-4A27-9237-642BF2693270";
shapes = (
{
closed = 1;
nodes = (
(1094,235,o),
(988,192,o),
(842,192,cs),
(577,192,o),
(379,333,o),
(379,727,cs),
(379,1099,o),
(556,1252,o),
(846,1252,cs),
(980,1252,o),
(1075,1219,o),
(1192,1142,c),
(1305,1332,l),
(1177,1424,o),
(1036,1474,o),
(845,1474,cs),
(413,1474,o),
(135,1220,o),
(135,718,cs),
(135,295,o),
(332,-30,o),
(836,-30,cs),
(1026,-30,o),
(1160,16,o),
(1316,120,c),
(1204,308,l)
);
}
);
width = 1401;
},
{
layerId = "5A3B0B44-0D2D-4186-9E39-19797E3BFD87";
shapes = (
{
closed = 1;
nodes = (
(965,197,o),
(862,153,o),
(738,153,cs),
(496,153,o),
(309,320,o),
(309,721,cs),
(309,1099,o),
(474,1281,o),
(741,1281,cs),
(854,1281,o),
(947,1248,o),
(1054,1169,c),
(1152,1319,l),
(1039,1408,o),
(906,1459,o),
(737,1459,cs),
(355,1459,o),
(98,1200,o),
(98,713,cs),
(98,303,o),
(280,-25,o),
(732,-25,cs),
(901,-25,o),
(1024,21,o),
(1162,123,c),
(1066,272,l)
);
}
);
width = 1211;
}
);
unicode = 67;
userData = {
com.typemytype.robofont.guides = (
{
angle = 90;
isGlobal = 0;
magnetic = 5;
x = -1688;
y = 0;
}
);
com.typemytype.robofont.mark = (
0.656,
1,
0.6,
1
);
};
},
{
glyphname = D;
lastChange = "2017-11-16 23:22:27 +0000";
layers = (
{
layerId = "0FCA90BE-146C-409C-AA6F-2BDBAA20F869";
shapes = (
{
closed = 1;
nodes = (
(399,0,l),
(399,1434,l),
(175,1434,l),
(175,0,l)
);
},
{
closed = 1;
nodes = (
(610,0,ls),
(1030,0,o),
(1313,233,o),
(1313,732,cs),
(1313,1203,o),
(1060,1434,o),
(637,1434,cs),
(379,1434,l),
(379,1231,l),
(625,1231,ls),
(829,1231,o),
(1085,1161,o),
(1085,724,cs),
(1085,350,o),
(898,203,o),
(628,203,cs),
(379,203,l),
(379,0,l)
);
}
);
width = 1423;
},
{
layerId = "0C6ED426-E59F-42BE-A2AF-648DBA17C507";
shapes = (
{
closed = 1;
nodes = (
(283,0,l),
(283,1434,l),
(205,1434,l),
(205,0,l)
);
},
{
closed = 1;
nodes = (
(593,0,ls),
(1041,0,o),
(1287,242,o),
(1287,726,cs),
(1287,1206,o),
(1046,1434,o),
(617,1434,cs),
(263,1434,l),
(263,1358,l),
(611,1358,ls),
(872,1358,o),
(1206,1276,o),
(1206,723,cs),
(1206,256,o),
(967,76,o),
(596,76,cs),
(263,76,l),
(263,0,l)
);
}
);
width = 1412;
},
{
layerId = "27ACF26B-8C89-4195-A22E-C9A713B2D4DA";
shapes = (
{
closed = 1;
nodes = (
(579,0,l),
(579,1434,l),
(140,1434,l),
(140,0,l)
);
},
{
closed = 1;
nodes = (
(663,0,ls),
(1043,0,o),
(1382,222,o),
(1382,738,cs),
(1382,1200,o),
(1110,1434,o),
(695,1434,cs),
(565,1434,l),
(565,1069,l),
(675,1069,ls),
(794,1069,o),
(934,1010,o),
(934,725,cs),
(934,473,o),
(825,365,o),
(705,365,cs),
(565,365,l),
(565,0,l)
);
}
);
width = 1477;
},
{
layerId = "758B6861-60C6-4092-9073-6CD691788EA2";
shapes = (
{
closed = 1;
nodes = (
(350,0,l),
(350,1434,l),
(147,1434,l),
(147,0,l)
);
},
{
closed = 1;
nodes = (
(520,0,ls),
(873,0,o),
(1120,228,o),
(1120,731,cs),
(1120,1209,o),
(901,1434,o),
(543,1434,cs),
(333,1434,l),
(333,1248,l),
(532,1248,ls),
(700,1248,o),
(914,1182,o),
(914,724,cs),
(914,332,o),
(756,186,o),
(537,186,cs),
(333,186,l),
(333,0,l)
);
}
);
width = 1213;
},
{
layerId = "83D261EB-5180-4991-884D-E57EC90CAEFB";
shapes = (
{
closed = 1;
nodes = (
(427,0,l),
(427,1434,l),
(195,1434,l),
(195,0,l)
);
},
{
closed = 1;
nodes = (
(677,0,ls),
(1144,0,o),
(1442,233,o),
(1442,731,cs),
(1442,1204,o),
(1175,1434,o),
(703,1434,cs),
(405,1434,l),
(405,1223,l),
(689,1223,ls),
(926,1223,o),
(1206,1154,o),
(1206,724,cs),
(1206,356,o),
(1005,211,o),
(689,211,cs),
(405,211,l),
(405,0,l)
);
}
);
width = 1564;
},
{
layerId = "DCA03E4F-A7C4-4A27-9237-642BF2693270";
shapes = (
{
closed = 1;
nodes = (
(442,0,l),
(442,1444,l),
(202,1444,l),
(202,0,l)
);
},
{
closed = 1;
nodes = (
(657,0,ls),
(1097,0,o),
(1388,224,o),
(1388,737,cs),
(1388,1220,o),
(1131,1444,o),
(685,1444,cs),
(421,1444,l),
(421,1215,l),
(672,1215,ls),
(888,1215,o),
(1143,1155,o),
(1143,728,cs),
(1143,362,o),
(956,229,o),
(676,229,cs),
(421,229,l),
(421,0,l)
);
}
);
width = 1523;
},
{
layerId = "5A3B0B44-0D2D-4186-9E39-19797E3BFD87";
shapes = (
{
closed = 1;
nodes = (
(365,0,l),
(365,1434,l),
(158,1434,l),
(158,0,l)
);
},
{
closed = 1;
nodes = (
(555,0,ls),
(963,0,o),
(1228,234,o),
(1228,731,cs),
(1228,1203,o),
(990,1434,o),
(587,1434,cs),
(347,1434,l),
(347,1248,l),
(571,1248,ls),
(774,1248,o),
(1017,1176,o),
(1017,724,cs),
(1017,338,o),
(840,186,o),
(576,186,cs),
(347,186,l),
(347,0,l)
);
}
);
width = 1326;
}
);
unicode = 68;
userData = {
com.typemytype.robofont.mark = (
0.656,
1,
0.6,
1
);
};
},
{
glyphname = E;
lastChange = "2017-11-16 23:22:27 +0000";
layers = (
{
layerId = "0FCA90BE-146C-409C-AA6F-2BDBAA20F869";
shapes = (
{
closed = 1;
nodes = (
(1052,0,l),
(1052,201,l),
(399,201,l),
(399,626,l),
(931,626,l),
(931,827,l),
(399,827,l),
(399,1233,l),
(1029,1233,l),
(1029,1434,l),
(175,1434,l),
(175,0,l)
);
}
);
width = 1127;
},
{
layerId = "0C6ED426-E59F-42BE-A2AF-648DBA17C507";
shapes = (
{
closed = 1;
nodes = (
(1011,0,l),
(1011,76,l),
(283,76,l),
(283,692,l),
(881,692,l),
(881,768,l),
(283,768,l),
(283,1358,l),
(981,1358,l),
(981,1434,l),
(205,1434,l),
(205,0,l)
);
}
);
width = 1091;
},
{
layerId = "27ACF26B-8C89-4195-A22E-C9A713B2D4DA";
shapes = (
{
closed = 1;
nodes = (
(1124,0,l),
(1124,374,l),
(578,374,l),
(578,538,l),
(1020,538,l),
(1020,904,l),
(578,904,l),
(578,1060,l),
(1115,1060,l),
(1115,1434,l),
(140,1434,l),
(140,0,l)
);
}
);
width = 1204;
},
{
layerId = "758B6861-60C6-4092-9073-6CD691788EA2";
shapes = (
{
closed = 1;
nodes = (
(897,0,l),
(897,185,l),
(350,185,l),
(350,635,l),
(795,635,l),
(795,819,l),
(350,819,l),
(350,1249,l),
(878,1249,l),
(878,1434,l),
(147,1434,l),
(147,0,l)
);
}
);
width = 961;
},
{
layerId = "83D261EB-5180-4991-884D-E57EC90CAEFB";
shapes = (
{
closed = 1;
nodes = (
(1154,0,l),
(1154,209,l),
(427,209,l),
(427,622,l),
(1020,622,l),
(1020,831,l),
(427,831,l),
(427,1225,l),
(1128,1225,l),
(1128,1434,l),
(195,1434,l),
(195,0,l)
);
}
);
width = 1237;
},
{
layerId = "DCA03E4F-A7C4-4A27-9237-642BF2693270";
shapes = (
{
closed = 1;
nodes = (
(1116,0,l),
(1116,229,l),
(442,229,l),
(442,617,l),
(991,617,l),
(991,844,l),
(442,844,l),
(442,1216,l),
(1093,1216,l),
(1093,1444,l),
(202,1444,l),
(202,0,l)
);
}
);
width = 1216;
},
{
layerId = "5A3B0B44-0D2D-4186-9E39-19797E3BFD87";
shapes = (
{
closed = 1;
nodes = (
(982,0,l),
(982,185,l),
(365,185,l),
(365,635,l),
(868,635,l),
(868,819,l),
(365,819,l),
(365,1249,l),
(960,1249,l),
(960,1434,l),
(158,1434,l),
(158,0,l)
);
}
);
width = 1045;
}
);
unicode = 69;
userData = {
com.typemytype.robofont.mark = (
0.656,
1,
0.6,
1
);
};
},
{
glyphname = F;
lastChange = "2017-11-16 23:22:27 +0000";
layers = (
{
layerId = "0FCA90BE-146C-409C-AA6F-2BDBAA20F869";
shapes = (
{
closed = 1;
nodes = (
(399,0,l),
(399,601,l),
(926,601,l),
(926,803,l),
(399,803,l),
(399,1232,l),
(1024,1232,l),
(1024,1434,l),
(175,1434,l),
(175,0,l)
);
}
);
width = 1079;
},
{
layerId = "0C6ED426-E59F-42BE-A2AF-648DBA17C507";
shapes = (
{
closed = 1;
nodes = (
(283,0,l),
(283,676,l),
(876,676,l),
(876,752,l),
(283,752,l),
(283,1358,l),
(976,1358,l),
(976,1434,l),
(205,1434,l),
(205,0,l)
);
}
);
width = 1036;
},
{
layerId = "27ACF26B-8C89-4195-A22E-C9A713B2D4DA";
shapes = (
{
closed = 1;
nodes = (
(583,0,l),
(583,476,l),
(1016,476,l),
(1016,848,l),
(583,848,l),
(583,1057,l),
(1111,1057,l),
(1111,1434,l),
(140,1434,l),
(140,0,l)
);
}
);
width = 1171;
},
{
layerId = "758B6861-60C6-4092-9073-6CD691788EA2";
shapes = (
{
closed = 1;
nodes = (
(350,0,l),
(350,611,l),
(791,611,l),
(791,796,l),
(350,796,l),
(350,1248,l),
(874,1248,l),
(874,1434,l),
(147,1434,l),
(147,0,l)
);
}
);
width = 921;
},
{
layerId = "83D261EB-5180-4991-884D-E57EC90CAEFB";
shapes = (
{
closed = 1;
nodes = (
(427,0,l),
(427,595,l),
(1014,595,l),
(1014,805,l),
(427,805,l),
(427,1224,l),
(1123,1224,l),
(1123,1434,l),
(195,1434,l),
(195,0,l)
);
}
);
width = 1183;
},
{
layerId = "DCA03E4F-A7C4-4A27-9237-642BF2693270";
shapes = (
{
closed = 1;
nodes = (
(442,0,l),
(442,586,l),
(986,586,l),
(986,815,l),
(442,815,l),
(442,1214,l),
(1088,1214,l),
(1088,1444,l),
(202,1444,l),
(202,0,l)
);
}
);
width = 1168;
},
{
layerId = "5A3B0B44-0D2D-4186-9E39-19797E3BFD87";
shapes = (
{
closed = 1;
nodes = (
(365,0,l),
(365,611,l),
(863,611,l),
(863,796,l),
(365,796,l),
(365,1249,l),
(955,1249,l),
(955,1434,l),
(158,1434,l),
(158,0,l)
);
}
);
width = 999;
}
);
unicode = 70;
userData = {
com.typemytype.robofont.mark = (
0.656,
1,
0.6,
1
);
};
},
{
glyphname = G;
lastChange = "2017-11-16 23:22:27 +0000";
layers = (
{
layerId = "0FCA90BE-146C-409C-AA6F-2BDBAA20F869";
shapes = (
{
closed = 1;
nodes = (
(1048,184,o),
(927,167,o),
(828,167,cs),
(527,167,o),
(338,325,o),
(338,712,cs),
(338,1090,o),
(519,1266,o),
(809,1266,cs),
(945,1266,o),
(1045,1227,o),
(1155,1152,c),
(1262,1321,l),
(1138,1412,o),
(995,1461,o),
(811,1461,cs),
(388,1461,o),
(110,1203,o),
(110,707,cs),
(110,303,o),
(294,-27,o),
(818,-27,cs),
(994,-27,o),
(1139,10,o),
(1267,70,c),
(1167,240,l)
);
},
{
closed = 1;
nodes = (
(1045,568,l),
(1045,89,l),
(1267,70,l),
(1267,769,l),
(746,769,l),
(746,568,l)
);
}
);
width = 1427;
},
{
layerId = "0C6ED426-E59F-42BE-A2AF-648DBA17C507";
shapes = (
{
closed = 1;
nodes = (
(1067,78,o),
(940,49,o),
(808,49,cs),
(465,49,o),
(206,246,o),
(206,719,cs),
(206,1167,o),
(439,1385,o),
(805,1385,cs),
(934,1385,o),
(1042,1358,o),
(1164,1287,c),
(1201,1346,l),
(1090,1416,o),
(962,1456,o),
(801,1456,cs),
(393,1456,o),
(125,1201,o),
(125,714,cs),
(125,304,o),
(315,-22,o),
(805,-22,cs),
(961,-22,o),
(1097,11,o),
(1218,69,c),
(1180,128,l)
);
},
{
closed = 1;
nodes = (
(1140,608,l),
(1140,79,l),
(1218,69,l),
(1218,684,l),
(749,684,l),
(749,608,l)
);
}
);
width = 1398;
},
{
layerId = "27ACF26B-8C89-4195-A22E-C9A713B2D4DA";
shapes = (
{
closed = 1;
nodes = (
(1088,346,o),
(1005,323,o),
(892,323,cs),
(723,323,o),
(532,375,o),
(532,720,cs),
(532,1061,o),
(719,1111,o),
(882,1111,cs),
(1014,1111,o),
(1098,1078,o),
(1196,1019,c),
(1358,1324,l),
(1198,1419,o),
(1044,1468,o),
(853,1468,cs),
(421,1468,o),
(95,1219,o),
(95,711,cs),
(95,289,o),
(320,-35,o),
(856,-35,cs),
(1025,-35,o),
(1210,-4,o),
(1366,69,c),
(1203,383,l)
);
},
{
closed = 1;
nodes = (
(952,514,l),
(952,121,l),
(1366,69,l),
(1366,847,l),
(766,847,l),
(766,514,l)
);
}
);
width = 1496;
},
{
layerId = "758B6861-60C6-4092-9073-6CD691788EA2";
shapes = (
{
closed = 1;
nodes = (
(888,168,o),
(786,151,o),
(704,151,cs),
(454,151,o),
(300,307,o),
(300,713,cs),
(300,1109,o),
(447,1282,o),
(691,1282,cs),
(798,1282,o),
(884,1249,o),
(974,1179,c),
(1077,1327,l),
(970,1416,o),
(847,1461,o),
(692,1461,cs),
(330,1461,o),
(93,1214,o),
(93,705,cs),
(93,294,o),
(247,-27,o),
(698,-27,cs),
(845,-27,o),
(971,7,o),
(1080,65,c),
(989,220,l)
);
},
{
closed = 1;
nodes = (
(879,573,l),
(879,83,l),
(1080,65,l),
(1080,758,l),
(633,758,l),
(633,573,l)
);
}
);
width = 1215;
},
{
layerId = "83D261EB-5180-4991-884D-E57EC90CAEFB";
shapes = (
{
closed = 1;
nodes = (
(1152,192,o),
(1018,174,o),
(903,174,cs),
(567,174,o),
(359,329,o),
(359,713,cs),
(359,1089,o),
(559,1259,o),
(887,1259,cs),
(1040,1259,o),
(1148,1222,o),
(1270,1146,c),
(1376,1318,l),
(1246,1409,o),
(1096,1461,o),
(888,1461,cs),
(426,1461,o),
(122,1204,o),
(122,706,cs),
(122,302,o),
(322,-27,o),
(901,-27,cs),
(1092,-27,o),
(1250,9,o),
(1389,70,c),
(1284,247,l)
);
},
{
closed = 1;
nodes = (
(1159,565,l),
(1159,91,l),
(1389,70,l),
(1389,773,l),
(821,773,l),
(821,565,l)
);
}
);
width = 1568;
},
{
layerId = "DCA03E4F-A7C4-4A27-9237-642BF2693270";
shapes = (
{
closed = 1;
nodes = (
(1111,207,o),
(993,190,o),
(883,190,cs),
(569,190,o),
(379,325,o),
(379,718,cs),
(379,1103,o),
(561,1254,o),
(864,1254,cs),
(1011,1254,o),
(1109,1216,o),
(1222,1143,c),
(1336,1334,l),
(1205,1426,o),
(1062,1474,o),
(865,1474,cs),
(419,1474,o),
(135,1224,o),
(135,713,cs),
(135,293,o),
(321,-30,o),
(872,-30,cs),
(1061,-30,o),
(1207,5,o),
(1341,67,c),
(1235,260,l)
);
},
{
closed = 1;
nodes = (
(1104,564,l),
(1104,91,l),
(1341,67,l),
(1341,786,l),
(793,786,l),
(793,564,l)
);
}
);
width = 1528;
},
{
layerId = "5A3B0B44-0D2D-4186-9E39-19797E3BFD87";
shapes = (
{
closed = 1;
nodes = (
(982,170,o),
(867,152,o),
(773,152,cs),
(488,152,o),
(309,316,o),
(309,713,cs),
(309,1099,o),
(480,1281,o),
(755,1281,cs),
(883,1281,o),
(978,1245,o),
(1082,1171,c),
(1180,1323,l),
(1064,1412,o),
(929,1459,o),
(757,1459,cs),
(359,1459,o),
(98,1202,o),
(98,708,cs),
(98,304,o),
(271,-25,o),
(763,-25,cs),
(929,-25,o),
(1066,11,o),
(1187,71,c),
(1094,225,l)
);
},
{
closed = 1;
nodes = (
(982,573,l),
(982,89,l),
(1187,71,l),
(1187,758,l),
(698,758,l),
(698,573,l)
);
}
);
width = 1329;
}
);
unicode = 71;
userData = {
com.typemytype.robofont.mark = (
1,
0.826,
0.6,
1
);
};
},
{
glyphname = H;
lastChange = "2017-11-16 23:22:27 +0000";
layers = (
{
layerId = "0FCA90BE-146C-409C-AA6F-2BDBAA20F869";
shapes = (
{
closed = 1;
nodes = (
(399,0,l),
(399,625,l),
(1095,625,l),
(1095,0,l),
(1319,0,l),
(1319,1434,l),
(1095,1434,l),
(1095,829,l),
(399,829,l),
(399,1434,l),
(175,1434,l),
(175,0,l,{
name = hr00;
})
);
}
);
width = 1494;
},
{
layerId = "0C6ED426-E59F-42BE-A2AF-648DBA17C507";
shapes = (
{
closed = 1;
nodes = (
(283,0,l),
(283,691,l),
(1207,691,l),
(1207,0,l),
(1285,0,l),
(1285,1434,l),
(1207,1434,l),
(1207,767,l),
(283,767,l),
(283,1434,l),
(205,1434,l),
(205,0,l)
);
}
);
width = 1490;
},
{
layerId = "27ACF26B-8C89-4195-A22E-C9A713B2D4DA";
shapes = (
{
closed = 1;
nodes = (
(583,0,l),
(583,534,l),
(940,534,l),
(940,0,l),
(1383,0,l),
(1383,1434,l),
(940,1434,l),
(940,915,l),
(583,915,l),
(583,1434,l),
(140,1434,l),
(140,0,l)
);
}
);
width = 1523;
},
{
layerId = "758B6861-60C6-4092-9073-6CD691788EA2";
shapes = (
{
closed = 1;
nodes = (
(350,0,l),
(350,634,l),
(919,634,l),
(919,0,l),
(1122,0,l),
(1122,1434,l),
(919,1434,l),
(919,821,l),
(350,821,l),
(350,1434,l),
(147,1434,l),
(147,0,l)
);
}
);
width = 1269;
},
{
layerId = "83D261EB-5180-4991-884D-E57EC90CAEFB";
shapes = (
{
closed = 1;
nodes = (
(427,0,l),
(427,621,l),
(1217,621,l),
(1217,0,l),
(1449,0,l),
(1449,1434,l),
(1217,1434,l),
(1217,833,l),
(427,833,l),
(427,1434,l),
(195,1434,l),
(195,0,l)
);
}
);
width = 1644;
},
{
layerId = "DCA03E4F-A7C4-4A27-9237-642BF2693270";
shapes = (
{
closed = 1;
nodes = (
(442,0,l),
(442,616,l),
(1153,616,l),
(1153,0,l),
(1393,0,l),
(1393,1444,l),
(1153,1444,l),
(1153,848,l),
(442,848,l),
(442,1444,l),
(202,1444,l),
(202,0,l)
);
}
);
width = 1595;
},
{
layerId = "5A3B0B44-0D2D-4186-9E39-19797E3BFD87";
shapes = (
{
closed = 1;
nodes = (
(365,0,l),
(365,634,l),
(1026,634,l),
(1026,0,l),
(1233,0,l),
(1233,1434,l),
(1026,1434,l),
(1026,821,l),
(365,821,l),
(365,1434,l),
(158,1434,l),
(158,0,l)
);
}
);
width = 1391;
}
);
unicode = 72;
userData = {
com.typemytype.robofont.mark = (
0.656,
1,
0.6,
1
);
};
},
{
glyphname = I;
lastChange = "2017-11-16 23:22:27 +0000";
layers = (
{
layerId = "0FCA90BE-146C-409C-AA6F-2BDBAA20F869";
shapes = (
{
closed = 1;
nodes = (
(409,0,l),
(409,1434,l),
(185,1434,l),
(185,0,l)
);
}
);
width = 594;
},
{
layerId = "0C6ED426-E59F-42BE-A2AF-648DBA17C507";
shapes = (
{
closed = 1;
nodes = (
(288,0,l),
(288,1434,l),
(210,1434,l),
(210,0,l)
);
}
);
width = 498;
},
{
layerId = "27ACF26B-8C89-4195-A22E-C9A713B2D4DA";
shapes = (
{
closed = 1;
nodes = (
(588,0,l),
(588,1434,l),
(145,1434,l),
(145,0,l)
);
}
);
width = 733;
},
{
layerId = "758B6861-60C6-4092-9073-6CD691788EA2";
shapes = (
{
closed = 1;
nodes = (
(358,0,l),
(358,1434,l),
(155,1434,l),
(155,0,l)
);
}
);
width = 513;
},
{
layerId = "83D261EB-5180-4991-884D-E57EC90CAEFB";
shapes = (
{
closed = 1;
nodes = (
(432,0,l),
(432,1434,l),
(200,1434,l),
(200,0,l)
);
}
);
width = 632;
},
{
layerId = "DCA03E4F-A7C4-4A27-9237-642BF2693270";
shapes = (
{
closed = 1;
nodes = (
(452,0,l),
(452,1444,l),
(212,1444,l),
(212,0,l)
);
}
);
width = 664;
},
{
layerId = "5A3B0B44-0D2D-4186-9E39-19797E3BFD87";
shapes = (
{
closed = 1;
nodes = (
(370,0,l),
(370,1434,l),
(163,1434,l),
(163,0,l)
);
}
);
width = 533;
}
);
unicode = 73;
userData = {
com.typemytype.robofont.mark = (
1,
0.826,
0.6,
1
);
};
},
{
glyphname = J;
lastChange = "2017-11-16 23:22:27 +0000";
layers = (
{
layerId = "0FCA90BE-146C-409C-AA6F-2BDBAA20F869";
shapes = (
{
closed = 1;
nodes = (
(24,-338,l),
(278,-251,o),
(404,-142,o),
(404,153,cs),
(404,1434,l),
(180,1434,l),
(180,158,ls),
(180,-16,o),
(149,-94,o),
(-35,-163,c)
);
}
);
width = 574;
},
{
layerId = "0C6ED426-E59F-42BE-A2AF-648DBA17C507";
shapes = (
{
closed = 1;
nodes = (
(18,-338,l),
(198,-262,o),
(288,-167,o),
(288,69,cs),
(288,1434,l),
(210,1434,l),
(210,96,ls),
(210,-107,o),
(178,-191,o),
(-11,-271,c)
);
}
);
width = 488;
},
{
layerId = "27ACF26B-8C89-4195-A22E-C9A713B2D4DA";
shapes = (
{
closed = 1;
nodes = (
(41,-369,l),
(406,-267,o),
(587,-138,o),
(587,238,cs),
(587,1434,l),
(145,1434,l),
(145,208,ls),
(145,74,o),
(114,4,o),
(-63,-50,c)
);
}
);
width = 722;
},
{
layerId = "758B6861-60C6-4092-9073-6CD691788EA2";
shapes = (
{
closed = 1;
nodes = (
(31,-338,l),
(247,-253,o),
(354,-145,o),
(354,138,cs),
(354,1434,l),
(151,1434,l),
(151,146,ls),
(151,-32,o),
(124,-112,o),
(-32,-182,c)
);
}
);
width = 497;
},
{
layerId = "83D261EB-5180-4991-884D-E57EC90CAEFB";
shapes = (
{
closed = 1;
nodes = (
(28,-339,l),
(301,-252,o),
(431,-142,o),
(431,157,cs),
(431,1434,l),
(200,1434,l),
(200,160,ls),
(200,-12,o),
(164,-87,o),
(-40,-156,c)
);
}
);
width = 621;
},
{
layerId = "DCA03E4F-A7C4-4A27-9237-642BF2693270";
shapes = (
{
closed = 1;
nodes = (
(52,-353,l),
(315,-263,o),
(446,-150,o),
(446,157,cs),
(446,1444,l),
(207,1444,l),
(207,157,ls),
(207,-12,o),
(174,-87,o),
(-15,-154,c)
);
}
);
width = 643;
},
{
layerId = "5A3B0B44-0D2D-4186-9E39-19797E3BFD87";
shapes = (
{
closed = 1;
nodes = (
(13,-338,l),
(250,-252,o),
(368,-145,o),
(368,142,cs),
(368,1434,l),
(163,1434,l),
(163,150,ls),
(163,-28,o),
(132,-107,o),
(-41,-177,c)
);
}
);
width = 521;
}
);
unicode = 74;
userData = {
com.typemytype.robofont.mark = (
0.656,
1,
0.6,
1
);
};
},
{
glyphname = K;
lastChange = "2017-11-16 23:22:27 +0000";
layers = (
{
layerId = "0FCA90BE-146C-409C-AA6F-2BDBAA20F869";
shapes = (
{
closed = 1;
nodes = (
(399,0,l),
(399,1434,l),
(175,1434,l),
(175,0,l)
);
},
{
closed = 1;
nodes = (
(644,720,l),
(1255,1434,l),
(994,1434,l),
(410,741,l)
);
},
{
closed = 1;
nodes = (
(994,0,l),
(1276,0,l),
(644,787,l),
(410,741,l)
);
}
);
width = 1271;
},
{
layerId = "0C6ED426-E59F-42BE-A2AF-648DBA17C507";
shapes = (
{
closed = 1;
nodes = (
(283,0,l),
(283,1434,l),
(205,1434,l),
(205,0,l)
);
},
{
closed = 1;
nodes = (
(398,722,l),
(1124,1434,l),
(1018,1434,l),
(313,741,l)
);
},
{
closed = 1;
nodes = (
(1036,0,l),
(1149,0,l),
(392,770,l),
(313,741,l)
);
}
);
width = 1164;
},
{
layerId = "27ACF26B-8C89-4195-A22E-C9A713B2D4DA";
shapes = (
{
closed = 1;
nodes = (
(583,0,l),
(583,1434,l),
(140,1434,l),
(140,0,l)
);
},
{
closed = 1;
nodes = (
(1033,717,l),
(1470,1434,l),
(989,1434,l),
(588,741,l)
);
},
{
closed = 1;
nodes = (
(971,0,l),
(1487,0,l),
(1034,810,l),
(588,741,l)
);
}
);
width = 1487;
},
{
layerId = "758B6861-60C6-4092-9073-6CD691788EA2";
shapes = (
{
closed = 1;
nodes = (
(350,0,l),
(350,1434,l),
(147,1434,l),
(147,0,l)
);
},
{
closed = 1;
nodes = (
(565,720,l),
(1072,1434,l),
(842,1434,l),
(358,741,l)
);
},
{
closed = 1;
nodes = (
(841,0,l),
(1090,0,l),
(565,785,l),
(358,741,l)
);
}
);
width = 1085;
},
{
layerId = "83D261EB-5180-4991-884D-E57EC90CAEFB";
shapes = (
{
closed = 1;
nodes = (
(427,0,l),
(427,1434,l),
(195,1434,l),
(195,0,l)
);
},
{
closed = 1;
nodes = (
(690,720,l),
(1374,1434,l),
(1091,1434,l),
(437,741,l)
);
},
{
closed = 1;
nodes = (
(1093,0,l),
(1396,0,l),
(688,788,l),
(437,741,l)
);
}
);
width = 1389;
},
{
layerId = "DCA03E4F-A7C4-4A27-9237-642BF2693270";
shapes = (
{
closed = 1;
nodes = (
(442,0,l),
(442,1444,l),
(202,1444,l),
(202,0,l)
);
},
{
closed = 1;
nodes = (
(704,725,l),
(1333,1444,l),
(1054,1444,l),
(453,746,l)
);
},
{
closed = 1;
nodes = (
(1053,0,l),
(1354,0,l),
(703,796,l),
(453,746,l)
);
}
);
width = 1371;
},
{
layerId = "5A3B0B44-0D2D-4186-9E39-19797E3BFD87";
shapes = (
{
closed = 1;
nodes = (
(365,0,l),
(365,1434,l),
(158,1434,l),
(158,0,l)
);
},
{
closed = 1;
nodes = (
(590,720,l),
(1168,1434,l),
(928,1434,l),
(375,741,l)
);
},
{
closed = 1;
nodes = (
(927,0,l),
(1190,0,l),
(592,785,l),
(375,741,l)
);
}
);
width = 1180;
}
);
unicode = 75;
userData = {
com.typemytype.robofont.mark = (
0.656,
1,
0.6,
1
);
};
},
{
glyphname = L;
lastChange = "2017-11-16 23:22:27 +0000";
layers = (
{
layerId = "0FCA90BE-146C-409C-AA6F-2BDBAA20F869";
shapes = (
{
closed = 1;
nodes = (
(1029,0,l),
(1029,203,l),
(399,203,l),
(399,1434,l),
(175,1434,l),
(175,0,l)
);
}
);
width = 1074;
},
{
layerId = "0C6ED426-E59F-42BE-A2AF-648DBA17C507";
shapes = (
{
closed = 1;
nodes = (
(988,0,l),
(988,76,l),
(283,76,l),
(283,1434,l),
(205,1434,l),
(205,0,l)
);
}
);
width = 1043;
},
{
layerId = "27ACF26B-8C89-4195-A22E-C9A713B2D4DA";
shapes = (
{
closed = 1;
nodes = (
(1108,0,l),
(1108,381,l),
(583,381,l),
(583,1434,l),
(140,1434,l),
(140,0,l)
);
}
);
width = 1158;
},
{
layerId = "758B6861-60C6-4092-9073-6CD691788EA2";
shapes = (
{
closed = 1;
nodes = (
(877,0,l),
(877,186,l),
(350,186,l),
(350,1434,l),
(147,1434,l),
(147,0,l)
);
}
);
width = 916;
},
{
layerId = "83D261EB-5180-4991-884D-E57EC90CAEFB";
shapes = (
{
closed = 1;
nodes = (
(1129,0,l),
(1129,211,l),
(427,211,l),
(427,1434,l),
(195,1434,l),
(195,0,l)
);
}
);
width = 1178;
},
{
layerId = "DCA03E4F-A7C4-4A27-9237-642BF2693270";
shapes = (
{
closed = 1;
nodes = (
(1093,0,l),
(1093,232,l),
(442,232,l),
(442,1444,l),
(202,1444,l),
(202,0,l)
);
}
);
width = 1163;
},
{
layerId = "5A3B0B44-0D2D-4186-9E39-19797E3BFD87";
shapes = (
{
closed = 1;
nodes = (
(960,0,l),
(960,186,l),
(365,186,l),
(365,1434,l),
(158,1434,l),
(158,0,l)
);
}
);
width = 995;
}
);
unicode = 76;
userData = {
com.typemytype.robofont.mark = (
0.656,
1,
0.6,
1
);
};
},
{
glyphname = M;
lastChange = "2017-11-16 23:22:27 +0000";
layers = (
{
layerId = "0FCA90BE-146C-409C-AA6F-2BDBAA20F869";
shapes = (
{
closed = 1;
nodes = (
(378,0,l),
(408,977,ls),
(410,1047,o),
(413,1117,o),
(415,1187,c),
(404,1147,l),
(437,1147,l),
(409,1187,l),
(436,1119,o),
(462,1052,o),
(489,984,cs),
(819,143,l),
(1014,143,l),
(1344,984,ls),
(1371,1052,o),
(1397,1119,o),
(1424,1187,c),
(1394,1147,l),
(1429,1147,l),
(1418,1187,l),
(1420,1117,o),
(1423,1047,o),
(1425,977,cs),
(1455,0,l),
(1673,0,l),
(1625,1434,l),
(1307,1434,l),
(1006,663,ls),
(972,576,o),
(938,489,o),
(904,402,c),
(940,457,l),
(901,457,l),
(940,402,l),
(906,489,o),
(872,576,o),
(838,663,cs),
(537,1434,l),
(217,1434,l),
(165,0,l)
);
}
);
width = 1838;
},
{
layerId = "0C6ED426-E59F-42BE-A2AF-648DBA17C507";
shapes = (
{
closed = 1;
nodes = (
(266,0,l),
(307,1118,ls),
(310,1198,o),
(313,1278,o),
(316,1358,c),
(305,1333,l),
(327,1333,l),
(307,1355,l),
(341,1277,o),
(376,1200,o),
(410,1122,cs),
(838,155,l),
(917,155,l),
(1345,1122,ls),
(1379,1200,o),
(1414,1277,o),
(1448,1355,c),
(1428,1333,l),
(1450,1333,l),
(1439,1358,l),
(1442,1278,o),
(1444,1198,o),
(1447,1118,cs),
(1485,0,l),
(1564,0,l),
(1516,1434,l),
(1400,1434,l),
(1008,546,ls),
(964,446,o),
(919,345,o),
(875,245,c),
(889,256,l),
(868,256,l),
(883,245,l),
(839,345,o),
(794,446,o),
(750,546,cs),
(358,1434,l),
(242,1434,l),
(190,0,l)
);
}
);
width = 1754;
},
{
layerId = "27ACF26B-8C89-4195-A22E-C9A713B2D4DA";
shapes = (
{
closed = 1;
nodes = (
(565,0,l),
(578,884,ls),
(579,943,o),
(579,1002,o),
(580,1061,c),
(566,976,l),
(602,976,l),
(565,1060,l),
(582,1001,o),
(599,943,o),
(614,884,cs),
(815,93,l),
(1172,93,l),
(1373,884,ls),
(1388,943,o),
(1405,1001,o),
(1421,1060,c),
(1379,976,l),
(1421,976,l),
(1407,1061,l),
(1408,1002,o),
(1409,943,o),
(1410,884,cs),
(1424,0,l),
(1858,0,l),
(1810,1434,l),
(1199,1434,l),
(1031,781,ls),
(1012,706,o),
(990,633,o),
(972,559,c),
(1043,695,l),
(968,695,l),
(1035,559,l),
(1016,633,o),
(997,707,o),
(978,781,cs),
(808,1434,l),
(202,1434,l),
(150,0,l)
);
}
);
width = 2008;
},
{
layerId = "758B6861-60C6-4092-9073-6CD691788EA2";
shapes = (
{
closed = 1;
nodes = (
(334,0,l),
(358,995,ls),
(360,1067,o),
(362,1138,o),
(362,1229,c),
(352,1178,l),
(376,1178,l),
(352,1229,l),
(377,1140,o),
(399,1070,o),
(421,1001,cs),
(691,145,l),
(871,145,l),
(1140,1001,ls),
(1162,1071,o),
(1185,1140,o),
(1209,1229,c),
(1184,1178,l),
(1209,1178,l),
(1200,1229,l),
(1200,1138,o),
(1202,1067,o),
(1204,995,cs),
(1227,0,l),
(1432,0,l),
(1391,1434,l),
(1099,1434,l),
(853,651,ls),
(824,560,o),
(798,471,o),
(769,362,c),
(804,434,l),
(769,434,l),
(804,362,l),
(775,471,o),
(747,560,o),
(719,651,cs),
(474,1434,l),
(182,1434,l),
(138,0,l)
);
}
);
width = 1571;
},
{
layerId = "83D261EB-5180-4991-884D-E57EC90CAEFB";
shapes = (
{
closed = 1;
nodes = (
(403,0,l),
(438,994,ls),
(441,1063,o),
(444,1133,o),
(446,1202,c),
(433,1152,l),
(462,1152,l),
(431,1202,l),
(462,1135,o),
(491,1068,o),
(522,1000,cs),
(902,141,l),
(1097,141,l),
(1478,1000,ls),
(1508,1068,o),
(1538,1135,o),
(1568,1202,c),
(1536,1152,l),
(1567,1152,l),
(1553,1202,l),
(1555,1133,o),
(1559,1063,o),
(1561,994,cs),
(1596,0,l),
(1821,0,l),
(1768,1434,l),
(1438,1434,l),
(1100,670,ls),
(1062,584,o),
(1024,498,o),
(985,411,c),
(1026,465,l),
(985,465,l),
(1029,411,l),
(990,498,o),
(952,584,o),
(914,670,cs),
(576,1434,l),
(243,1434,l),
(185,0,l)
);
}
);
width = 2006;
},
{
layerId = "DCA03E4F-A7C4-4A27-9237-642BF2693270";
shapes = (
{
closed = 1;
nodes = (
(424,0,l),
(453,936,ls),
(456,1036,o),
(453,1145,o),
(448,1233,c),
(444,1167,l),
(474,1167,l),
(448,1232,l),
(474,1145,o),
(505,1039,o),
(539,957,cs),
(872,136,l),
(1084,136,l),
(1417,960,ls),
(1450,1042,o),
(1481,1145,o),
(1507,1233,c),
(1481,1168,l),
(1511,1168,l),
(1507,1234,l),
(1502,1146,o),
(1499,1037,o),
(1502,937,cs),
(1532,0,l),
(1771,0,l),
(1722,1444,l),
(1377,1444,l),
(1075,705,ls),
(1033,601,o),
(1002,496,o),
(978,380,c),
(1004,442,l),
(962,442,l),
(991,380,l),
(966,496,o),
(935,601,o),
(893,705,cs),
(592,1444,l),
(245,1444,l),
(192,0,l)
);
}
);
width = 1964;
},
{
layerId = "5A3B0B44-0D2D-4186-9E39-19797E3BFD87";
shapes = (
{
closed = 1;
nodes = (
(344,0,l),
(373,1000,ls),
(375,1072,o),
(378,1143,o),
(380,1214,c),
(369,1175,l),
(395,1175,l),
(368,1214,l),
(394,1145,o),
(419,1076,o),
(444,1007,cs),
(757,145,l),
(942,145,l),
(1255,1007,ls),
(1280,1076,o),
(1305,1145,o),
(1330,1214,c),
(1303,1175,l),
(1330,1175,l),
(1319,1214,l),
(1321,1143,o),
(1324,1072,o),
(1326,1000,cs),
(1354,0,l),
(1562,0,l),
(1515,1434,l),
(1219,1434,l),
(934,645,ls),
(902,556,o),
(869,467,o),
(837,378,c),
(872,432,l),
(836,432,l),
(873,378,l),
(841,467,o),
(808,556,o),
(776,645,cs),
(491,1434,l),
(195,1434,l),
(144,0,l)
);
}
);
width = 1708;
}
);
unicode = 77;
userData = {
com.typemytype.robofont.mark = (
1,
0.826,
0.6,
1
);
};
},
{
glyphname = N;
lastChange = "2017-11-16 23:22:27 +0000";
layers = (
{
layerId = "0FCA90BE-146C-409C-AA6F-2BDBAA20F869";
shapes = (
{
closed = 1;
nodes = (
(383,0,l),
(383,844,ls),
(383,924,o),
(383,1003,o),
(383,1083,c),
(374,1046,l),
(405,1052,l),
(371,1081,l),
(420,1009,o),
(468,936,o),
(517,864,cs),
(1097,0,l),
(1321,0,l),
(1321,1434,l),
(1113,1434,l),
(1113,624,ls),
(1113,527,o),
(1113,431,o),
(1113,334,c),
(1127,390,l),
(1093,382,l),
(1130,346,l),
(1077,425,o),
(1023,505,o),
(970,584,cs),
(399,1434,l),
(175,1434,l),
(175,0,l)
);
}
);
width = 1496;
},
{
layerId = "0C6ED426-E59F-42BE-A2AF-648DBA17C507";
shapes = (
{
closed = 1;
nodes = (
(281,0,l),
(281,1035,ls),
(281,1133,o),
(281,1231,o),
(281,1329,c),
(273,1303,l),
(290,1308,l),
(269,1325,l),
(331,1236,o),
(393,1148,o),
(455,1059,cs),
(1192,0,l),
(1278,0,l),
(1278,1434,l),
(1202,1434,l),
(1202,455,ls),
(1202,338,o),
(1202,222,o),
(1202,105,c),
(1210,131,l),
(1193,126,l),
(1214,109,l),
(1147,206,o),
(1079,302,o),
(1012,399,cs),
(291,1434,l),
(205,1434,l),
(205,0,l)
);
}
);
width = 1483;
},
{
layerId = "27ACF26B-8C89-4195-A22E-C9A713B2D4DA";
shapes = (
{
closed = 1;
nodes = (
(541,0,l),
(541,601,ls),
(541,656,o),
(541,710,o),
(541,765,c),
(529,704,l),
(569,711,l),
(516,766,l),
(544,716,o),
(573,667,o),
(602,617,cs),
(960,0,l),
(1395,0,l),
(1395,1434,l),
(994,1434,l),
(994,834,ls),
(994,765,o),
(994,697,o),
(994,628,c),
(1016,735,l),
(970,723,l),
(1031,651,l),
(998,706,o),
(966,762,o),
(933,817,cs),
(574,1434,l),
(140,1434,l),
(140,0,l)
);
}
);
width = 1535;
},
{
layerId = "758B6861-60C6-4092-9073-6CD691788EA2";
shapes = (
{
closed = 1;
nodes = (
(338,0,l),
(338,861,ls),
(338,943,o),
(334,1028,o),
(330,1129,c),
(323,1085,l),
(346,1091,l),
(318,1127,l),
(363,1034,o),
(401,956,o),
(442,881,cs),
(921,0,l),
(1129,0,l),
(1129,1434,l),
(938,1434,l),
(938,609,ls),
(938,510,o),
(941,424,o),
(946,305,c),
(954,349,l),
(928,342,l),
(958,307,l),
(909,408,o),
(870,488,o),
(826,568,cs),
(354,1434,l),
(147,1434,l),
(147,0,l)
);
}
);
width = 1276;
},
{
layerId = "83D261EB-5180-4991-884D-E57EC90CAEFB";
shapes = (
{
closed = 1;
nodes = (
(411,0,l),
(411,860,ls),
(411,941,o),
(411,1019,o),
(411,1100,c),
(401,1057,l),
(429,1063,l),
(391,1098,l),
(446,1025,o),
(500,953,o),
(555,880,cs),
(1221,0,l),
(1457,0,l),
(1457,1434,l),
(1241,1434,l),
(1241,606,ls),
(1241,508,o),
(1241,414,o),
(1241,316,c),
(1256,379,l),
(1225,371,l),
(1266,329,l),
(1207,408,o),
(1146,487,o),
(1086,567,cs),
(431,1434,l),
(195,1434,l),
(195,0,l)
);
}
);
width = 1652;
},
{
layerId = "DCA03E4F-A7C4-4A27-9237-642BF2693270";
shapes = (
{
closed = 1;
nodes = (
(427,0,l),
(427,746,ls),
(427,914,o),
(419,1033,o),
(406,1140,c),
(403,1095,l),
(431,1101,l),
(405,1139,l),
(450,1043,o),
(511,937,o),
(566,858,cs),
(1158,0,l),
(1400,0,l),
(1400,1444,l),
(1175,1444,l),
(1175,698,ls),
(1175,536,o),
(1183,408,o),
(1196,304,c),
(1199,349,l),
(1171,343,l),
(1197,305,l),
(1152,402,o),
(1086,512,o),
(1033,589,cs),
(444,1444,l),
(202,1444,l),
(202,0,l)
);
}
);
width = 1602;
},
{
layerId = "5A3B0B44-0D2D-4186-9E39-19797E3BFD87";
shapes = (
{
closed = 1;
nodes = (
(353,0,l),
(353,860,ls),
(353,940,o),
(353,1022,o),
(353,1102,c),
(345,1067,l),
(369,1073,l),
(336,1100,l),
(383,1028,o),
(430,955,o),
(476,881,cs),
(1027,0,l),
(1241,0,l),
(1241,1434,l),
(1046,1434,l),
(1046,610,ls),
(1046,511,o),
(1046,415,o),
(1046,317,c),
(1059,370,l),
(1032,363,l),
(1067,328,l),
(1017,407,o),
(965,490,o),
(915,569,cs),
(372,1434,l),
(158,1434,l),
(158,0,l)
);
}
);
width = 1399;
}
);
unicode = 78;
userData = {
com.typemytype.robofont.mark = (
1,
0.826,
0.6,
1
);
};
},
{
glyphname = O;
lastChange = "2017-11-16 23:22:27 +0000";
layers = (
{
layerId = "0FCA90BE-146C-409C-AA6F-2BDBAA20F869";
shapes = (
{
closed = 1;
nodes = (
(110,228,o),
(371,-27,o),
(777,-27,cs),
(1172,-27,o),
(1459,223,o),
(1459,724,cs),
(1459,1213,o),
(1198,1461,o),
(790,1461,cs),
(397,1461,o),
(110,1218,o),
(110,716,cs)
);
},
{
closed = 1;
nodes = (
(338,1087,o),
(512,1266,o),
(785,1266,cs),
(1058,1266,o),
(1231,1086,o),
(1231,720,cs),
(1231,354,o),
(1058,168,o),
(785,168,cs),
(512,168,o),
(338,354,o),
(338,720,cs)
);
}
);
width = 1569;
},
{
layerId = "0C6ED426-E59F-42BE-A2AF-648DBA17C507";
shapes = (
{
closed = 1;
nodes = (
(125,232,o),
(377,-22,o),
(772,-22,cs),
(1151,-22,o),
(1424,232,o),
(1424,720,cs),
(1424,1209,o),
(1171,1456,o),
(775,1456,cs),
(396,1456,o),
(125,1209,o),
(125,720,cs)
);
},
{
closed = 1;
nodes = (
(206,1157,o),
(428,1385,o),
(774,1385,cs),
(1120,1385,o),
(1343,1157,o),
(1343,721,cs),
(1343,284,o),
(1120,49,o),
(774,49,cs),
(428,49,o),
(206,284,o),
(206,721,cs)
);
}
);
width = 1549;
},
{
layerId = "27ACF26B-8C89-4195-A22E-C9A713B2D4DA";
shapes = (
{
closed = 1;
nodes = (
(95,221,o),
(371,-35,o),
(795,-35,cs),
(1215,-35,o),
(1525,210,o),
(1525,730,cs),
(1525,1219,o),
(1250,1468,o),
(823,1468,cs),
(408,1468,o),
(95,1230,o),
(95,709,cs)
);
},
{
closed = 1;
nodes = (
(543,991,o),
(647,1103,o),
(813,1103,cs),
(978,1103,o),
(1077,989,o),
(1077,719,cs),
(1077,450,o),
(978,330,o),
(813,330,cs),
(647,330,o),
(543,450,o),
(543,719,cs)
);
}
);
width = 1620;
},
{
layerId = "758B6861-60C6-4092-9073-6CD691788EA2";
shapes = (
{
closed = 1;
nodes = (
(93,222,o),
(315,-27,o),
(660,-27,cs),
(997,-27,o),
(1241,217,o),
(1241,723,cs),
(1241,1219,o),
(1019,1461,o),
(672,1461,cs),
(338,1461,o),
(93,1224,o),
(93,717,cs)
);
},
{
closed = 1;
nodes = (
(300,1103,o),
(443,1282,o),
(668,1282,cs),
(892,1282,o),
(1035,1102,o),
(1035,720,cs),
(1035,338,o),
(892,152,o),
(668,152,cs),
(443,152,o),
(300,338,o),
(300,720,cs)
);
}
);
width = 1334;
},
{
layerId = "83D261EB-5180-4991-884D-E57EC90CAEFB";
shapes = (
{
closed = 1;
nodes = (
(122,228,o),
(409,-27,o),
(855,-27,cs),
(1289,-27,o),
(1603,222,o),
(1603,724,cs),
(1603,1213,o),
(1317,1461,o),
(868,1461,cs),
(437,1461,o),
(122,1219,o),
(122,716,cs)
);
},
{
closed = 1;
nodes = (
(358,1082,o),
(555,1258,o),
(863,1258,cs),
(1171,1258,o),
(1367,1081,o),
(1367,720,cs),
(1367,359,o),
(1171,176,o),
(863,176,cs),
(555,176,o),
(358,359,o),
(358,720,cs)
);
}
);
width = 1725;
},
{
layerId = "DCA03E4F-A7C4-4A27-9237-642BF2693270";
shapes = (
{
closed = 1;
nodes = (
(135,222,o),
(400,-30,o),
(829,-30,cs),
(1240,-30,o),
(1539,222,o),
(1539,730,cs),
(1539,1229,o),
(1274,1474,o),
(843,1474,cs),
(428,1474,o),
(135,1235,o),
(135,720,cs)
);
},
{
closed = 1;
nodes = (
(379,1087,o),
(552,1252,o),
(838,1252,cs),
(1124,1252,o),
(1295,1086,o),
(1295,725,cs),
(1295,364,o),
(1118,191,o),
(838,191,cs),
(552,191,o),
(379,364,o),
(379,725,cs)
);
}
);
width = 1674;
},
{
layerId = "5A3B0B44-0D2D-4186-9E39-19797E3BFD87";
shapes = (
{
closed = 1;
nodes = (
(98,230,o),
(343,-25,o),
(725,-25,cs),
(1096,-25,o),
(1366,225,o),
(1366,723,cs),
(1366,1211,o),
(1121,1459,o),
(737,1459,cs),
(368,1459,o),
(98,1216,o),
(98,717,cs)
);
},
{
closed = 1;
nodes = (
(309,1095,o),
(474,1281,o),
(732,1281,cs),
(991,1281,o),
(1155,1094,o),
(1155,720,cs),
(1155,346,o),
(991,153,o),
(732,153,cs),
(474,153,o),
(309,346,o),
(309,720,cs)
);
}
);
width = 1464;
}
);
unicode = 79;
userData = {
com.typemytype.robofont.mark = (
0.656,
1,
0.6,
1
);
};
},
{
glyphname = P;
lastChange = "2017-11-16 23:22:27 +0000";
layers = (
{
layerId = "0FCA90BE-146C-409C-AA6F-2BDBAA20F869";
shapes = (
{
closed = 1;
nodes = (
(399,0,l),
(399,1434,l),
(175,1434,l),
(175,0,l)
);
},
{
closed = 1;
nodes = (
(607,516,ls),
(930,516,o),
(1144,678,o),
(1144,986,cs),
(1144,1288,o),
(938,1434,o),
(619,1434,cs),
(379,1434,l),
(379,1235,l),
(591,1235,ls),
(807,1235,o),
(917,1156,o),
(917,976,cs),
(917,793,o),
(803,715,o),
(586,715,cs),
(379,715,l),
(379,516,l)
);
}
);
width = 1219;
},
{
layerId = "0C6ED426-E59F-42BE-A2AF-648DBA17C507";
shapes = (
{
closed = 1;
nodes = (
(283,0,l),
(283,1434,l),
(205,1434,l),
(205,0,l)
);
},
{
closed = 1;
nodes = (
(571,582,ls),
(922,582,o),
(1100,736,o),
(1100,1014,cs),
(1100,1304,o),
(906,1434,o),
(605,1434,cs),
(263,1434,l),
(263,1362,l),
(579,1362,ls),
(871,1362,o),
(1019,1258,o),
(1019,1011,cs),
(1019,764,o),
(871,655,o),
(556,655,cs),
(263,655,l),
(263,582,l)
);
}
);
width = 1185;
},
{
layerId = "27ACF26B-8C89-4195-A22E-C9A713B2D4DA";
shapes = (
{
closed = 1;
nodes = (
(577,0,l),
(577,1434,l),
(140,1434,l),
(140,0,l)
);
},
{
closed = 1;
nodes = (
(692,426,ls),
(974,426,o),
(1242,594,o),
(1242,947,cs),
(1242,1264,o),
(1026,1434,o),
(655,1434,cs),
(565,1434,l),
(565,1086,l),
(649,1086,ls),
(752,1086,o),
(805,1029,o),
(805,929,cs),
(805,819,o),
(742,774,o),
(671,774,cs),
(565,774,l),
(565,426,l)
);
}
);
width = 1307;
},
{
layerId = "758B6861-60C6-4092-9073-6CD691788EA2";
shapes = (
{
closed = 1;
nodes = (
(350,0,l),
(350,1434,l),
(147,1434,l),
(147,0,l)
);
},
{
closed = 1;
nodes = (
(519,525,ls),
(790,525,o),
(975,683,o),
(975,990,cs),
(975,1293,o),
(799,1434,o),
(527,1434,cs),
(333,1434,l),
(333,1252,l),
(503,1252,ls),
(679,1252,o),
(769,1172,o),
(769,981,cs),
(769,786,o),
(676,707,o),
(501,707,cs),
(333,707,l),
(333,525,l)
);
}
);
width = 1039;
},
{
layerId = "83D261EB-5180-4991-884D-E57EC90CAEFB";
shapes = (
{
closed = 1;
nodes = (
(427,0,l),
(427,1434,l),
(195,1434,l),
(195,0,l)
);
},
{
closed = 1;
nodes = (
(683,512,ls),
(1041,512,o),
(1254,674,o),
(1254,983,cs),
(1254,1287,o),
(1049,1434,o),
(700,1434,cs),
(405,1434,l),
(405,1228,l),
(668,1228,ls),
(913,1228,o),
(1018,1150,o),
(1018,974,cs),
(1018,794,o),
(909,718,o),
(660,718,cs),
(405,718,l),
(405,512,l)
);
}
);
width = 1339;
},
{
layerId = "DCA03E4F-A7C4-4A27-9237-642BF2693270";
shapes = (
{
closed = 1;
nodes = (
(442,0,l),
(442,1444,l),
(202,1444,l),
(202,0,l)
);
},
{
closed = 1;
nodes = (
(667,496,ls),
(1002,496,o),
(1213,659,o),
(1213,982,cs),
(1213,1294,o),
(1011,1444,o),
(678,1444,cs),
(421,1444,l),
(421,1221,l),
(650,1221,ls),
(870,1221,o),
(970,1147,o),
(970,971,cs),
(970,790,o),
(866,719,o),
(646,719,cs),
(421,719,l),
(421,496,l)
);
}
);
width = 1311;
},
{
layerId = "5A3B0B44-0D2D-4186-9E39-19797E3BFD87";
shapes = (
{
closed = 1;
nodes = (
(365,0,l),
(365,1434,l),
(158,1434,l),
(158,0,l)
);
},
{
closed = 1;
nodes = (
(553,543,ls),
(862,543,o),
(1060,701,o),
(1060,999,cs),
(1060,1293,o),
(869,1434,o),
(567,1434,cs),
(347,1434,l),
(347,1252,l),
(542,1252,ls),
(748,1252,o),
(851,1172,o),
(851,990,cs),
(851,804,o),
(744,725,o),
(535,725,cs),
(347,725,l),
(347,543,l)
);
}
);
width = 1123;
}
);
unicode = 80;
userData = {
com.typemytype.robofont.mark = (
0.656,
1,
0.6,
1
);
};
},
{
glyphname = Q;
lastChange = "2017-11-16 23:22:27 +0000";
layers = (
{
layerId = "0FCA90BE-146C-409C-AA6F-2BDBAA20F869";
shapes = (
{
closed = 1;
nodes = (
(110,220,o),
(383,-25,o),
(770,-25,cs),
(1160,-25,o),
(1459,222,o),
(1459,732,cs),
(1459,1208,o),
(1198,1461,o),
(792,1461,cs),
(395,1461,o),
(110,1218,o),
(110,714,cs)
);
},
{
closed = 1;
nodes = (
(338,1087,o),
(512,1266,o),
(785,1266,cs),
(1058,1266,o),
(1231,1086,o),
(1231,719,cs),
(1231,354,o),
(1060,168,o),
(786,168,cs),
(511,168,o),
(338,354,o),
(338,720,cs)
);
},
{
closed = 1;
nodes = (
(1313,-343,l),
(1492,-207,l),
(1032,197,l),
(868,86,l)
);
}
);
width = 1569;
},
{
layerId = "0C6ED426-E59F-42BE-A2AF-648DBA17C507";
shapes = (
{
closed = 1;
nodes = (
(125,232,o),
(377,-22,o),
(772,-22,cs),
(1151,-22,o),
(1424,232,o),
(1424,720,cs),
(1424,1209,o),
(1171,1456,o),
(775,1456,cs),
(396,1456,o),
(125,1209,o),
(125,720,cs)
);
},
{
closed = 1;
nodes = (
(206,1157,o),
(428,1385,o),
(774,1385,cs),
(1120,1385,o),
(1343,1157,o),
(1343,721,cs),
(1343,284,o),
(1120,49,o),
(774,49,cs),
(428,49,o),
(206,284,o),
(206,721,cs)
);
},
{
closed = 1;
nodes = (
(1370,-343,l),
(1434,-292,l),
(1056,61,l),
(987,25,l)
);
}
);
width = 1549;
},
{
layerId = "27ACF26B-8C89-4195-A22E-C9A713B2D4DA";
shapes = (
{
closed = 1;
nodes = (
(95,222,o),
(371,-33,o),
(795,-33,cs),
(1209,-33,o),
(1525,217,o),
(1525,730,cs),
(1525,1219,o),
(1250,1468,o),
(823,1468,cs),
(408,1468,o),
(95,1230,o),
(95,710,cs)
);
},
{
closed = 1;
nodes = (
(543,991,o),
(647,1103,o),
(813,1103,cs),
(978,1103,o),
(1077,989,o),
(1077,718,cs),
(1077,450,o),
(978,330,o),
(813,330,cs),
(647,330,o),
(543,450,o),
(543,718,cs)
);
},
{
closed = 1;
nodes = (
(1277,-369,l),
(1601,-116,l),
(1047,354,l),
(749,154,l)
);
}
);
width = 1620;
},
{
layerId = "758B6861-60C6-4092-9073-6CD691788EA2";
shapes = (
{
closed = 1;
nodes = (
(93,226,o),
(315,-25,o),
(658,-25,cs),
(994,-25,o),
(1241,220,o),
(1241,730,cs),
(1241,1215,o),
(1019,1461,o),
(674,1461,cs),
(338,1461,o),
(93,1227,o),
(93,714,cs)
);
},
{
closed = 1;
nodes = (
(300,1102,o),
(443,1282,o),
(668,1282,cs),
(892,1282,o),
(1035,1102,o),
(1035,721,cs),
(1035,339,o),
(892,152,o),
(668,152,cs),
(443,152,o),
(300,339,o),
(300,721,cs)
);
},
{
closed = 1;
nodes = (
(1111,-343,l),
(1274,-218,l),
(876,179,l),
(730,78,l)
);
}
);
width = 1334;
},
{
layerId = "83D261EB-5180-4991-884D-E57EC90CAEFB";
shapes = (
{
closed = 1;
nodes = (
(122,220,o),
(423,-25,o),
(847,-25,cs),
(1275,-25,o),
(1603,222,o),
(1603,732,cs),
(1603,1209,o),
(1317,1461,o),
(871,1461,cs),
(434,1461,o),
(122,1219,o),
(122,714,cs)
);
},
{
closed = 1;
nodes = (
(358,1082,o),
(555,1258,o),
(863,1258,cs),
(1171,1258,o),
(1367,1081,o),
(1367,719,cs),
(1367,359,o),
(1174,176,o),
(864,176,cs),
(554,176,o),
(358,359,o),
(358,720,cs)
);
},
{
closed = 1;
nodes = (
(1433,-344,l),
(1620,-202,l),
(1158,202,l),
(986,85,l)
);
}
);
width = 1725;
},
{
layerId = "DCA03E4F-A7C4-4A27-9237-642BF2693270";
shapes = (
{
closed = 1;
nodes = (
(135,224,o),
(400,-28,o),
(827,-28,cs),
(1240,-28,o),
(1539,220,o),
(1539,733,cs),
(1539,1228,o),
(1272,1474,o),
(845,1474,cs),
(425,1474,o),
(135,1235,o),
(135,718,cs)
);
},
{
closed = 1;
nodes = (
(379,1087,o),
(552,1252,o),
(838,1252,cs),
(1124,1252,o),
(1295,1086,o),
(1295,725,cs),
(1295,364,o),
(1124,191,o),
(838,191,cs),
(552,191,o),
(379,364,o),
(379,725,cs)
);
},
{
closed = 1;
nodes = (
(1388,-355,l),
(1579,-201,l),
(1092,222,l),
(917,97,l)
);
}
);
width = 1674;
},
{
layerId = "5A3B0B44-0D2D-4186-9E39-19797E3BFD87";
shapes = (
{
closed = 1;
nodes = (
(98,230,o),
(343,-24,o),
(725,-24,cs),
(1093,-24,o),
(1366,231,o),
(1366,723,cs),
(1366,1211,o),
(1121,1459,o),
(737,1459,cs),
(368,1459,o),
(98,1216,o),
(98,717,cs)
);
},
{
closed = 1;
nodes = (
(309,1095,o),
(474,1281,o),
(732,1281,cs),
(991,1281,o),
(1155,1094,o),
(1155,720,cs),
(1155,346,o),
(991,153,o),
(732,153,cs),
(474,153,o),
(309,346,o),
(309,720,cs)
);
},
{
closed = 1;
nodes = (
(1230,-343,l),
(1395,-218,l),
(965,179,l),
(813,78,l)
);
}
);
width = 1464;
}
);
unicode = 81;
userData = {
com.typemytype.robofont.mark = (
0.656,
1,
0.6,
1
);
};
},
{
glyphname = R;
lastChange = "2017-11-16 23:22:27 +0000";
layers = (
{
layerId = "0FCA90BE-146C-409C-AA6F-2BDBAA20F869";
shapes = (
{
closed = 1;
nodes = (
(398,0,l),
(398,1434,l),
(175,1434,l),
(175,0,l)
);
},
{
closed = 1;
nodes = (
(592,584,ls),
(914,584,o),
(1129,735,o),
(1129,1025,cs),
(1129,1301,o),
(935,1434,o),
(634,1434,cs),
(378,1434,l),
(378,1235,l),
(604,1235,ls),
(801,1235,o),
(902,1169,o),
(902,1013,cs),
(902,853,o),
(795,782,o),
(599,782,cs),
(378,782,l),
(378,584,l)
);
},
{
closed = 1;
nodes = (
(942,0,l),
(1212,0,l),
(787,671,l),
(559,644,l)
);
}
);
width = 1252;
},
{
layerId = "0C6ED426-E59F-42BE-A2AF-648DBA17C507";
shapes = (
{
closed = 1;
nodes = (
(283,0,l),
(283,1434,l),
(205,1434,l),
(205,0,l)
);
},
{
closed = 1;
nodes = (
(572,648,ls),
(910,648,o),
(1084,799,o),
(1084,1055,cs),
(1084,1322,o),
(896,1434,o),
(611,1434,cs),
(263,1434,l),
(263,1362,l),
(585,1362,ls),
(857,1362,o),
(1003,1276,o),
(1003,1054,cs),
(1003,827,o),
(850,720,o),
(582,720,cs),
(263,720,l),
(263,648,l)
);
},
{
closed = 1;
nodes = (
(1021,0,l),
(1116,0,l),
(684,687,l),
(602,675,l)
);
}
);
width = 1206;
},
{
layerId = "27ACF26B-8C89-4195-A22E-C9A713B2D4DA";
shapes = (
{
closed = 1;
nodes = (
(568,0,l),
(568,1434,l),
(140,1434,l),
(140,0,l)
);
},
{
closed = 1;
nodes = (
(686,501,ls),
(967,501,o),
(1241,654,o),
(1241,986,cs),
(1241,1278,o),
(1030,1434,o),
(685,1434,cs),
(555,1434,l),
(555,1092,l),
(666,1092,ls),
(751,1092,o),
(804,1047,o),
(804,963,cs),
(804,878,o),
(751,828,o),
(667,828,cs),
(555,828,l),
(558,501,l)
);
},
{
closed = 1;
nodes = (
(874,0,l),
(1370,0,l),
(962,649,l),
(544,601,l)
);
}
);
width = 1358;
},
{
layerId = "758B6861-60C6-4092-9073-6CD691788EA2";
shapes = (
{
closed = 1;
nodes = (
(349,0,l),
(349,1434,l),
(147,1434,l),
(147,0,l)
);
},
{
closed = 1;
nodes = (
(508,593,ls),
(779,593,o),
(966,740,o),
(966,1029,cs),
(966,1307,o),
(800,1434,o),
(544,1434,cs),
(332,1434,l),
(332,1252,l),
(518,1252,ls),
(678,1252,o),
(760,1186,o),
(760,1018,cs),
(760,847,o),
(673,774,o),
(514,774,cs),
(332,774,l),
(332,593,l)
);
},
{
closed = 1;
nodes = (
(799,0,l),
(1039,0,l),
(679,673,l),
(476,648,l)
);
}
);
width = 1069;
},
{
layerId = "83D261EB-5180-4991-884D-E57EC90CAEFB";
shapes = (
{
closed = 1;
nodes = (
(427,0,l),
(427,1434,l),
(195,1434,l),
(195,0,l)
);
},
{
closed = 1;
nodes = (
(666,580,ls),
(1024,580,o),
(1237,731,o),
(1237,1023,cs),
(1237,1300,o),
(1044,1434,o),
(716,1434,cs),
(404,1434,l),
(404,1228,l),
(682,1228,ls),
(906,1228,o),
(1001,1163,o),
(1001,1011,cs),
(1001,854,o),
(899,784,o),
(676,784,cs),
(404,784,l),
(404,580,l)
);
},
{
closed = 1;
nodes = (
(1041,0,l),
(1325,0,l),
(876,670,l),
(635,642,l)
);
}
);
width = 1373;
},
{
layerId = "DCA03E4F-A7C4-4A27-9237-642BF2693270";
shapes = (
{
closed = 1;
nodes = (
(440,0,l),
(440,1444,l),
(202,1444,l),
(202,0,l)
);
},
{
closed = 1;
nodes = (
(653,565,ls),
(986,565,o),
(1202,717,o),
(1202,1021,cs),
(1202,1308,o),
(1010,1444,o),
(695,1444,cs),
(419,1444,l),
(419,1222,l),
(665,1222,ls),
(865,1222,o),
(959,1161,o),
(959,1008,cs),
(959,852,o),
(859,784,o),
(660,784,cs),
(419,784,l),
(419,565,l)
);
},
{
closed = 1;
nodes = (
(1001,0,l),
(1290,0,l),
(849,672,l),
(606,642,l)
);
}
);
width = 1350;
},
{
layerId = "5A3B0B44-0D2D-4186-9E39-19797E3BFD87";
shapes = (
{
closed = 1;
nodes = (
(364,0,l),
(364,1434,l),
(158,1434,l),
(158,0,l)
);
},
{
closed = 1;
nodes = (
(540,610,ls),
(847,610,o),
(1045,758,o),
(1045,1039,cs),
(1045,1307,o),
(864,1434,o),
(583,1434,cs),
(346,1434,l),
(346,1252,l),
(554,1252,ls),
(741,1252,o),
(835,1185,o),
(835,1027,cs),
(835,865,o),
(736,792,o),
(548,792,cs),
(346,792,l),
(346,610,l)
);
},
{
closed = 1;
nodes = (
(890,0,l),
(1137,0,l),
(734,673,l),
(528,648,l)
);
}
);
width = 1162;
}
);
unicode = 82;
userData = {
com.typemytype.robofont.mark = (
0.656,
1,
0.6,
1
);
};
},
{
glyphname = S;
lastChange = "2017-11-16 23:22:27 +0000";
layers = (
{
layerId = "0FCA90BE-146C-409C-AA6F-2BDBAA20F869";
shapes = (
{
closed = 1;
nodes = (
(213,33,o),
(364,-27,o),
(551,-27,cs),
(881,-27,o),
(1068,157,o),
(1068,410,cs),
(1068,693,o),
(841,772,o),
(641,842,cs),
(469,902,o),
(348,947,o),
(348,1078,cs),
(348,1194,o),
(440,1266,o),
(595,1266,cs),
(716,1266,o),
(825,1223,o),
(920,1157,c),
(1027,1324,l),
(902,1416,o),
(757,1461,o),
(598,1461,cs),
(308,1461,o),
(119,1309,o),
(119,1053,cs),
(119,780,o),
(337,704,o),
(536,637,cs),
(702,581,o),
(838,534,o),
(838,389,cs),
(838,252,o),
(716,167,o),
(550,167,cs),
(417,167,o),
(295,224,o),
(184,303,c),
(75,135,l)
);
}
);
width = 1148;
},
{
layerId = "0C6ED426-E59F-42BE-A2AF-648DBA17C507";
shapes = (
{
closed = 1;
nodes = (
(217,30,o),
(354,-22,o),
(523,-22,cs),
(824,-22,o),
(1003,142,o),
(1003,374,cs),
(1003,620,o),
(803,701,o),
(584,778,cs),
(385,848,o),
(214,904,o),
(214,1102,cs),
(214,1253,o),
(313,1385,o),
(568,1385,cs),
(699,1385,o),
(821,1350,o),
(922,1283,c),
(962,1341,l),
(849,1415,o),
(717,1456,o),
(572,1456,cs),
(311,1456,o),
(133,1323,o),
(133,1097,cs),
(133,861,o),
(327,786,o),
(541,710,cs),
(772,629,o),
(922,573,o),
(922,375,cs),
(922,165,o),
(752,49,o),
(526,49,cs),
(373,49,o),
(243,103,o),
(131,178,c),
(90,117,l)
);
}
);
width = 1108;
},
{
layerId = "27ACF26B-8C89-4195-A22E-C9A713B2D4DA";
shapes = (
{
closed = 1;
nodes = (
(218,27,o),
(391,-35,o),
(598,-35,cs),
(976,-35,o),
(1184,170,o),
(1184,452,cs),
(1184,757,o),
(941,841,o),
(754,901,cs),
(615,945,o),
(544,967,o),
(544,1029,cs),
(544,1073,o),
(579,1106,o),
(674,1106,cs),
(762,1106,o),
(878,1078,o),
(975,1029,c),
(1137,1330,l),
(998,1421,o),
(829,1468,o),
(654,1468,cs),
(315,1468,o),
(107,1290,o),
(107,997,cs),
(107,683,o),
(347,603,o),
(530,543,cs),
(655,502,o),
(735,477,o),
(735,410,cs),
(735,356,o),
(683,328,o),
(586,328,cs),
(468,328,o),
(340,369,o),
(227,431,c),
(65,130,l)
);
}
);
width = 1254;
},
{
layerId = "758B6861-60C6-4092-9073-6CD691788EA2";
shapes = (
{
closed = 1;
nodes = (
(182,28,o),
(313,-27,o),
(471,-27,cs),
(747,-27,o),
(918,146,o),
(918,401,cs),
(918,679,o),
(714,760,o),
(552,830,cs),
(419,887,o),
(305,941,o),
(305,1083,cs),
(305,1207,o),
(391,1282,o),
(518,1282,cs),
(609,1282,o),
(697,1246,o),
(773,1185,c),
(879,1331,l),
(772,1421,o),
(648,1461,o),
(517,1461,cs),
(270,1461,o),
(100,1313,o),
(100,1060,cs),
(100,803,o),
(276,725,o),
(446,652,cs),
(584,593,o),
(711,538,o),
(711,380,cs),
(711,233,o),
(601,151,o),
(467,151,cs),
(359,151,o),
(260,201,o),
(170,276,c),
(64,128,l)
);
}
);
width = 982;
},
{
layerId = "83D261EB-5180-4991-884D-E57EC90CAEFB";
shapes = (
{
closed = 1;
nodes = (
(236,31,o),
(400,-27,o),
(603,-27,cs),
(965,-27,o),
(1169,158,o),
(1169,413,cs),
(1169,693,o),
(923,775,o),
(699,845,cs),
(503,906,o),
(369,948,o),
(369,1075,cs),
(369,1188,o),
(474,1258,o),
(651,1258,cs),
(786,1258,o),
(906,1217,o),
(1010,1152,c),
(1119,1326,l),
(984,1418,o),
(828,1461,o),
(658,1461,cs),
(338,1461,o),
(132,1308,o),
(132,1051,cs),
(132,773,o),
(373,699,o),
(591,633,cs),
(781,576,o),
(932,529,o),
(932,391,cs),
(932,257,o),
(791,175,o),
(606,175,cs),
(455,175,o),
(322,230,o),
(200,308,c),
(88,133,l)
);
}
);
width = 1258;
},
{
layerId = "DCA03E4F-A7C4-4A27-9237-642BF2693270";
shapes = (
{
closed = 1;
nodes = (
(243,29,o),
(396,-30,o),
(596,-30,cs),
(952,-30,o),
(1139,158,o),
(1139,420,cs),
(1139,709,o),
(910,786,o),
(693,857,cs),
(505,919,o),
(390,955,o),
(390,1079,cs),
(390,1186,o),
(475,1253,o),
(645,1253,cs),
(776,1253,o),
(883,1213,o),
(983,1149,c),
(1096,1337,l),
(965,1430,o),
(818,1474,o),
(650,1474,cs),
(333,1474,o),
(145,1317,o),
(145,1053,cs),
(145,768,o),
(364,697,o),
(581,627,cs),
(762,569,o),
(892,530,o),
(892,395,cs),
(892,267,o),
(776,190,o),
(599,190,cs),
(451,190,o),
(331,244,o),
(215,321,c),
(100,132,l)
);
}
);
width = 1239;
},
{
layerId = "5A3B0B44-0D2D-4186-9E39-19797E3BFD87";
shapes = (
{
closed = 1;
nodes = (
(190,36,o),
(334,-25,o),
(513,-25,cs),
(820,-25,o),
(996,156,o),
(996,406,cs),
(996,683,o),
(779,762,o),
(593,832,cs),
(425,895,o),
(316,944,o),
(316,1081,cs),
(316,1202,o),
(403,1281,o),
(555,1281,cs),
(665,1281,o),
(769,1240,o),
(859,1174,c),
(958,1324,l),
(840,1414,o),
(707,1459,o),
(555,1459,cs),
(283,1459,o),
(105,1310,o),
(105,1060,cs),
(105,792,o),
(309,719,o),
(499,648,cs),
(660,588,o),
(785,537,o),
(785,387,cs),
(785,241,o),
(668,153,o),
(510,153,cs),
(384,153,o),
(269,208,o),
(165,287,c),
(64,135,l)
);
}
);
width = 1064;
}
);
unicode = 83;
userData = {
com.typemytype.robofont.mark = (
0.656,
1,
0.6,
1
);
};
},
{
glyphname = T;
lastChange = "2017-11-16 23:22:27 +0000";
layers = (
{
layerId = "0FCA90BE-146C-409C-AA6F-2BDBAA20F869";
shapes = (
{
closed = 1;
nodes = (
(708,0,l),
(708,1252,l),
(485,1252,l),
(485,0,l)
);
},
{
closed = 1;
nodes = (
(1168,1232,l),
(1168,1434,l),
(25,1434,l),
(25,1232,l)
);
}
);
width = 1193;
},
{
layerId = "0C6ED426-E59F-42BE-A2AF-648DBA17C507";
shapes = (
{
closed = 1;
nodes = (
(610,0,l),
(610,1373,l),
(532,1373,l),
(532,0,l)
);
},
{
closed = 1;
nodes = (
(1113,1358,l),
(1113,1434,l),
(30,1434,l),
(30,1358,l)
);
}
);
width = 1143;
},
{
layerId = "27ACF26B-8C89-4195-A22E-C9A713B2D4DA";
shapes = (
{
closed = 1;
nodes = (
(855,0,l),
(855,1085,l),
(412,1085,l),
(412,0,l)
);
},
{
closed = 1;
nodes = (
(1250,1055,l),
(1250,1434,l),
(17,1434,l),
(17,1055,l)
);
}
);
width = 1287;
},
{
layerId = "758B6861-60C6-4092-9073-6CD691788EA2";
shapes = (
{
closed = 1;
nodes = (
(610,0,l),
(610,1268,l),
(407,1268,l),
(407,0,l)
);
},
{
closed = 1;
nodes = (
(997,1248,l),
(997,1434,l),
(21,1434,l),
(21,1248,l)
);
}
);
width = 1018;
},
{
layerId = "83D261EB-5180-4991-884D-E57EC90CAEFB";
shapes = (
{
closed = 1;
nodes = (
(770,0,l),
(770,1246,l),
(538,1246,l),
(538,0,l)
);
},
{
closed = 1;
nodes = (
(1281,1226,l),
(1281,1434,l),
(27,1434,l),
(27,1226,l)
);
}
);
width = 1308;
},
{
layerId = "DCA03E4F-A7C4-4A27-9237-642BF2693270";
shapes = (
{
closed = 1;
nodes = (
(760,0,l),
(760,1236,l),
(520,1236,l),
(520,0,l)
);
},
{
closed = 1;
nodes = (
(1230,1214,l),
(1230,1444,l),
(50,1444,l),
(50,1214,l)
);
}
);
width = 1280;
},
{
layerId = "5A3B0B44-0D2D-4186-9E39-19797E3BFD87";
shapes = (
{
closed = 1;
nodes = (
(656,0,l),
(656,1270,l),
(450,1270,l),
(450,0,l)
);
},
{
closed = 1;
nodes = (
(1090,1251,l),
(1090,1434,l),
(16,1434,l),
(16,1251,l)
);
}
);
width = 1106;
}
);
unicode = 84;
userData = {
com.typemytype.robofont.mark = (
0.656,
1,
0.6,
1
);
};
},
{
glyphname = U;
lastChange = "2017-11-16 23:22:27 +0000";
layers = (
{
layerId = "0FCA90BE-146C-409C-AA6F-2BDBAA20F869";
shapes = (
{
closed = 1;
nodes = (
(165,146,o),
(380,-27,o),
(716,-27,cs),
(1053,-27,o),
(1285,147,o),
(1285,567,cs),
(1285,1434,l),
(1063,1434,l),
(1063,577,ls),
(1063,279,o),
(934,168,o),
(723,168,cs),
(515,168,o),
(387,275,o),
(387,564,cs),
(387,1434,l),
(165,1434,l),
(165,559,ls)
);
}
);
width = 1450;
},
{
layerId = "0C6ED426-E59F-42BE-A2AF-648DBA17C507";
shapes = (
{
closed = 1;
nodes = (
(195,139,o),
(393,-22,o),
(715,-22,cs),
(1039,-22,o),
(1254,142,o),
(1254,559,cs),
(1254,1434,l),
(1176,1434,l),
(1176,570,ls),
(1176,189,o),
(1003,49,o),
(719,49,cs),
(440,49,o),
(272,184,o),
(272,556,cs),
(272,1434,l),
(195,1434,l),
(195,550,ls)
);
}
);
width = 1449;
},
{
layerId = "27ACF26B-8C89-4195-A22E-C9A713B2D4DA";
shapes = (
{
closed = 1;
nodes = (
(130,150,o),
(367,-34,o),
(725,-34,cs),
(1082,-34,o),
(1336,148,o),
(1336,558,cs),
(1336,1434,l),
(898,1434,l),
(898,568,ls),
(898,388,o),
(838,327,o),
(736,327,cs),
(635,327,o),
(569,386,o),
(569,556,cs),
(569,1434,l),
(130,1434,l),
(130,551,ls)
);
}
);
width = 1466;
},
{
layerId = "758B6861-60C6-4092-9073-6CD691788EA2";
shapes = (
{
closed = 1;
nodes = (
(138,127,o),
(322,-27,o),
(608,-27,cs),
(895,-27,o),
(1094,128,o),
(1094,559,cs),
(1094,1434,l),
(892,1434,l),
(892,568,ls),
(892,247,o),
(787,152,o),
(614,152,cs),
(445,152,o),
(340,243,o),
(340,555,cs),
(340,1434,l),
(138,1434,l),
(138,551,l)
);
}
);
width = 1232;
},
{
layerId = "83D261EB-5180-4991-884D-E57EC90CAEFB";
shapes = (
{
closed = 1;
nodes = (
(185,146,o),
(421,-27,o),
(789,-27,cs),
(1159,-27,o),
(1414,147,o),
(1414,567,cs),
(1414,1434,l),
(1184,1434,l),
(1184,577,ls),
(1184,284,o),
(1037,175,o),
(797,175,cs),
(560,175,o),
(415,280,o),
(415,564,cs),
(415,1434,l),
(185,1434,l),
(185,559,l)
);
}
);
width = 1599;
},
{
layerId = "DCA03E4F-A7C4-4A27-9237-642BF2693270";
shapes = (
{
closed = 1;
nodes = (
(192,146,o),
(416,-30,o),
(766,-30,cs),
(1117,-30,o),
(1359,146,o),
(1359,568,cs),
(1359,1444,l),
(1121,1444,l),
(1121,578,ls),
(1121,295,o),
(989,191,o),
(774,191,cs),
(561,191,o),
(430,292,o),
(430,565,cs),
(430,1444,l),
(192,1444,l),
(192,560,l)
);
}
);
width = 1551;
},
{
layerId = "5A3B0B44-0D2D-4186-9E39-19797E3BFD87";
shapes = (
{
closed = 1;
nodes = (
(148,146,o),
(351,-25,o),
(667,-25,cs),
(984,-25,o),
(1202,147,o),
(1202,567,cs),
(1202,1434,l),
(996,1434,l),
(996,577,ls),
(996,268,o),
(874,153,o),
(673,153,cs),
(476,153,o),
(354,264,o),
(354,564,cs),
(354,1434,l),
(148,1434,l),
(148,559,l)
);
}
);
width = 1350;
}
);
unicode = 85;
userData = {
com.typemytype.robofont.guides = (
{
angle = 0;
isGlobal = 0;
magnetic = 5;
x = 0;
y = 168;
}
);
com.typemytype.robofont.mark = (
0.656,
1,
0.6,
1
);
};
},
{
glyphname = V;
lastChange = "2017-11-16 23:22:27 +0000";
layers = (
{
layerId = "0FCA90BE-146C-409C-AA6F-2BDBAA20F869";
shapes = (
{
closed = 1;
nodes = (
(765,0,l),
(1274,1434,l),
(1044,1434,l),
(701,399,ls),
(679,331,o),
(656,264,o),
(634,196,c),
(678,266,l),
(631,266,l),
(673,196,l),
(651,264,o),
(628,332,o),
(606,400,cs),
(265,1434,l),
(24,1434,l),
(528,0,l)
);
}
);
width = 1295;
},
{
layerId = "0C6ED426-E59F-42BE-A2AF-648DBA17C507";
shapes = (
{
closed = 1;
nodes = (
(636,0,l),
(1148,1434,l),
(1064,1434,l),
(646,245,ls),
(619,168,o),
(591,90,o),
(564,13,c),
(598,83,l),
(576,83,l),
(610,14,l),
(583,92,o),
(555,169,o),
(528,247,cs),
(114,1434,l),
(29,1434,l),
(534,0,l)
);
}
);
width = 1173;
},
{
layerId = "27ACF26B-8C89-4195-A22E-C9A713B2D4DA";
shapes = (
{
closed = 1;
nodes = (
(959,0,l),
(1459,1434,l),
(1017,1434,l),
(782,566,ls),
(767,512,o),
(752,455,o),
(736,400,c),
(795,470,l),
(710,470,l),
(764,399,l),
(749,455,o),
(733,510,o),
(717,566,cs),
(478,1434,l),
(18,1434,l),
(516,0,l)
);
}
);
width = 1476;
},
{
layerId = "758B6861-60C6-4092-9073-6CD691788EA2";
shapes = (
{
closed = 1;
nodes = (
(666,0,l),
(1092,1434,l),
(884,1434,l),
(601,380,ls),
(582,309,o),
(564,242,o),
(545,152,c),
(582,234,l),
(540,234,l),
(576,153,l),
(556,242,o),
(539,310,o),
(520,381,cs),
(238,1434,l),
(20,1434,l),
(442,0,l)
);
}
);
width = 1110;
},
{
layerId = "83D261EB-5180-4991-884D-E57EC90CAEFB";
shapes = (
{
closed = 1;
nodes = (
(839,0,l),
(1397,1434,l),
(1154,1434,l),
(770,405,ls),
(745,337,o),
(719,271,o),
(695,204,c),
(744,274,l),
(695,274,l),
(740,203,l),
(716,271,o),
(690,338,o),
(665,406,cs),
(283,1434,l),
(29,1434,l),
(582,0,l)
);
}
);
width = 1423;
},
{
layerId = "DCA03E4F-A7C4-4A27-9237-642BF2693270";
shapes = (
{
closed = 1;
nodes = (
(824,0,l),
(1353,1444,l),
(1107,1444,l),
(763,440,ls),
(733,353,o),
(716,277,o),
(701,161,c),
(731,233,l),
(681,233,l),
(709,161,l),
(694,278,o),
(676,354,o),
(647,440,cs),
(306,1444,l),
(48,1444,l),
(571,0,l)
);
}
);
width = 1397;
},
{
layerId = "5A3B0B44-0D2D-4186-9E39-19797E3BFD87";
shapes = (
{
closed = 1;
nodes = (
(709,0,l),
(1188,1434,l),
(977,1434,l),
(650,376,ls),
(629,307,o),
(608,238,o),
(587,169,c),
(628,238,l),
(584,238,l),
(624,169,l),
(603,239,o),
(581,308,o),
(560,377,cs),
(236,1434,l),
(15,1434,l),
(488,0,l)
);
}
);
width = 1200;
}
);
unicode = 86;
userData = {
com.typemytype.robofont.mark = (
0.656,
1,
0.6,
1
);
};
},
{
glyphname = W;
lastChange = "2017-11-16 23:22:27 +0000";
layers = (
{
layerId = "0FCA90BE-146C-409C-AA6F-2BDBAA20F869";
shapes = (
{
closed = 1;
nodes = (
(686,0,l),
(937,931,ls),
(957,1005,o),
(977,1079,o),
(997,1153,c),
(967,1098,l),
(1004,1098,l),
(975,1153,l),
(995,1079,o),
(1016,1005,o),
(1036,931,cs),
(1293,0,l),
(1534,0,l),
(1922,1434,l),
(1687,1434,l),
(1461,476,ls),
(1443,401,o),
(1426,326,o),
(1408,251,c),
(1449,318,l),
(1389,318,l),
(1435,251,l),
(1414,326,o),
(1394,402,o),
(1373,477,cs),
(1114,1412,l),
(872,1412,l),
(620,477,ls),
(600,402,o),
(579,326,o),
(559,251,c),
(597,318,l),
(550,318,l),
(584,251,l),
(567,326,o),
(550,401,o),
(532,476,cs),
(308,1434,l),
(63,1434,l),
(447,0,l)
);
}
);
width = 1983;
},
{
layerId = "0C6ED426-E59F-42BE-A2AF-648DBA17C507";
shapes = (
{
closed = 1;
nodes = (
(556,0,l),
(881,1098,ls),
(907,1185,o),
(932,1273,o),
(958,1360,c),
(931,1304,l),
(953,1304,l),
(927,1360,l),
(953,1273,o),
(978,1185,o),
(1004,1098,cs),
(1328,0,l),
(1430,0,l),
(1812,1434,l),
(1732,1434,l),
(1428,282,ls),
(1404,192,o),
(1381,102,o),
(1357,12,c),
(1391,97,l),
(1369,97,l),
(1404,11,l),
(1377,102,o),
(1351,192,o),
(1324,283,cs),
(992,1414,l),
(895,1414,l),
(563,283,ls),
(536,192,o),
(510,102,o),
(483,11,c),
(517,97,l),
(495,97,l),
(528,12,l),
(504,102,o),
(481,192,o),
(457,282,cs),
(156,1434,l),
(70,1434,l),
(452,0,l)
);
}
);
width = 1882;
},
{
layerId = "27ACF26B-8C89-4195-A22E-C9A713B2D4DA";
shapes = (
{
closed = 1;
nodes = (
(891,0,l),
(1048,829,ls),
(1061,891,o),
(1074,953,o),
(1085,1015,c),
(1043,926,l),
(1102,926,l),
(1057,1015,l),
(1071,953,o),
(1084,891,o),
(1098,829,cs),
(1272,0,l),
(1736,0,l),
(2125,1434,l),
(1668,1434,l),
(1534,602,ls),
(1523,540,o),
(1513,478,o),
(1502,416,c),
(1554,502,l),
(1464,502,l),
(1526,416,l),
(1514,478,o),
(1499,540,o),
(1486,602,cs),
(1321,1413,l),
(855,1413,l),
(708,602,ls),
(696,540,o),
(685,478,o),
(672,416,c),
(724,502,l),
(640,502,l),
(692,416,l),
(683,479,o),
(671,541,o),
(661,602,cs),
(529,1434,l),
(56,1434,l),
(435,0,l)
);
}
);
width = 2175;
},
{
layerId = "758B6861-60C6-4092-9073-6CD691788EA2";
shapes = (
{
closed = 1;
nodes = (
(600,0,l),
(800,951,ls),
(816,1027,o),
(832,1109,o),
(849,1205,c),
(824,1146,l),
(857,1146,l),
(833,1205,l),
(851,1109,o),
(867,1027,o),
(883,951,cs),
(1089,0,l),
(1318,0,l),
(1643,1434,l),
(1430,1434,l),
(1246,453,ls),
(1231,376,o),
(1217,293,o),
(1203,196,c),
(1237,268,l),
(1183,268,l),
(1222,196,l),
(1204,293,o),
(1188,377,o),
(1171,454,cs),
(964,1412,l),
(733,1412,l),
(533,454,ls),
(517,377,o),
(499,293,o),
(483,196,c),
(515,268,l),
(472,268,l),
(500,196,l),
(487,293,o),
(472,376,o),
(458,453,cs),
(275,1434,l),
(54,1434,l),
(375,0,l)
);
}
);
width = 1695;
},
{
layerId = "83D261EB-5180-4991-884D-E57EC90CAEFB";
shapes = (
{
closed = 1;
nodes = (
(755,0,l),
(1036,932,ls),
(1059,1006,o),
(1081,1079,o),
(1104,1152,c),
(1071,1096,l),
(1111,1096,l),
(1077,1152,l),
(1099,1079,o),
(1122,1006,o),
(1145,932,cs),
(1432,0,l),
(1698,0,l),
(2123,1434,l),
(1874,1434,l),
(1619,481,ls),
(1599,406,o),
(1580,332,o),
(1559,258,c),
(1606,326,l),
(1542,326,l),
(1591,258,l),
(1567,332,o),
(1545,407,o),
(1521,482,cs),
(1231,1412,l),
(963,1412,l),
(680,482,ls),
(657,407,o),
(634,332,o),
(611,258,c),
(652,326,l),
(603,326,l),
(641,258,l),
(622,332,o),
(602,406,o),
(582,481,cs),
(329,1434,l),
(70,1434,l),
(491,0,l)
);
}
);
width = 2191;
},
{
layerId = "DCA03E4F-A7C4-4A27-9237-642BF2693270";
shapes = (
{
closed = 1;
nodes = (
(743,0,l),
(989,897,ls),
(1020,1009,o),
(1040,1125,o),
(1055,1226,c),
(1022,1157,l),
(1076,1157,l),
(1049,1226,l),
(1062,1123,o),
(1081,1010,o),
(1113,897,cs),
(1366,0,l),
(1624,0,l),
(2027,1444,l),
(1775,1444,l),
(1553,525,ls),
(1526,416,o),
(1512,302,o),
(1501,199,c),
(1526,268,l),
(1476,268,l),
(1506,199,l),
(1491,302,o),
(1473,417,o),
(1442,525,cs),
(1188,1417,l),
(928,1417,l),
(681,525,ls),
(651,417,o),
(633,302,o),
(618,199,c),
(648,268,l),
(598,268,l),
(623,199,l),
(612,302,o),
(597,416,o),
(571,525,cs),
(351,1444,l),
(88,1444,l),
(487,0,l)
);
}
);
width = 2112;
},
{
layerId = "5A3B0B44-0D2D-4186-9E39-19797E3BFD87";
shapes = (
{
closed = 1;
nodes = (
(636,0,l),
(873,956,ls),
(892,1031,o),
(911,1107,o),
(930,1183,c),
(902,1130,l),
(936,1130,l),
(909,1183,l),
(928,1107,o),
(948,1031,o),
(967,956,cs),
(1210,0,l),
(1435,0,l),
(1797,1434,l),
(1583,1434,l),
(1367,448,ls),
(1350,371,o),
(1334,294,o),
(1317,217,c),
(1355,283,l),
(1300,283,l),
(1343,217,l),
(1323,294,o),
(1304,372,o),
(1284,449,cs),
(1039,1412,l),
(813,1412,l),
(575,449,ls),
(556,372,o),
(536,294,o),
(517,217,c),
(553,283,l),
(509,283,l),
(541,217,l),
(525,294,o),
(509,371,o),
(492,448,cs),
(278,1434,l),
(54,1434,l),
(413,0,l)
);
}
);
width = 1849;
}
);
unicode = 87;
userData = {
com.typemytype.robofont.guides = (
{
angle = 0;
isGlobal = 0;
magnetic = 5;
x = 0;
y = 337;
},
{
angle = 74.49;
isGlobal = 0;
magnetic = 5;
x = 686;
y = 0;
},
{
angle = 105.91;
isGlobal = 0;
magnetic = 5;
x = 1284;
y = 0;
}
);
com.typemytype.robofont.mark = (
0.656,
1,
0.6,
1
);
};
},
{
glyphname = X;
lastChange = "2017-11-16 23:22:27 +0000";
layers = (
{
layerId = "0FCA90BE-146C-409C-AA6F-2BDBAA20F869";
shapes = (
{
closed = 1;
nodes = (
(1200,0,l),
(642,888,l),
(608,888,l),
(280,1434,l),
(27,1434,l),
(563,560,l),
(601,560,l),
(944,0,l)
);
},
{
closed = 1;
nodes = (
(263,0,l),
(657,669,l),
(714,669,l),
(1187,1434,l),
(937,1434,l),
(551,781,l),
(499,781,l),
(15,0,l)
);
}
);
width = 1209;
},
{
layerId = "0C6ED426-E59F-42BE-A2AF-648DBA17C507";
shapes = (
{
closed = 1;
nodes = (
(1117,0,l),
(583,794,l),
(577,794,l),
(148,1434,l),
(56,1434,l),
(568,663,l),
(575,663,l),
(1021,0,l)
);
},
{
closed = 1;
nodes = (
(131,0,l),
(600,708,l),
(615,708,l),
(1104,1434,l),
(1008,1434,l),
(553,749,l),
(542,749,l),
(35,0,l)
);
}
);
width = 1152;
},
{
layerId = "27ACF26B-8C89-4195-A22E-C9A713B2D4DA";
shapes = (
{
closed = 1;
nodes = (
(1378,0,l),
(772,1022,l),
(686,1022,l),
(505,1434,l),
(15,1434,l),
(602,416,l),
(696,416,l),
(892,0,l)
);
},
{
closed = 1;
nodes = (
(488,0,l),
(782,625,l),
(912,625,l),
(1362,1434,l),
(891,1434,l),
(597,815,l),
(474,815,l),
(17,0,l)
);
}
);
width = 1388;
},
{
layerId = "758B6861-60C6-4092-9073-6CD691788EA2";
shapes = (
{
closed = 1;
nodes = (
(1037,0,l),
(556,884,l),
(526,884,l),
(243,1434,l),
(24,1434,l),
(486,565,l),
(520,565,l),
(817,0,l)
);
},
{
closed = 1;
nodes = (
(229,0,l),
(568,672,l),
(618,672,l),
(1024,1434,l),
(810,1434,l),
(477,778,l),
(431,778,l),
(14,0,l)
);
}
);
width = 1046;
},
{
layerId = "83D261EB-5180-4991-884D-E57EC90CAEFB";
shapes = (
{
closed = 1;
nodes = (
(1315,0,l),
(701,895,l),
(668,895,l),
(309,1434,l),
(31,1434,l),
(622,553,l),
(658,553,l),
(1035,0,l)
);
},
{
closed = 1;
nodes = (
(280,0,l),
(724,666,l),
(777,666,l),
(1300,1434,l),
(1036,1434,l),
(601,783,l),
(554,783,l),
(16,0,l)
);
}
);
width = 1331;
},
{
layerId = "DCA03E4F-A7C4-4A27-9237-642BF2693270";
shapes = (
{
closed = 1;
nodes = (
(1271,0,l),
(687,909,l),
(653,909,l),
(318,1444,l),
(47,1444,l),
(607,549,l),
(646,549,l),
(999,0,l)
);
},
{
closed = 1;
nodes = (
(300,0,l),
(706,671,l),
(764,671,l),
(1256,1444,l),
(991,1444,l),
(593,788,l),
(541,788,l),
(35,0,l)
);
}
);
width = 1301;
},
{
layerId = "5A3B0B44-0D2D-4186-9E39-19797E3BFD87";
shapes = (
{
closed = 1;
nodes = (
(1091,0,l),
(574,892,l),
(561,892,l),
(274,1434,l),
(42,1434,l),
(541,559,l),
(557,559,l),
(858,0,l)
);
},
{
closed = 1;
nodes = (
(259,0,l),
(619,685,l),
(649,685,l),
(1079,1434,l),
(852,1434,l),
(498,766,l),
(473,766,l),
(32,0,l)
);
}
);
width = 1123;
}
);
unicode = 88;
userData = {
com.typemytype.robofont.guides = (
{
angle = 0;
isGlobal = 0;
magnetic = 5;
x = 0;
y = 717;
}
);
com.typemytype.robofont.mark = (
0.656,
1,
0.6,
1
);
};
},
{
glyphname = Y;
lastChange = "2017-11-16 23:22:27 +0000";
layers = (
{
layerId = "0FCA90BE-146C-409C-AA6F-2BDBAA20F869";
shapes = (
{
closed = 1;
nodes = (
(734,0,l),
(734,612,l),
(510,612,l),
(510,0,l)
);
},
{
closed = 1;
nodes = (
(707,510,l),
(1239,1434,l),
(998,1434,l),
(710,910,ls),
(671,840,o),
(633,770,o),
(594,700,c),
(660,767,l),
(598,767,l),
(663,700,l),
(624,770,o),
(585,840,o),
(546,910,cs),
(253,1434,l),
(5,1434,l),
(536,510,l)
);
}
);
width = 1244;
},
{
layerId = "0C6ED426-E59F-42BE-A2AF-648DBA17C507";
shapes = (
{
closed = 1;
nodes = (
(592,0,l),
(592,582,l),
(514,582,l),
(514,0,l)
);
},
{
closed = 1;
nodes = (
(566,517,l),
(1093,1434,l),
(1003,1434,l),
(650,815,ls),
(607,740,o),
(564,662,o),
(520,586,c),
(586,653,l),
(524,653,l),
(589,586,l),
(545,662,o),
(501,739,o),
(457,815,cs),
(100,1434,l),
(10,1434,l),
(540,517,l)
);
}
);
width = 1103;
},
{
layerId = "27ACF26B-8C89-4195-A22E-C9A713B2D4DA";
shapes = (
{
closed = 1;
nodes = (
(944,0,l),
(944,663,l),
(504,663,l),
(504,0,l)
);
},
{
closed = 1;
nodes = (
(917,500,l),
(1453,1434,l),
(996,1434,l),
(787,985,ls),
(760,928,o),
(731,868,o),
(703,811,c),
(770,893,l),
(707,893,l),
(773,811,l),
(745,868,o),
(715,926,o),
(688,984,cs),
(474,1434,l),
(0,1434,l),
(529,500,l)
);
}
);
width = 1453;
},
{
layerId = "758B6861-60C6-4092-9073-6CD691788EA2";
shapes = (
{
closed = 1;
nodes = (
(636,0,l),
(636,608,l),
(433,608,l),
(433,0,l)
);
},
{
closed = 1;
nodes = (
(613,511,l),
(1063,1434,l),
(848,1434,l),
(610,899,ls),
(578,828,o),
(546,756,o),
(513,665,c),
(568,745,l),
(515,745,l),
(569,665,l),
(535,756,o),
(503,828,o),
(471,899,cs),
(229,1434,l),
(6,1434,l),
(455,511,l)
);
}
);
width = 1069;
},
{
layerId = "83D261EB-5180-4991-884D-E57EC90CAEFB";
shapes = (
{
closed = 1;
nodes = (
(798,0,l),
(798,614,l),
(565,614,l),
(565,0,l)
);
},
{
closed = 1;
nodes = (
(772,508,l),
(1358,1434,l),
(1099,1434,l),
(778,912,ls),
(735,843,o),
(692,774,o),
(648,704,c),
(723,772,l),
(655,772,l),
(728,704,l),
(684,774,o),
(641,843,o),
(597,912,cs),
(271,1434,l),
(4,1434,l),
(589,508,l)
);
}
);
width = 1361;
},
{
layerId = "DCA03E4F-A7C4-4A27-9237-642BF2693270";
shapes = (
{
closed = 1;
nodes = (
(780,0,l),
(780,624,l),
(540,624,l),
(540,0,l)
);
},
{
closed = 1;
nodes = (
(752,517,l),
(1305,1444,l),
(1047,1444,l),
(783,978,ls),
(712,853,o),
(683,785,o),
(641,677,c),
(700,760,l),
(635,760,l),
(693,677,l),
(651,785,o),
(619,854,o),
(548,978,cs),
(280,1444,l),
(15,1444,l),
(567,517,l)
);
}
);
width = 1320;
},
{
layerId = "5A3B0B44-0D2D-4186-9E39-19797E3BFD87";
shapes = (
{
closed = 1;
nodes = (
(674,0,l),
(674,618,l),
(467,618,l),
(467,0,l)
);
},
{
closed = 1;
nodes = (
(649,521,l),
(1143,1434,l),
(922,1434,l),
(654,903,ls),
(618,831,o),
(581,761,o),
(544,690,c),
(606,755,l),
(548,755,l),
(609,690,l),
(572,761,o),
(534,832,o),
(498,903,cs),
(225,1434,l),
(-2,1434,l),
(491,521,l)
);
}
);
width = 1141;
}
);
unicode = 89;
userData = {
com.typemytype.robofont.mark = (
0.656,
1,
0.6,
1
);
};
},
{
glyphname = Z;
lastChange = "2017-11-16 23:22:27 +0000";
layers = (
{
layerId = "0FCA90BE-146C-409C-AA6F-2BDBAA20F869";
shapes = (
{
closed = 1;
nodes = (
(1147,0,l),
(1147,200,l),
(497,200,ls),
(440,200,o),
(384,200,o),
(327,200,c),
(349,193,l),
(343,208,l),
(333,184,l),
(369,233,o),
(406,282,o),
(442,331,cs),
(1120,1244,l),
(1120,1434,l),
(81,1434,l),
(81,1234,l),
(683,1234,ls),
(740,1234,o),
(797,1234,o),
(854,1234,c),
(832,1238,l),
(836,1230,l),
(846,1249,l),
(810,1200,o),
(774,1152,o),
(738,1103,cs),
(60,190,l),
(60,0,l)
);
}
);
width = 1207;
},
{
layerId = "0C6ED426-E59F-42BE-A2AF-648DBA17C507";
shapes = (
{
closed = 1;
nodes = (
(1100,0,l),
(1100,76,l),
(354,76,ls),
(289,76,o),
(223,76,o),
(158,76,c),
(174,72,l),
(170,80,l),
(163,63,l),
(205,123,o),
(247,183,o),
(289,243,cs),
(1072,1363,l),
(1072,1434,l),
(100,1434,l),
(100,1358,l),
(794,1358,ls),
(860,1358,o),
(925,1358,o),
(991,1358,c),
(972,1362,l),
(976,1355,l),
(984,1371,l),
(942,1311,o),
(901,1252,o),
(859,1192,cs),
(75,71,l),
(75,0,l)
);
}
);
width = 1175;
},
{
layerId = "27ACF26B-8C89-4195-A22E-C9A713B2D4DA";
shapes = (
{
closed = 1;
nodes = (
(1227,0,l),
(1227,371,l),
(718,371,ls),
(674,371,o),
(629,371,o),
(585,371,c),
(620,367,l),
(615,379,l),
(596,350,l),
(624,385,o),
(652,419,o),
(681,454,cs),
(1201,1085,l),
(1201,1434,l),
(70,1434,l),
(70,1063,l),
(537,1063,ls),
(581,1063,o),
(625,1063,o),
(669,1063,c),
(635,1067,l),
(642,1055,l),
(658,1081,l),
(631,1048,o),
(603,1015,o),
(576,982,cs),
(55,349,l),
(55,0,l)
);
}
);
width = 1282;
},
{
layerId = "758B6861-60C6-4092-9073-6CD691788EA2";
shapes = (
{
closed = 1;
nodes = (
(976,0,l),
(976,183,l),
(427,183,ls),
(377,183,o),
(334,183,o),
(275,181,c),
(297,179,l),
(294,187,l),
(282,166,l),
(317,220,o),
(348,268,o),
(379,319,cs),
(953,1262,l),
(953,1434,l),
(68,1434,l),
(68,1251,l),
(577,1251,ls),
(626,1251,o),
(669,1251,o),
(728,1253,c),
(706,1255,l),
(709,1247,l),
(721,1268,l),
(685,1213,o),
(655,1166,o),
(625,1116,cs),
(50,172,l),
(50,0,l)
);
}
);
width = 1026;
},
{
layerId = "83D261EB-5180-4991-884D-E57EC90CAEFB";
shapes = (
{
closed = 1;
nodes = (
(1258,0,l),
(1258,206,l),
(536,206,ls),
(473,206,o),
(411,206,o),
(348,206,c),
(372,200,l),
(365,215,l),
(354,190,l),
(395,238,o),
(435,286,o),
(475,335,cs),
(1228,1239,l),
(1228,1434,l),
(90,1434,l),
(90,1228,l),
(759,1228,ls),
(821,1228,o),
(885,1228,o),
(948,1228,c),
(923,1232,l),
(928,1224,l),
(939,1243,l),
(899,1195,o),
(860,1148,o),
(819,1099,cs),
(66,195,l),
(66,0,l)
);
}
);
width = 1324;
},
{
layerId = "DCA03E4F-A7C4-4A27-9237-642BF2693270";
shapes = (
{
closed = 1;
nodes = (
(1214,0,l),
(1214,222,l),
(584,222,ls),
(485,222,o),
(402,215,o),
(323,207,c),
(369,206,l),
(358,230,l),
(329,198,l),
(391,249,o),
(449,299,o),
(529,401,cs),
(1186,1231,l),
(1186,1444,l),
(107,1444,l),
(107,1222,l),
(686,1222,ls),
(785,1222,o),
(868,1229,o),
(947,1237,c),
(901,1238,l),
(912,1214,l),
(941,1246,l),
(878,1194,o),
(821,1145,o),
(741,1043,cs),
(85,213,l),
(85,0,l)
);
}
);
width = 1299;
},
{
layerId = "5A3B0B44-0D2D-4186-9E39-19797E3BFD87";
shapes = (
{
closed = 1;
nodes = (
(1071,0,l),
(1071,181,l),
(452,181,ls),
(398,181,o),
(345,181,o),
(291,181,c),
(312,174,l),
(306,188,l),
(297,165,l),
(331,216,o),
(366,266,o),
(400,317,cs),
(1046,1267,l),
(1046,1434,l),
(70,1434,l),
(70,1253,l),
(644,1253,ls),
(698,1253,o),
(751,1253,o),
(805,1253,c),
(785,1257,l),
(788,1249,l),
(798,1268,l),
(764,1218,o),
(730,1168,o),
(696,1117,cs),
(50,167,l),
(50,0,l)
);
}
);
width = 1121;
}
);
unicode = 90;
userData = {
com.typemytype.robofont.mark = (
0.656,
1,
0.6,
1
);
};
},
{
glyphname = a;
lastChange = "2017-11-16 23:22:27 +0000";
layers = (
{
layerId = "0FCA90BE-146C-409C-AA6F-2BDBAA20F869";
shapes = (
{
closed = 1;
nodes = (
(772,83,o),
(780,0,o),
(896,0,cs),
(923,0,o),
(951,0,o),
(978,0,c),
(978,682,ls),
(978,881,o),
(883,1059,o),
(587,1059,cs),
(383,1059,o),
(230,975,o),
(158,912,c),
(251,777,l),
(324,832,o),
(415,883,o),
(544,883,cs),
(673,883,o),
(760,832,o),
(760,660,cs),
(760,289,l),
(772,160,l),
(772,124,ls)
);
},
{
closed = 1;
nodes = (
(770,331,l),
(720,212,o),
(619,154,o),
(492,154,cs),
(370,154,o),
(315,207,o),
(315,292,cs),
(315,434,o),
(468,459,o),
(627,459,cs),
(672,459,o),
(732,457,o),
(775,453,c),
(775,607,l),
(722,610,o),
(665,612,o),
(618,612,cs),
(321,612,o),
(105,533,o),
(105,286,cs),
(105,105,o),
(222,-22,o),
(441,-22,cs),
(570,-22,o),
(683,22,o),
(763,137,c),
(787,137,l)
);
}
);
width = 1143;
},
{
layerId = "0C6ED426-E59F-42BE-A2AF-648DBA17C507";
shapes = (
{
closed = 1;
nodes = (
(826,37,o),
(834,0,o),
(879,0,cs),
(887,0,o),
(894,0,o),
(902,0,c),
(902,684,ls),
(902,878,o),
(837,1049,o),
(557,1049,cs),
(387,1049,o),
(259,986,o),
(188,922,c),
(232,869,l),
(312,929,o),
(409,978,o),
(554,978,cs),
(712,978,o),
(826,920,o),
(826,684,cs),
(826,256,l),
(826,165,l),
(826,82,ls)
);
},
{
closed = 1;
nodes = (
(833,293,l),
(761,139,o),
(634,49,o),
(467,49,cs),
(307,49,o),
(209,131,o),
(209,270,cs),
(209,475,o),
(419,511,o),
(632,511,cs),
(693,511,o),
(774,508,o),
(840,502,c),
(842,572,l),
(771,576,o),
(703,580,o),
(637,580,cs),
(348,580,o),
(130,511,o),
(130,268,cs),
(130,114,o),
(224,-22,o),
(461,-22,cs),
(622,-22,o),
(733,42,o),
(822,153,c),
(843,153,l)
);
}
);
width = 1097;
},
{
layerId = "27ACF26B-8C89-4195-A22E-C9A713B2D4DA";
shapes = (
{
closed = 1;
nodes = (
(705,116,o),
(705,0,o),
(889,0,cs),
(957,0,o),
(1026,0,o),
(1094,0,c),
(1094,683,ls),
(1094,1015,o),
(866,1079,o),
(642,1079,cs),
(380,1079,o),
(206,991,o),
(132,947,c),
(248,721,l),
(315,756,o),
(419,792,o),
(518,792,cs),
(615,792,o),
(669,758,o),
(669,674,cs),
(669,261,l),
(705,139,l),
(705,127,ls)
);
},
{
closed = 1;
nodes = (
(676,290,l),
(653,270,o),
(597,251,o),
(548,251,cs),
(497,251,o),
(451,270,o),
(451,330,cs),
(451,410,o),
(534,428,o),
(608,428,cs),
(629,428,o),
(665,427,o),
(677,424,c),
(680,631,l),
(653,632,o),
(606,633,o),
(575,633,cs),
(295,633,o),
(70,550,o),
(70,295,cs),
(70,103,o),
(199,-25,o),
(404,-25,cs),
(514,-25,o),
(634,14,o),
(692,126,c),
(719,126,l)
);
}
);
width = 1234;
},
{
layerId = "758B6861-60C6-4092-9073-6CD691788EA2";
shapes = (
{
closed = 1;
nodes = (
(651,78,o),
(657,0,o),
(762,0,cs),
(787,0,o),
(812,0,o),
(837,0,c),
(837,709,ls),
(837,896,o),
(755,1059,o),
(499,1059,cs),
(326,1059,o),
(193,977,o),
(132,914,c),
(224,795,l),
(284,847,o),
(359,895,o),
(461,895,cs),
(569,895,o),
(639,854,o),
(639,690,cs),
(639,286,l),
(651,161,l),
(651,120,ls)
);
},
{
closed = 1;
nodes = (
(648,318,l),
(610,205,o),
(529,142,o),
(422,142,cs),
(321,142,o),
(278,199,o),
(278,288,cs),
(278,439,o),
(400,466,o),
(533,466,cs),
(569,466,o),
(618,464,o),
(652,459,c),
(652,603,l),
(609,606,o),
(564,609,o),
(516,609,cs),
(271,609,o),
(88,530,o),
(88,287,cs),
(88,106,o),
(189,-22,o),
(373,-22,cs),
(480,-22,o),
(576,22,o),
(643,131,c),
(663,131,l)
);
}
);
width = 974;
},
{
layerId = "83D261EB-5180-4991-884D-E57EC90CAEFB";
shapes = (
{
closed = 1;
nodes = (
(855,85,o),
(865,0,o),
(988,0,cs),
(1015,0,o),
(1043,0,o),
(1070,0,c),
(1070,681,ls),
(1070,887,o),
(973,1059,o),
(646,1059,cs),
(415,1059,o),
(256,974,o),
(179,914,c),
(277,772,l),
(358,826,o),
(456,876,o),
(600,876,cs),
(745,876,o),
(844,826,o),
(844,660,cs),
(844,287,l),
(855,160,l),
(855,124,ls)
);
},
{
closed = 1;
nodes = (
(855,327,l),
(798,215,o),
(684,159,o),
(538,159,cs),
(400,159,o),
(338,210,o),
(338,293,cs),
(338,431,o),
(477,456,o),
(690,456,cs),
(741,456,o),
(811,454,o),
(861,450,c),
(861,609,l),
(800,612,o),
(735,614,o),
(683,614,cs),
(329,614,o),
(118,534,o),
(118,287,cs),
(118,105,o),
(246,-22,o),
(490,-22,cs),
(632,-22,o),
(756,22,o),
(846,137,c),
(872,137,l)
);
}
);
width = 1254;
},
{
layerId = "DCA03E4F-A7C4-4A27-9237-642BF2693270";
shapes = (
{
closed = 1;
nodes = (
(858,37,o),
(862,0,o),
(912,0,cs),
(967,0,o),
(1021,0,o),
(1076,0,c),
(1076,730,ls),
(1076,962,o),
(978,1135,o),
(651,1135,cs),
(422,1135,o),
(262,1050,o),
(181,983,c),
(283,828,l),
(370,891,o),
(461,938,o),
(607,938,cs),
(751,938,o),
(845,893,o),
(845,708,cs),
(845,307,l),
(858,175,l),
(858,53,ls)
);
},
{
closed = 1;
nodes = (
(854,354,l),
(797,219,o),
(679,166,o),
(541,166,cs),
(409,166,o),
(350,215,o),
(350,310,cs),
(350,470,o),
(514,490,o),
(689,490,cs),
(744,490,o),
(813,488,o),
(860,484,c),
(860,650,l),
(802,653,o),
(738,655,o),
(685,655,cs),
(355,655,o),
(125,579,o),
(125,302,cs),
(125,97,o),
(251,-30,o),
(491,-30,cs),
(641,-30,o),
(759,20,o),
(844,146,c),
(872,146,l)
);
}
);
width = 1268;
},
{
layerId = "5A3B0B44-0D2D-4186-9E39-19797E3BFD87";
shapes = (
{
closed = 1;
nodes = (
(710,43,o),
(745,-3,o),
(836,-3,cs),
(855,-3,o),
(877,-1,o),
(901,3,c),
(901,662,ls),
(901,851,o),
(808,1026,o),
(537,1026,cs),
(352,1026,o),
(214,944,o),
(147,880,c),
(232,758,l),
(299,812,o),
(382,864,o),
(499,864,cs),
(616,864,o),
(699,812,o),
(699,642,cs),
(699,278,l),
(710,156,l),
(710,117,ls)
);
},
{
closed = 1;
nodes = (
(708,314,l),
(662,196,o),
(568,137,o),
(454,137,cs),
(342,137,o),
(289,194,o),
(289,278,cs),
(289,417,o),
(433,445,o),
(578,445,cs),
(617,445,o),
(673,443,o),
(713,439,c),
(713,582,l),
(664,585,o),
(612,587,o),
(569,587,cs),
(300,587,o),
(95,508,o),
(95,274,cs),
(95,102,o),
(205,-25,o),
(405,-25,cs),
(523,-25,o),
(628,19,o),
(702,130,c),
(724,130,l)
);
}
);
width = 1049;
}
);
unicode = 97;
userData = {
com.typemytype.robofont.mark = (
0.656,
1,
0.6,
1
);
};
},
{
glyphname = b;
lastChange = "2017-11-16 23:22:27 +0000";
layers = (
{
layerId = "0FCA90BE-146C-409C-AA6F-2BDBAA20F869";
shapes = (
{
closed = 1;
nodes = (
(320,0,o),
(462,-22,o),
(581,-22,cs),
(980,-22,o),
(1132,225,o),
(1132,536,cs),
(1132,892,o),
(935,1059,o),
(703,1059,cs),
(580,1059,o),
(475,1012,o),
(402,920,c),
(385,920,l),
(385,689,l),
(445,820,o),
(555,873,o),
(655,873,cs),
(796,873,o),
(910,769,o),
(910,525,cs),
(910,308,o),
(819,160,o),
(586,160,cs),
(526,160,o),
(462,170,o),
(393,185,c),
(393,1474,l),
(175,1474,l),
(175,40,l)
);
}
);
width = 1232;
},
{
layerId = "0C6ED426-E59F-42BE-A2AF-648DBA17C507";
shapes = (
{
closed = 1;
nodes = (
(329,-7,o),
(442,-22,o),
(534,-22,cs),
(871,-22,o),
(1057,180,o),
(1057,529,cs),
(1057,884,o),
(865,1049,o),
(637,1049,cs),
(490,1049,o),
(370,980,o),
(288,874,c),
(263,874,l),
(273,742,l),
(351,907,o),
(498,978,o),
(633,978,cs),
(822,978,o),
(978,841,o),
(978,523,cs),
(978,237,o),
(852,47,o),
(537,47,cs),
(458,47,o),
(372,59,o),
(281,79,c),
(281,1474,l),
(205,1474,l),
(205,24,l)
);
}
);
width = 1177;
},
{
layerId = "27ACF26B-8C89-4195-A22E-C9A713B2D4DA";
shapes = (
{
closed = 1;
nodes = (
(286,-2,o),
(518,-25,o),
(655,-25,cs),
(1072,-25,o),
(1262,188,o),
(1262,543,cs),
(1262,884,o),
(1086,1079,o),
(831,1079,cs),
(727,1079,o),
(640,1047,o),
(582,982,c),
(559,982,l),
(569,664,l),
(582,698,o),
(630,745,o),
(698,745,cs),
(778,745,o),
(821,680,o),
(821,527,cs),
(821,383,o),
(783,305,o),
(655,305,cs),
(630,305,o),
(601,308,o),
(572,313,c),
(572,1484,l),
(140,1484,l),
(140,41,l)
);
}
);
width = 1342;
},
{
layerId = "758B6861-60C6-4092-9073-6CD691788EA2";
shapes = (
{
closed = 1;
nodes = (
(275,-3,o),
(390,-22,o),
(489,-22,cs),
(799,-22,o),
(968,166,o),
(968,533,cs),
(968,899,o),
(800,1059,o),
(605,1059,cs),
(504,1059,o),
(417,1016,o),
(352,924,c),
(339,924,l),
(338,703,l),
(388,834,o),
(478,885,o),
(559,885,cs),
(674,885,o),
(766,783,o),
(766,524,cs),
(766,276,o),
(681,147,o),
(489,147,cs),
(448,147,o),
(399,153,o),
(345,167,c),
(345,1474,l),
(147,1474,l),
(147,34,l)
);
}
);
width = 1051;
},
{
layerId = "83D261EB-5180-4991-884D-E57EC90CAEFB";
shapes = (
{
closed = 1;
nodes = (
(355,0,o),
(505,-22,o),
(636,-22,cs),
(1074,-22,o),
(1239,223,o),
(1239,534,cs),
(1239,892,o),
(1022,1059,o),
(767,1059,cs),
(632,1059,o),
(511,1011,o),
(430,919,c),
(412,919,l),
(412,686,l),
(481,810,o),
(608,863,o),
(721,863,cs),
(880,863,o),
(1009,762,o),
(1009,524,cs),
(1009,313,o),
(905,169,o),
(639,169,cs),
(573,169,o),
(500,178,o),
(421,192,c),
(421,1474,l),
(195,1474,l),
(195,40,l)
);
}
);
width = 1351;
},
{
layerId = "DCA03E4F-A7C4-4A27-9237-642BF2693270";
shapes = (
{
closed = 1;
nodes = (
(359,-8,o),
(511,-30,o),
(639,-30,cs),
(1077,-30,o),
(1234,227,o),
(1234,569,cs),
(1234,959,o),
(1030,1135,o),
(767,1135,cs),
(632,1135,o),
(522,1089,o),
(450,980,c),
(427,980,l),
(427,726,l),
(493,871,o),
(605,924,o),
(720,924,cs),
(879,924,o),
(997,822,o),
(997,558,cs),
(997,324,o),
(904,177,o),
(642,177,cs),
(581,177,o),
(511,185,o),
(436,200,c),
(436,1499,l),
(202,1499,l),
(202,35,l)
);
}
);
width = 1359;
},
{
layerId = "5A3B0B44-0D2D-4186-9E39-19797E3BFD87";
shapes = (
{
closed = 1;
nodes = (
(292,-7,o),
(426,-25,o),
(528,-25,cs),
(902,-25,o),
(1042,215,o),
(1042,518,cs),
(1042,866,o),
(857,1026,o),
(647,1026,cs),
(533,1026,o),
(433,979,o),
(366,884,c),
(353,884,l),
(353,672,l),
(408,802,o),
(510,855,o),
(602,855,cs),
(729,855,o),
(836,753,o),
(836,508,cs),
(836,293,o),
(754,142,o),
(531,142,cs),
(486,142,o),
(424,148,o),
(360,161,c),
(360,1514,l),
(158,1514,l),
(158,29,l)
);
}
);
width = 1132;
}
);
unicode = 98;
userData = {
com.typemytype.robofont.mark = (
0.656,
1,
0.6,
1
);
};
},
{
glyphname = c;
lastChange = "2017-11-16 23:22:27 +0000";
layers = (
{
layerId = "0FCA90BE-146C-409C-AA6F-2BDBAA20F869";
shapes = (
{
closed = 1;
nodes = (
(813,199,o),
(731,165,o),
(634,165,cs),
(457,165,o),
(322,278,o),
(322,521,cs),
(322,752,o),
(444,873,o),
(636,873,cs),
(729,873,o),
(802,844,o),
(879,788,c),
(979,942,l),
(874,1019,o),
(769,1059,o),
(628,1059,cs),
(311,1059,o),
(100,856,o),
(100,513,cs),
(100,174,o),
(306,-22,o),
(618,-22,cs),
(768,-22,o),
(887,23,o),
(992,103,c),
(893,257,l)
);
}
);
width = 1047;
},
{
layerId = "0C6ED426-E59F-42BE-A2AF-648DBA17C507";
shapes = (
{
closed = 1;
nodes = (
(779,78,o),
(690,50,o),
(593,50,cs),
(370,50,o),
(199,195,o),
(199,517,cs),
(199,825,o),
(355,980,o),
(597,980,cs),
(692,980,o),
(774,956,o),
(852,898,c),
(893,958,l),
(809,1020,o),
(709,1049,o),
(597,1049,cs),
(310,1049,o),
(120,860,o),
(120,510,cs),
(120,165,o),
(304,-22,o),
(585,-22,cs),
(707,-22,o),
(814,13,o),
(905,91,c),
(865,147,l)
);
}
);
width = 985;
},
{
layerId = "27ACF26B-8C89-4195-A22E-C9A713B2D4DA";
shapes = (
{
closed = 1;
nodes = (
(857,319,o),
(792,302,o),
(731,302,cs),
(605,302,o),
(515,376,o),
(515,530,cs),
(515,675,o),
(595,752,o),
(734,752,cs),
(791,752,o),
(846,739,o),
(902,713,c),
(1035,997,l),
(927,1051,o),
(816,1079,o),
(683,1079,cs),
(319,1079,o),
(80,872,o),
(80,521,cs),
(80,175,o),
(312,-25,o),
(668,-25,cs),
(807,-25,o),
(939,5,o),
(1048,65,c),
(915,347,l)
);
}
);
width = 1078;
},
{
layerId = "758B6861-60C6-4092-9073-6CD691788EA2";
shapes = (
{
closed = 1;
nodes = (
(689,182,o),
(620,152,o),
(543,152,cs),
(395,152,o),
(284,262,o),
(284,521,cs),
(284,768,o),
(385,886,o),
(544,886,cs),
(617,886,o),
(677,861,o),
(740,808,c),
(838,945,l),
(747,1020,o),
(658,1059,o),
(536,1059,cs),
(263,1059,o),
(83,863,o),
(83,514,cs),
(83,167,o),
(260,-22,o),
(528,-22,cs),
(657,-22,o),
(759,22,o),
(849,102,c),
(753,237,l,{
name = hr00;
})
);
}
);
width = 894;
},
{
layerId = "83D261EB-5180-4991-884D-E57EC90CAEFB";
shapes = (
{
closed = 1;
nodes = (
(893,207,o),
(801,174,o),
(692,174,cs),
(494,174,o),
(342,285,o),
(342,521,cs),
(342,746,o),
(479,864,o),
(694,864,cs),
(799,864,o),
(881,836,o),
(967,782,c),
(1070,947,l),
(960,1019,o),
(847,1059,o),
(691,1059,cs),
(340,1059,o),
(112,856,o),
(112,514,cs),
(112,174,o),
(335,-22,o),
(682,-22,cs),
(842,-22,o),
(972,20,o),
(1084,100,c),
(983,263,l)
);
}
);
width = 1149;
},
{
layerId = "DCA03E4F-A7C4-4A27-9237-642BF2693270";
shapes = (
{
closed = 1;
nodes = (
(895,216,o),
(812,182,o),
(701,182,cs),
(503,182,o),
(363,292,o),
(363,556,cs),
(363,807,o),
(489,925,o),
(703,925,cs),
(810,925,o),
(883,896,o),
(966,839,c),
(1074,1014,l),
(960,1095,o),
(852,1135,o),
(698,1135,cs),
(346,1135,o),
(125,926,o),
(125,547,cs),
(125,172,o),
(340,-30,o),
(686,-30,cs),
(851,-30,o),
(975,16,o),
(1088,100,c),
(981,275,l)
);
}
);
width = 1168;
},
{
layerId = "5A3B0B44-0D2D-4186-9E39-19797E3BFD87";
shapes = (
{
closed = 1;
nodes = (
(749,180,o),
(672,147,o),
(585,147,cs),
(423,147,o),
(296,263,o),
(296,502,cs),
(296,728,o),
(410,855,o),
(587,855,cs),
(670,855,o),
(738,827,o),
(809,773,c),
(902,915,l),
(805,989,o),
(707,1026,o),
(581,1026,cs),
(286,1026,o),
(90,823,o),
(90,494,cs),
(90,168,o),
(283,-25,o),
(570,-25,cs),
(706,-25,o),
(817,18,o),
(914,95,c),
(822,237,l)
);
}
);
width = 962;
}
);
unicode = 99;
userData = {
com.typemytype.robofont.guides = (
{
angle = 90;
isGlobal = 0;
magnetic = 5;
x = 994;
y = 0;
},
{
angle = 90;
isGlobal = 0;
magnetic = 5;
x = 976;
y = 0;
}
);
com.typemytype.robofont.mark = (
0.656,
1,
0.6,
1
);
};
},
{
glyphname = d;
lastChange = "2017-11-16 23:22:27 +0000";
layers = (
{
layerId = "0FCA90BE-146C-409C-AA6F-2BDBAA20F869";
shapes = (
{
closed = 1;
nodes = (
(860,74,o),
(868,0,o),
(986,0,cs),
(1013,0,o),
(1041,0,o),
(1068,0,c),
(1068,1474,l),
(850,1474,l),
(850,320,l),
(860,160,l),
(860,120,ls)
);
},
{
closed = 1;
nodes = (
(861,367,l),
(808,218,o),
(697,163,o),
(591,163,cs),
(436,163,o),
(323,282,o),
(323,514,cs),
(323,731,o),
(422,875,o),
(620,875,cs),
(699,875,o),
(788,852,o),
(863,786,c),
(863,983,l),
(841,983,l),
(771,1028,o),
(688,1059,o),
(580,1059,cs),
(304,1059,o),
(100,859,o),
(100,507,cs),
(100,165,o),
(292,-22,o),
(538,-22,cs),
(667,-22,o),
(779,29,o),
(851,140,c),
(875,140,l)
);
}
);
width = 1243;
},
{
layerId = "0C6ED426-E59F-42BE-A2AF-648DBA17C507";
shapes = (
{
closed = 1;
nodes = (
(910,37,o),
(918,0,o),
(963,0,cs),
(971,0,o),
(978,0,o),
(986,0,c),
(986,1474,l),
(910,1474,l),
(910,261,l),
(910,185,l),
(910,82,ls)
);
},
{
closed = 1;
nodes = (
(917,307,l),
(841,111,o),
(689,49,o),
(559,49,cs),
(349,49,o),
(199,211,o),
(199,510,cs),
(199,816,o),
(356,980,o),
(598,980,cs),
(698,980,o),
(821,952,o),
(923,852,c),
(923,958,l),
(906,958,l),
(824,1015,o),
(725,1049,o),
(603,1049,cs),
(333,1049,o),
(120,882,o),
(120,508,cs),
(120,175,o),
(289,-22,o),
(556,-22,cs),
(700,-22,o),
(823,35,o),
(906,161,c),
(922,161,l)
);
}
);
width = 1191;
},
{
layerId = "27ACF26B-8C89-4195-A22E-C9A713B2D4DA";
shapes = (
{
closed = 1;
nodes = (
(808,116,o),
(808,0,o),
(992,0,cs),
(1064,0,o),
(1134,0,o),
(1204,0,c),
(1204,1484,l),
(772,1484,l),
(772,364,l),
(808,144,l),
(808,127,ls)
);
},
{
closed = 1;
nodes = (
(774,416,l),
(771,362,o),
(723,308,o),
(651,308,cs),
(565,308,o),
(522,386,o),
(522,532,cs),
(522,631,o),
(542,748,o),
(665,748,cs),
(701,748,o),
(749,738,o),
(785,711,c),
(785,1025,l),
(763,1025,l),
(703,1062,o),
(624,1079,o),
(547,1079,cs),
(266,1079,o),
(80,856,o),
(80,516,cs),
(80,191,o),
(249,-25,o),
(510,-25,cs),
(601,-25,o),
(729,1,o),
(796,133,c),
(823,133,l)
);
}
);
width = 1344;
},
{
layerId = "758B6861-60C6-4092-9073-6CD691788EA2";
shapes = (
{
closed = 1;
nodes = (
(725,70,o),
(731,0,o),
(838,0,cs),
(863,0,o),
(888,0,o),
(913,0,c),
(913,1474,l),
(715,1474,l),
(715,314,l),
(725,163,l),
(725,116,ls)
);
},
{
closed = 1;
nodes = (
(725,352,l),
(683,207,o),
(594,150,o),
(505,150,cs),
(376,150,o),
(285,270,o),
(285,517,cs),
(285,747,o),
(364,887,o),
(529,887,cs),
(592,887,o),
(665,866,o),
(726,802,c),
(726,989,l),
(707,989,l),
(649,1031,o),
(580,1059,o),
(490,1059,cs),
(255,1059,o),
(83,868,o),
(83,510,cs),
(83,160,o),
(248,-22,o),
(455,-22,cs),
(563,-22,o),
(657,27,o),
(717,134,c),
(738,134,l)
);
}
);
width = 1060;
},
{
layerId = "83D261EB-5180-4991-884D-E57EC90CAEFB";
shapes = (
{
closed = 1;
nodes = (
(951,77,o),
(961,0,o),
(1086,0,cs),
(1113,0,o),
(1141,0,o),
(1168,0,c),
(1168,1474,l),
(942,1474,l),
(942,323,l),
(951,159,l),
(951,120,ls)
);
},
{
closed = 1;
nodes = (
(955,369,l),
(893,227,o),
(766,172,o),
(647,172,cs),
(472,172,o),
(342,290,o),
(342,514,cs),
(342,724,o),
(457,865,o),
(681,865,cs),
(770,865,o),
(871,843,o),
(956,780,c),
(956,982,l),
(933,982,l),
(855,1028,o),
(762,1059,o),
(642,1059,cs),
(337,1059,o),
(112,858,o),
(112,508,cs),
(112,167,o),
(324,-22,o),
(598,-22,cs),
(739,-22,o),
(862,28,o),
(942,141,c),
(968,141,l)
);
}
);
width = 1363;
},
{
layerId = "DCA03E4F-A7C4-4A27-9237-642BF2693270";
shapes = (
{
closed = 1;
nodes = (
(948,32,o),
(952,0,o),
(1004,0,cs),
(1059,0,o),
(1114,0,o),
(1169,0,c),
(1169,1499,l),
(935,1499,l),
(935,346,l),
(948,170,l),
(948,50,ls)
);
},
{
closed = 1;
nodes = (
(948,401,l),
(887,228,o),
(771,180,o),
(657,180,cs),
(480,180,o),
(364,296,o),
(364,550,cs),
(364,783,o),
(462,927,o),
(694,927,cs),
(776,927,o),
(863,909,o),
(950,836,c),
(950,1056,l),
(926,1056,l),
(848,1106,o),
(771,1135,o),
(653,1135,cs),
(336,1135,o),
(125,928,o),
(125,541,cs),
(125,165,o),
(324,-30,o),
(603,-30,cs),
(754,-30,o),
(865,27,o),
(934,153,c),
(959,153,l)
);
}
);
width = 1371;
},
{
layerId = "5A3B0B44-0D2D-4186-9E39-19797E3BFD87";
shapes = (
{
closed = 1;
nodes = (
(791,22,o),
(846,-3,o),
(917,-3,cs),
(937,-3,o),
(961,-1,o),
(984,3,c),
(984,1514,l),
(782,1514,l),
(782,306,l),
(791,157,l),
(791,113,ls)
);
},
{
closed = 1;
nodes = (
(792,347,l),
(744,199,o),
(641,145,o),
(544,145,cs),
(401,145,o),
(297,264,o),
(297,497,cs),
(297,715,o),
(388,857,o),
(570,857,cs),
(643,857,o),
(725,834,o),
(794,768,c),
(794,949,l),
(776,949,l),
(711,996,o),
(633,1026,o),
(533,1026,cs),
(278,1026,o),
(90,833,o),
(90,490,cs),
(90,157,o),
(268,-25,o),
(494,-25,cs),
(613,-25,o),
(719,25,o),
(785,137,c),
(805,137,l)
);
}
);
width = 1142;
}
);
unicode = 100;
userData = {
com.typemytype.robofont.mark = (
0.656,
1,
0.6,
1
);
};
},
{
glyphname = e;
lastChange = "2017-11-16 23:22:27 +0000";
layers = (
{
layerId = "0FCA90BE-146C-409C-AA6F-2BDBAA20F869";
shapes = (
{
closed = 1;
nodes = (
(873,196,o),
(769,155,o),
(642,155,cs),
(433,155,o),
(316,266,o),
(316,522,cs),
(316,784,o),
(439,886,o),
(600,886,cs),
(755,886,o),
(844,790,o),
(849,629,c),
(255,629,l),
(255,461,l),
(1055,461,l),
(1059,496,o),
(1060,532,o),
(1060,557,cs),
(1060,911,o),
(870,1059,o),
(606,1059,cs),
(323,1059,o),
(100,890,o),
(100,517,cs),
(100,177,o),
(286,-22,o),
(621,-22,cs),
(809,-22,o),
(951,41,o),
(1043,121,c),
(955,258,l)
);
}
);
width = 1160;
},
{
layerId = "0C6ED426-E59F-42BE-A2AF-648DBA17C507";
shapes = (
{
closed = 1;
nodes = (
(850,97,o),
(732,50,o),
(600,50,cs),
(354,50,o),
(199,213,o),
(199,511,cs),
(199,781,o),
(327,980,o),
(576,980,cs),
(788,980,o),
(914,837,o),
(914,584,c),
(155,584,l),
(155,514,l),
(991,514,l),
(993,536,o),
(993,557,o),
(993,577,cs),
(993,905,o),
(820,1049,o),
(584,1049,cs),
(328,1049,o),
(120,879,o),
(120,508,cs),
(120,163,o),
(300,-22,o),
(592,-22,cs),
(763,-22,o),
(898,41,o),
(981,126,c),
(940,180,l)
);
}
);
width = 1108;
},
{
layerId = "27ACF26B-8C89-4195-A22E-C9A713B2D4DA";
shapes = (
{
closed = 1;
nodes = (
(924,291,o),
(823,260,o),
(710,260,cs),
(544,260,o),
(484,320,o),
(484,527,cs),
(484,758,o),
(558,800,o),
(642,800,cs),
(739,800,o),
(778,735,o),
(781,644,c),
(458,644,l),
(458,421,l),
(1161,421,l),
(1166,475,o),
(1167,533,o),
(1167,559,cs),
(1167,932,o),
(952,1079,o),
(658,1079,cs),
(336,1079,o),
(80,905,o),
(80,528,cs),
(80,181,o),
(297,-25,o),
(677,-25,cs),
(851,-25,o),
(1009,19,o),
(1145,101,c),
(1030,342,l)
);
}
);
width = 1247;
},
{
layerId = "758B6861-60C6-4092-9073-6CD691788EA2";
shapes = (
{
closed = 1;
nodes = (
(737,181,o),
(652,143,o),
(549,143,cs),
(375,143,o),
(279,253,o),
(279,518,cs),
(279,793,o),
(383,897,o),
(512,897,cs),
(634,897,o),
(709,804,o),
(714,624,c),
(225,624,l),
(225,468,l),
(901,468,l),
(904,501,o),
(905,535,o),
(905,563,cs),
(905,916,o),
(744,1059,o),
(517,1059,cs),
(275,1059,o),
(83,896,o),
(83,515,cs),
(83,175,o),
(236,-23,o),
(527,-23,cs),
(691,-23,o),
(811,40,o),
(890,121,c),
(805,243,l)
);
}
);
width = 988;
},
{
layerId = "83D261EB-5180-4991-884D-E57EC90CAEFB";
shapes = (
{
closed = 1;
nodes = (
(958,203,o),
(845,162,o),
(702,162,cs),
(469,162,o),
(335,270,o),
(335,522,cs),
(335,781,o),
(476,879,o),
(657,879,cs),
(837,879,o),
(935,782,o),
(941,630,c),
(267,630,l),
(267,458,l),
(1155,458,l),
(1160,495,o),
(1161,532,o),
(1161,557,cs),
(1161,911,o),
(953,1059,o),
(664,1059,cs),
(355,1059,o),
(112,890,o),
(112,517,cs),
(112,177,o),
(313,-22,o),
(686,-22,cs),
(891,-22,o),
(1042,38,o),
(1139,119,c),
(1047,264,l)
);
}
);
width = 1273;
},
{
layerId = "DCA03E4F-A7C4-4A27-9237-642BF2693270";
shapes = (
{
closed = 1;
nodes = (
(963,208,o),
(858,168,o),
(712,168,cs),
(479,168,o),
(357,275,o),
(357,556,cs),
(357,844,o),
(485,942,o),
(665,942,cs),
(840,942,o),
(933,846,o),
(940,663,c),
(296,663,l),
(296,480,l),
(1160,480,l),
(1165,519,o),
(1166,561,o),
(1166,589,cs),
(1166,978,o),
(967,1135,o),
(673,1135,cs),
(361,1135,o),
(125,962,o),
(125,551,cs),
(125,176,o),
(321,-30,o),
(691,-30,cs),
(899,-30,o),
(1049,33,o),
(1148,115,c),
(1053,270,l)
);
}
);
width = 1286;
},
{
layerId = "5A3B0B44-0D2D-4186-9E39-19797E3BFD87";
shapes = (
{
closed = 1;
nodes = (
(804,178,o),
(707,138,o),
(594,138,cs),
(401,138,o),
(290,254,o),
(290,501,cs),
(290,755,o),
(407,867,o),
(553,867,cs),
(689,867,o),
(777,769,o),
(781,606,c),
(234,606,l),
(234,451,l),
(972,451,l),
(976,484,o),
(977,518,o),
(977,543,cs),
(977,880,o),
(797,1026,o),
(557,1026,cs),
(298,1026,o),
(90,855,o),
(90,499,cs),
(90,171,o),
(266,-25,o),
(570,-25,cs),
(747,-25,o),
(877,41,o),
(961,118,c),
(880,240,l)
);
}
);
width = 1065;
}
);
unicode = 101;
userData = {
com.typemytype.robofont.mark = (
0.656,
1,
0.6,
1
);
};
},
{
glyphname = f;
lastChange = "2017-11-16 23:22:27 +0000";
layers = (
{
layerId = "0FCA90BE-146C-409C-AA6F-2BDBAA20F869";
shapes = (
{
closed = 1;
nodes = (
(405,0,l),
(405,1121,ls),
(405,1260,o),
(482,1308,o),
(579,1308,cs),
(619,1308,o),
(666,1300,o),
(711,1282,c),
(767,1449,l),
(694,1479,o),
(617,1492,o),
(549,1492,cs),
(341,1492,o),
(190,1378,o),
(190,1118,cs),
(190,0,l)
);
},
{
closed = 1;
nodes = (
(667,842,l),
(667,1018,l),
(57,1018,l),
(57,842,l)
);
}
);
width = 668;
},
{
layerId = "0C6ED426-E59F-42BE-A2AF-648DBA17C507";
shapes = (
{
closed = 1;
nodes = (
(285,0,l),
(285,1205,ls),
(285,1369,o),
(365,1420,o),
(472,1420,cs),
(517,1420,o),
(571,1411,o),
(627,1384,c),
(653,1446,l),
(591,1477,o),
(527,1489,o),
(469,1489,cs),
(314,1489,o),
(210,1404,o),
(210,1202,cs),
(210,0,l)
);
},
{
closed = 1;
nodes = (
(546,947,l),
(546,1017,l),
(80,1017,l),
(80,947,l)
);
}
);
width = 546;
},
{
layerId = "27ACF26B-8C89-4195-A22E-C9A713B2D4DA";
shapes = (
{
closed = 1;
nodes = (
(587,0,l),
(587,1053,ls),
(587,1155,o),
(659,1188,o),
(745,1188,cs),
(778,1188,o),
(814,1184,o),
(850,1177,c),
(933,1470,l),
(827,1504,o),
(727,1511,o),
(660,1511,cs),
(351,1511,o),
(161,1364,o),
(161,1047,cs),
(161,0,l)
);
},
{
closed = 1;
nodes = (
(841,719,l),
(841,1021,l),
(20,1021,l),
(20,719,l)
);
}
);
width = 846;
},
{
layerId = "758B6861-60C6-4092-9073-6CD691788EA2";
shapes = (
{
closed = 1;
nodes = (
(357,0,l),
(357,1142,ls),
(357,1275,o),
(421,1320,o),
(501,1320,cs),
(532,1320,o),
(569,1313,o),
(603,1297,c),
(662,1449,l),
(599,1479,o),
(534,1492,o),
(472,1492,cs),
(294,1492,o),
(160,1385,o),
(160,1138,cs),
(160,0,l)
);
},
{
closed = 1;
nodes = (
(578,855,l),
(578,1020,l),
(47,1020,l),
(47,855,l)
);
}
);
width = 579;
},
{
layerId = "83D261EB-5180-4991-884D-E57EC90CAEFB";
shapes = (
{
closed = 1;
nodes = (
(432,0,l),
(432,1115,ls),
(432,1252,o),
(518,1299,o),
(626,1299,cs),
(670,1299,o),
(723,1292,o),
(773,1274,c),
(829,1449,l),
(751,1480,o),
(671,1492,o),
(596,1492,cs),
(374,1492,o),
(210,1376,o),
(210,1112,cs),
(210,0,l)
);
},
{
closed = 1;
nodes = (
(722,835,l),
(722,1018,l),
(64,1018,l),
(64,835,l)
);
}
);
width = 722;
},
{
layerId = "DCA03E4F-A7C4-4A27-9237-642BF2693270";
shapes = (
{
closed = 1;
nodes = (
(445,0,l),
(445,1114,ls),
(445,1270,o),
(523,1311,o),
(629,1311,cs),
(677,1311,o),
(724,1303,o),
(771,1287,c),
(830,1474,l),
(753,1504,o),
(673,1515,o),
(601,1515,cs),
(372,1515,o),
(215,1402,o),
(215,1110,cs),
(215,0,l)
);
},
{
closed = 1;
nodes = (
(729,884,l),
(729,1080,l),
(72,1080,l),
(72,884,l)
);
}
);
width = 748;
},
{
layerId = "5A3B0B44-0D2D-4186-9E39-19797E3BFD87";
shapes = (
{
closed = 1;
nodes = (
(371,0,l),
(371,1181,ls),
(371,1315,o),
(446,1365,o),
(531,1365,cs),
(569,1365,o),
(609,1355,o),
(651,1337,c),
(703,1488,l),
(635,1518,o),
(568,1532,o),
(501,1532,cs),
(316,1532,o),
(172,1418,o),
(172,1176,cs),
(172,0,l)
);
},
{
closed = 1;
nodes = (
(610,839,l),
(610,1001,l),
(48,1001,l),
(48,839,l)
);
}
);
width = 610;
}
);
unicode = 102;
userData = {
com.typemytype.robofont.mark = (
1,
0.826,
0.6,
1
);
};
},
{
glyphname = g;
lastChange = "2017-11-16 23:22:27 +0000";
layers = (
{
layerId = "0FCA90BE-146C-409C-AA6F-2BDBAA20F869";
shapes = (
{
closed = 1;
nodes = (
(861,994,o),
(725,1059,o),
(547,1059,cs),
(305,1059,o),
(114,939,o),
(114,692,cs),
(114,454,o),
(291,329,o),
(533,329,cs),
(785,329,o),
(973,463,o),
(973,684,cs),
(973,753,o),
(954,805,o),
(926,853,c),
(928,876,l)
);
},
{
closed = 1;
nodes = (
(415,479,o),
(332,551,o),
(332,694,cs),
(332,837,o),
(415,907,o),
(543,907,cs),
(672,907,o),
(755,837,o),
(755,694,cs),
(755,551,o),
(672,479,o),
(543,479,cs)
);
},
{
closed = 1;
nodes = (
(368,194,o),
(337,221,o),
(337,259,cs),
(337,303,o),
(380,357,o),
(443,387,c),
(291,393,l),
(291,377,l),
(181,329,o),
(137,261,o),
(137,190,cs),
(137,40,o),
(333,6,o),
(423,6,cs),
(633,6,ls),
(773,6,o),
(848,-30,o),
(848,-123,cs),
(848,-234,o),
(744,-294,o),
(556,-294,cs),
(362,-294,o),
(272,-230,o),
(272,-141,cs),
(272,-77,o),
(315,-29,o),
(385,16,c),
(246,57,l),
(246,35,l),
(124,-20,o),
(70,-104,o),
(70,-180,cs),
(70,-274,o),
(151,-448,o),
(535,-448,cs),
(880,-448,o),
(1059,-307,o),
(1059,-98,cs),
(1059,79,o),
(929,194,o),
(665,194,cs),
(445,194,ls)
);
},
{
closed = 1;
nodes = (
(935,865,o),
(993,870,o),
(1051,870,cs),
(1076,870,o),
(1103,869,o),
(1129,867,c),
(1129,1030,l),
(1109,1033,o),
(1089,1034,o),
(1073,1034,cs),
(960,1034,o),
(872,986,o),
(858,872,c),
(879,849,l)
);
}
);
width = 1129;
},
{
layerId = "0C6ED426-E59F-42BE-A2AF-648DBA17C507";
shapes = (
{
closed = 1;
nodes = (
(762,998,o),
(654,1049,o),
(520,1049,cs),
(321,1049,o),
(145,938,o),
(145,713,cs),
(145,503,o),
(297,373,o),
(513,373,cs),
(724,373,o),
(887,497,o),
(887,708,cs),
(887,786,o),
(865,856,o),
(825,910,c),
(825,918,l)
);
},
{
closed = 1;
nodes = (
(345,444,o),
(224,534,o),
(224,713,cs),
(224,892,o),
(346,980,o),
(514,980,cs),
(684,980,o),
(808,890,o),
(808,711,cs),
(808,535,o),
(688,444,o),
(517,444,cs)
);
},
{
closed = 1;
nodes = (
(266,139,o),
(239,180,o),
(239,227,cs),
(239,292,o),
(292,364,o),
(360,406,c),
(287,445,l),
(287,430,l),
(209,370,o),
(160,297,o),
(160,224,cs),
(160,135,o),
(229,69,o),
(333,69,cs),
(624,69,ls),
(808,69,o),
(915,12,o),
(915,-127,cs),
(915,-285,o),
(777,-374,o),
(534,-374,cs),
(274,-374,o),
(169,-272,o),
(169,-150,cs),
(169,-64,o),
(220,22,o),
(294,80,c),
(222,121,l),
(222,99,l),
(139,31,o),
(90,-58,o),
(90,-152,cs),
(90,-275,o),
(175,-445,o),
(525,-445,cs),
(834,-445,o),
(994,-313,o),
(994,-124,cs),
(994,38,o),
(875,139,o),
(638,139,cs),
(355,139,ls)
);
},
{
closed = 1;
nodes = (
(852,943,o),
(925,956,o),
(994,956,cs),
(1013,956,o),
(1036,955,o),
(1055,953,c),
(1055,1027,l),
(1036,1030,o),
(1014,1031,o),
(998,1031,cs),
(899,1031,o),
(820,995,o),
(784,910,c),
(803,894,l)
);
}
);
width = 1078;
},
{
layerId = "27ACF26B-8C89-4195-A22E-C9A713B2D4DA";
shapes = (
{
closed = 1;
nodes = (
(974,1000,o),
(797,1079,o),
(580,1079,cs),
(307,1079,o),
(91,953,o),
(91,695,cs),
(91,447,o),
(291,316,o),
(565,316,cs),
(849,316,o),
(1063,457,o),
(1063,685,cs),
(1063,734,o),
(1053,769,o),
(1039,802,c),
(1041,825,l)
);
},
{
closed = 1;
nodes = (
(516,553,o),
(474,600,o),
(474,691,cs),
(474,784,o),
(516,830,o),
(577,830,cs),
(638,830,o),
(680,784,o),
(680,691,cs),
(680,600,o),
(638,553,o),
(577,553,cs)
);
},
{
closed = 1;
nodes = (
(436,230,o),
(409,254,o),
(409,292,cs),
(409,315,o),
(420,341,o),
(439,365,c),
(273,392,l),
(273,373,l),
(171,324,o),
(112,252,o),
(112,157,cs),
(112,-23,o),
(323,-58,o),
(494,-58,cs),
(669,-58,ls),
(735,-58,o),
(772,-78,o),
(772,-118,cs),
(772,-173,o),
(706,-205,o),
(573,-205,cs),
(430,-205,o),
(377,-168,o),
(377,-117,cs),
(377,-86,o),
(397,-58,o),
(432,-34,c),
(210,3,l),
(210,-17,l),
(101,-69,o),
(55,-141,o),
(55,-212,cs),
(55,-308,o),
(140,-462,o),
(542,-462,cs),
(950,-462,o),
(1142,-303,o),
(1142,-82,cs),
(1142,125,o),
(972,230,o),
(702,230,cs),
(518,230,ls)
);
},
{
closed = 1;
nodes = (
(978,807,o),
(1043,815,o),
(1114,815,cs),
(1150,815,o),
(1182,814,o),
(1216,811,c),
(1216,1049,l),
(1195,1051,o),
(1174,1052,o),
(1157,1052,cs),
(1019,1052,o),
(921,987,o),
(904,818,c),
(905,785,l)
);
}
);
width = 1201;
},
{
layerId = "758B6861-60C6-4092-9073-6CD691788EA2";
shapes = (
{
closed = 1;
nodes = (
(736,993,o),
(620,1059,o),
(464,1059,cs),
(258,1059,o),
(95,945,o),
(95,698,cs),
(95,452,o),
(255,336,o),
(458,336,cs),
(672,336,o),
(830,465,o),
(830,687,cs),
(830,758,o),
(814,812,o),
(791,861,c),
(793,879,l)
);
},
{
closed = 1;
nodes = (
(358,477,o),
(293,550,o),
(293,700,cs),
(293,849,o),
(358,916,o),
(462,916,cs),
(566,916,o),
(632,850,o),
(632,698,cs),
(632,546,o),
(566,477,o),
(463,477,cs)
);
},
{
closed = 1;
nodes = (
(322,191,o),
(295,217,o),
(295,259,cs),
(295,307,o),
(332,360,o),
(384,392,c),
(247,402,l),
(247,386,l),
(152,336,o),
(115,269,o),
(115,201,cs),
(115,50,o),
(291,16,o),
(366,16,cs),
(538,16,ls),
(653,16,o),
(719,-16,o),
(719,-120,cs),
(719,-241,o),
(627,-298,o),
(475,-298,cs),
(316,-298,o),
(240,-236,o),
(240,-138,cs),
(240,-69,o),
(277,-20,o),
(336,26,c),
(212,67,l),
(212,45,l),
(105,-11,o),
(59,-92,o),
(59,-175,cs),
(59,-276,o),
(127,-444,o),
(456,-444,cs),
(751,-444,o),
(907,-309,o),
(907,-98,cs),
(907,84,o),
(791,191,o),
(565,191,cs),
(386,191,l)
);
},
{
closed = 1;
nodes = (
(801,874,o),
(849,880,o),
(899,880,cs),
(919,880,o),
(942,879,o),
(965,877,c),
(965,1031,l),
(948,1034,o),
(931,1035,o),
(917,1035,cs),
(820,1035,o),
(745,988,o),
(735,877,c),
(753,855,l)
);
}
);
width = 963;
},
{
layerId = "83D261EB-5180-4991-884D-E57EC90CAEFB";
shapes = (
{
closed = 1;
nodes = (
(945,987,o),
(798,1059,o),
(598,1059,cs),
(339,1059,o),
(127,939,o),
(127,692,cs),
(127,449,o),
(331,327,o),
(591,327,cs),
(871,327,o),
(1065,467,o),
(1065,685,cs),
(1065,751,o),
(1047,800,o),
(1015,846,c),
(1017,869,l)
);
},
{
closed = 1;
nodes = (
(450,483,o),
(356,553,o),
(356,693,cs),
(356,832,o),
(450,901,o),
(596,901,cs),
(742,901,o),
(837,832,o),
(837,693,cs),
(837,553,o),
(742,483,o),
(596,483,cs)
);
},
{
closed = 1;
nodes = (
(401,196,o),
(366,223,o),
(366,260,cs),
(366,303,o),
(416,355,o),
(488,384,c),
(322,392,l),
(322,376,l),
(200,328,o),
(153,259,o),
(153,189,cs),
(153,36,o),
(367,2,o),
(462,2,cs),
(698,2,ls),
(857,2,o),
(943,-33,o),
(943,-123,cs),
(943,-230,o),
(825,-288,o),
(613,-288,cs),
(394,-288,o),
(293,-226,o),
(293,-139,cs),
(293,-78,o),
(342,-31,o),
(421,13,c),
(274,53,l),
(274,31,l),
(127,-25,o),
(78,-106,o),
(78,-178,cs),
(78,-276,o),
(168,-451,o),
(588,-451,cs),
(969,-451,o),
(1163,-307,o),
(1163,-97,cs),
(1163,82,o),
(1023,196,o),
(732,196,cs),
(485,196,l)
);
},
{
closed = 1;
nodes = (
(1027,860,o),
(1090,865,o),
(1152,865,cs),
(1180,865,o),
(1210,864,o),
(1238,862,c),
(1238,1032,l),
(1216,1035,o),
(1193,1036,o),
(1176,1036,cs),
(1053,1036,o),
(957,986,o),
(942,868,c),
(966,844,l)
);
}
);
width = 1238;
},
{
layerId = "DCA03E4F-A7C4-4A27-9237-642BF2693270";
shapes = (
{
closed = 1;
nodes = (
(944,1065,o),
(797,1135,o),
(604,1135,cs),
(343,1135,o),
(135,1008,o),
(135,746,cs),
(135,492,o),
(332,361,o),
(594,361,cs),
(869,361,o),
(1068,506,o),
(1068,734,cs),
(1068,811,o),
(1046,864,o),
(1015,906,c),
(1018,936,l)
);
},
{
closed = 1;
nodes = (
(461,528,o),
(367,601,o),
(367,748,cs),
(367,895,o),
(461,966,o),
(602,966,cs),
(743,966,o),
(837,895,o),
(837,748,cs),
(837,601,o),
(743,528,o),
(602,528,cs)
);
},
{
closed = 1;
nodes = (
(404,224,o),
(370,254,o),
(370,293,cs),
(370,337,o),
(418,387,o),
(498,419,c),
(325,431,l),
(325,408,l),
(202,366,o),
(157,294,o),
(157,220,cs),
(157,59,o),
(372,24,o),
(469,24,cs),
(709,24,ls),
(877,24,o),
(949,-12,o),
(949,-112,cs),
(949,-228,o),
(839,-289,o),
(616,-289,cs),
(385,-289,o),
(300,-225,o),
(300,-131,cs),
(300,-67,o),
(343,-11,o),
(429,34,c),
(272,79,l),
(272,50,l),
(123,-1,o),
(82,-97,o),
(82,-172,cs),
(82,-274,o),
(153,-462,o),
(590,-462,cs),
(986,-462,o),
(1172,-310,o),
(1172,-87,cs),
(1172,103,o),
(1035,224,o),
(739,224,cs),
(488,224,ls)
);
},
{
closed = 1;
nodes = (
(1040,923,o),
(1099,928,o),
(1160,928,cs),
(1187,928,o),
(1214,927,o),
(1242,925,c),
(1242,1108,l),
(1220,1111,o),
(1197,1113,o),
(1174,1113,cs),
(1065,1113,o),
(967,1069,o),
(960,935,c),
(983,909,l)
);
}
);
width = 1262;
},
{
layerId = "5A3B0B44-0D2D-4186-9E39-19797E3BFD87";
shapes = (
{
closed = 1;
nodes = (
(790,961,o),
(663,1026,o),
(501,1026,cs),
(283,1026,o),
(105,907,o),
(105,671,cs),
(105,442,o),
(274,319,o),
(493,319,cs),
(722,319,o),
(894,453,o),
(894,665,cs),
(894,733,o),
(876,786,o),
(851,834,c),
(852,849,l)
);
},
{
closed = 1;
nodes = (
(386,460,o),
(307,534,o),
(307,673,cs),
(307,811,o),
(385,884,o),
(501,884,cs),
(616,884,o),
(692,813,o),
(692,674,cs),
(692,533,o),
(613,460,o),
(500,460,cs)
);
},
{
closed = 1;
nodes = (
(343,175,o),
(316,204,o),
(316,242,cs),
(316,286,o),
(354,336,o),
(412,368,c),
(276,378,l),
(276,362,l),
(187,321,o),
(137,257,o),
(137,180,cs),
(137,34,o),
(320,0,o),
(398,0,cs),
(584,0,ls),
(713,0,o),
(783,-39,o),
(783,-136,cs),
(783,-251,o),
(682,-314,o),
(509,-314,cs),
(328,-314,o),
(246,-245,o),
(246,-152,cs),
(246,-87,o),
(287,-37,o),
(352,10,c),
(231,50,l),
(231,30,l),
(112,-25,o),
(61,-116,o),
(61,-191,cs),
(61,-286,o),
(143,-459,o),
(490,-459,cs),
(807,-459,o),
(975,-315,o),
(975,-113,cs),
(975,58,o),
(854,175,o),
(610,175,cs),
(413,175,ls)
);
},
{
closed = 1;
nodes = (
(864,847,o),
(917,853,o),
(971,853,cs),
(994,853,o),
(1019,852,o),
(1043,850,c),
(1043,1001,l),
(1024,1005,o),
(1006,1006,o),
(991,1006,cs),
(887,1006,o),
(806,959,o),
(793,851,c),
(812,829,l)
);
}
);
width = 1038;
}
);
unicode = 103;
userData = {
com.typemytype.robofont.guides = (
{
angle = 0;
isGlobal = 0;
magnetic = 5;
x = 0;
y = 2048;
},
{
angle = 90;
isGlobal = 0;
magnetic = 5;
x = 118;
y = 0;
}
);
com.typemytype.robofont.mark = (
1,
0.826,
0.6,
1
);
};
},
{
glyphname = h;
lastChange = "2017-11-16 23:22:27 +0000";
layers = (
{
layerId = "0FCA90BE-146C-409C-AA6F-2BDBAA20F869";
shapes = (
{
closed = 1;
nodes = (
(393,0,l),
(393,1474,l),
(175,1474,l),
(175,0,l)
);
},
{
closed = 1;
nodes = (
(452,803,o),
(559,872,o),
(683,872,cs),
(822,872,o),
(866,790,o),
(866,656,cs),
(866,0,l),
(1084,0,l),
(1084,681,ls),
(1084,940,o),
(965,1059,o),
(746,1059,cs),
(601,1059,o),
(484,1006,o),
(402,892,c),
(385,892,l),
(385,663,l)
);
}
);
width = 1249;
},
{
layerId = "0C6ED426-E59F-42BE-A2AF-648DBA17C507";
shapes = (
{
closed = 1;
nodes = (
(281,0,l),
(281,1474,l),
(205,1474,l),
(205,0,l)
);
},
{
closed = 1;
nodes = (
(367,893,o),
(500,978,o),
(668,978,cs),
(869,978,o),
(918,857,o),
(918,685,cs),
(918,0,l),
(994,0,l),
(994,707,ls),
(994,937,o),
(881,1049,o),
(674,1049,cs),
(515,1049,o),
(389,982,o),
(285,850,c),
(263,850,l),
(272,723,l)
);
}
);
width = 1189;
},
{
layerId = "27ACF26B-8C89-4195-A22E-C9A713B2D4DA";
shapes = (
{
closed = 1;
nodes = (
(573,0,l),
(573,1484,l),
(140,1484,l),
(140,0,l)
);
},
{
closed = 1;
nodes = (
(594,698,o),
(655,737,o),
(716,737,cs),
(763,737,o),
(795,715,o),
(795,637,cs),
(795,0,l),
(1228,0,l),
(1228,689,ls),
(1228,979,o),
(1078,1079,o),
(877,1079,cs),
(778,1079,o),
(656,1055,o),
(583,956,c),
(558,956,l),
(568,635,l)
);
}
);
width = 1358;
},
{
layerId = "758B6861-60C6-4092-9073-6CD691788EA2";
shapes = (
{
closed = 1;
nodes = (
(345,0,l),
(345,1474,l),
(147,1474,l),
(147,0,l)
);
},
{
closed = 1;
nodes = (
(392,817,o),
(480,884,o),
(582,884,cs),
(694,884,o),
(731,802,o),
(731,670,cs),
(731,0,l),
(929,0,l),
(929,694,ls),
(929,944,o),
(826,1059,o),
(642,1059,cs),
(518,1059,o),
(420,1007,o),
(353,896,c),
(339,896,l),
(338,678,l)
);
}
);
width = 1066;
},
{
layerId = "83D261EB-5180-4991-884D-E57EC90CAEFB";
shapes = (
{
closed = 1;
nodes = (
(421,0,l),
(421,1474,l),
(195,1474,l),
(195,0,l)
);
},
{
closed = 1;
nodes = (
(488,795,o),
(609,862,o),
(750,862,cs),
(910,862,o),
(959,784,o),
(959,654,cs),
(959,0,l),
(1185,0,l),
(1185,681,ls),
(1185,942,o),
(1056,1059,o),
(813,1059,cs),
(650,1059,o),
(522,1007,o),
(431,894,c),
(412,894,l),
(412,660,l)
);
}
);
width = 1369;
},
{
layerId = "DCA03E4F-A7C4-4A27-9237-642BF2693270";
shapes = (
{
closed = 1;
nodes = (
(436,0,l),
(436,1499,l),
(202,1499,l),
(202,0,l)
);
},
{
closed = 1;
nodes = (
(502,857,o),
(610,923,o),
(752,923,cs),
(907,923,o),
(949,845,o),
(949,701,cs),
(949,0,l),
(1183,0,l),
(1183,730,ls),
(1183,1017,o),
(1060,1135,o),
(815,1135,cs),
(654,1135,o),
(529,1084,o),
(450,950,c),
(427,950,l),
(427,698,l)
);
}
);
width = 1375;
},
{
layerId = "5A3B0B44-0D2D-4186-9E39-19797E3BFD87";
shapes = (
{
closed = 1;
nodes = (
(360,0,l),
(360,1514,l),
(158,1514,l),
(158,0,l)
);
},
{
closed = 1;
nodes = (
(415,786,o),
(514,854,o),
(627,854,cs),
(752,854,o),
(796,770,o),
(796,639,cs),
(796,0,l),
(998,0,l),
(998,663,ls),
(998,909,o),
(885,1026,o),
(685,1026,cs),
(552,1026,o),
(441,974,o),
(366,857,c),
(353,857,l),
(353,648,l)
);
}
);
width = 1146;
}
);
unicode = 104;
userData = {
com.typemytype.robofont.mark = (
0.656,
1,
0.6,
1
);
};
},
{
glyphname = i;
lastChange = "2017-11-16 23:22:27 +0000";
layers = (
{
layerId = "0FCA90BE-146C-409C-AA6F-2BDBAA20F869";
shapes = (
{
closed = 1;
nodes = (
(393,0,l),
(393,1032,l),
(175,1032,l),
(175,0,l)
);
},
{
closed = 1;
nodes = (
(358,1193,o),
(416,1236,o),
(416,1321,cs),
(416,1402,o),
(364,1445,o),
(285,1445,cs),
(208,1445,o),
(152,1403,o),
(152,1320,cs),
(152,1237,o),
(204,1193,o),
(282,1193,cs)
);
}
);
width = 568;
},
{
layerId = "0C6ED426-E59F-42BE-A2AF-648DBA17C507";
shapes = (
{
closed = 1;
nodes = (
(281,0,l),
(281,1027,l),
(205,1027,l),
(205,0,l)
);
},
{
closed = 1;
nodes = (
(280,1252,o),
(305,1274,o),
(305,1317,cs),
(305,1360,o),
(280,1382,o),
(244,1382,cs),
(207,1382,o),
(183,1360,o),
(183,1317,cs),
(183,1274,o),
(207,1252,o),
(244,1252,cs)
);
}
);
width = 486;
},
{
layerId = "27ACF26B-8C89-4195-A22E-C9A713B2D4DA";
shapes = (
{
closed = 1;
nodes = (
(573,0,l),
(573,1034,l),
(140,1034,l),
(140,0,l)
);
},
{
closed = 1;
nodes = (
(483,1110,o),
(588,1178,o),
(588,1326,cs),
(588,1467,o),
(492,1536,o),
(360,1536,cs),
(229,1536,o),
(125,1469,o),
(125,1322,cs),
(125,1181,o),
(221,1110,o),
(353,1110,cs)
);
}
);
width = 713;
},
{
layerId = "758B6861-60C6-4092-9073-6CD691788EA2";
shapes = (
{
closed = 1;
nodes = (
(345,0,l),
(345,1032,l),
(147,1032,l),
(147,0,l)
);
},
{
closed = 1;
nodes = (
(312,1199,o),
(364,1240,o),
(364,1320,cs),
(364,1397,o),
(317,1438,o),
(246,1438,cs),
(177,1438,o),
(127,1398,o),
(127,1319,cs),
(127,1241,o),
(174,1199,o),
(244,1199,cs)
);
}
);
width = 492;
},
{
layerId = "83D261EB-5180-4991-884D-E57EC90CAEFB";
shapes = (
{
closed = 1;
nodes = (
(421,0,l),
(421,1032,l),
(195,1032,l),
(195,0,l)
);
},
{
closed = 1;
nodes = (
(384,1188,o),
(444,1233,o),
(444,1321,cs),
(444,1404,o),
(391,1449,o),
(309,1449,cs),
(230,1449,o),
(172,1405,o),
(172,1320,cs),
(172,1234,o),
(226,1188,o),
(307,1188,cs)
);
}
);
width = 616;
},
{
layerId = "DCA03E4F-A7C4-4A27-9237-642BF2693270";
shapes = (
{
closed = 1;
nodes = (
(436,0,l),
(436,1095,l),
(202,1095,l),
(202,0,l)
);
},
{
closed = 1;
nodes = (
(400,1242,o),
(462,1290,o),
(462,1386,cs),
(462,1477,o),
(406,1526,o),
(321,1526,cs),
(237,1526,o),
(177,1479,o),
(177,1384,cs),
(177,1292,o),
(233,1242,o),
(318,1242,cs)
);
}
);
width = 638;
},
{
layerId = "5A3B0B44-0D2D-4186-9E39-19797E3BFD87";
shapes = (
{
closed = 1;
nodes = (
(360,0,l),
(360,1001,l),
(158,1001,l),
(158,0,l)
);
},
{
closed = 1;
nodes = (
(327,1206,o),
(380,1247,o),
(380,1327,cs),
(380,1403,o),
(333,1444,o),
(260,1444,cs),
(188,1444,o),
(138,1405,o),
(138,1326,cs),
(138,1248,o),
(186,1206,o),
(257,1206,cs)
);
}
);
width = 518;
}
);
unicode = 105;
userData = {
com.typemytype.robofont.mark = (
0.656,
1,
0.6,
1
);
};
},
{
glyphname = j;
lastChange = "2017-11-16 23:22:27 +0000";
layers = (
{
layerId = "0FCA90BE-146C-409C-AA6F-2BDBAA20F869";
shapes = (
{
closed = 1;
nodes = (
(175,-145,o),
(146,-215,o),
(-33,-282,c),
(23,-448,l),
(208,-384,o),
(324,-312,o),
(370,-158,cs),
(385,-107,o),
(393,-46,o),
(393,26,cs),
(393,1032,l),
(175,1032,l),
(175,25,ls)
);
},
{
closed = 1;
nodes = (
(359,1194,o),
(417,1237,o),
(417,1322,cs),
(417,1403,o),
(365,1447,o),
(286,1447,cs),
(208,1447,o),
(152,1405,o),
(152,1321,cs),
(152,1239,o),
(204,1194,o),
(283,1194,cs)
);
}
);
width = 568;
},
{
layerId = "0C6ED426-E59F-42BE-A2AF-648DBA17C507";
shapes = (
{
closed = 1;
nodes = (
(205,-221,o),
(186,-308,o),
(8,-382,c),
(36,-445,l),
(179,-382,o),
(281,-318,o),
(281,-85,cs),
(281,-32,o),
(281,21,o),
(281,74,cs),
(281,1027,l),
(205,1027,l),
(205,-79,ls)
);
},
{
closed = 1;
nodes = (
(280,1252,o),
(305,1274,o),
(305,1317,cs),
(305,1360,o),
(280,1382,o),
(244,1382,cs),
(207,1382,o),
(183,1360,o),
(183,1317,cs),
(183,1274,o),
(207,1252,o),
(244,1252,cs)
);
}
);
width = 486;
},
{
layerId = "27ACF26B-8C89-4195-A22E-C9A713B2D4DA";
shapes = (
{
closed = 1;
nodes = (
(140,-58,o),
(101,-99,o),
(-79,-149,c),
(12,-449,l),
(316,-370,o),
(479,-272,o),
(541,-87,cs),
(562,-25,o),
(571,45,o),
(571,129,cs),
(571,1034,l),
(140,1034,l),
(140,119,ls)
);
},
{
closed = 1;
nodes = (
(482,1110,o),
(587,1178,o),
(587,1326,cs),
(587,1467,o),
(491,1536,o),
(359,1536,cs),
(228,1536,o),
(124,1469,o),
(124,1322,cs),
(124,1181,o),
(220,1110,o),
(352,1110,cs)
);
}
);
width = 711;
},
{
layerId = "758B6861-60C6-4092-9073-6CD691788EA2";
shapes = (
{
closed = 1;
nodes = (
(147,-153,o),
(118,-226,o),
(-34,-294,c),
(27,-444,l),
(183,-381,o),
(280,-311,o),
(323,-150,cs),
(337,-99,o),
(344,-38,o),
(344,32,cs),
(344,1032,l),
(147,1032,l),
(147,15,ls)
);
},
{
closed = 1;
nodes = (
(311,1199,o),
(363,1240,o),
(363,1320,cs),
(363,1397,o),
(316,1438,o),
(245,1438,cs),
(177,1438,o),
(127,1398,o),
(127,1319,cs),
(127,1241,o),
(174,1199,o),
(244,1199,cs)
);
}
);
width = 491;
},
{
layerId = "83D261EB-5180-4991-884D-E57EC90CAEFB";
shapes = (
{
closed = 1;
nodes = (
(195,-139,o),
(162,-204,o),
(-35,-270,c),
(28,-448,l),
(224,-383,o),
(344,-309,o),
(394,-153,cs),
(410,-101,o),
(419,-40,o),
(419,33,cs),
(419,1032,l),
(195,1032,l),
(195,32,ls)
);
},
{
closed = 1;
nodes = (
(384,1188,o),
(444,1233,o),
(444,1321,cs),
(444,1404,o),
(391,1449,o),
(309,1449,cs),
(230,1449,o),
(172,1405,o),
(172,1320,cs),
(172,1234,o),
(226,1188,o),
(307,1188,cs)
);
}
);
width = 614;
},
{
layerId = "DCA03E4F-A7C4-4A27-9237-642BF2693270";
shapes = (
{
closed = 1;
nodes = (
(202,-127,o),
(171,-200,o),
(-7,-267,c),
(54,-462,l),
(243,-394,o),
(361,-314,o),
(409,-151,cs),
(425,-96,o),
(434,-30,o),
(434,48,cs),
(434,1095,l),
(202,1095,l),
(202,46,ls)
);
},
{
closed = 1;
nodes = (
(399,1242,o),
(461,1290,o),
(461,1386,cs),
(461,1477,o),
(405,1526,o),
(320,1526,cs),
(236,1526,o),
(176,1479,o),
(176,1384,cs),
(176,1292,o),
(232,1242,o),
(317,1242,cs)
);
}
);
width = 636;
},
{
layerId = "5A3B0B44-0D2D-4186-9E39-19797E3BFD87";
shapes = (
{
closed = 1;
nodes = (
(158,-171,o),
(136,-237,o),
(-42,-307,c),
(17,-459,l),
(188,-397,o),
(299,-329,o),
(342,-174,cs),
(356,-124,o),
(360,-63,o),
(360,12,cs),
(360,1001,l),
(158,1001,l),
(158,2,ls)
);
},
{
closed = 1;
nodes = (
(327,1206,o),
(380,1247,o),
(380,1327,cs),
(380,1403,o),
(333,1444,o),
(260,1444,cs),
(188,1444,o),
(138,1405,o),
(138,1326,cs),
(138,1248,o),
(186,1206,o),
(257,1206,cs)
);
}
);
width = 518;
}
);
unicode = 106;
userData = {
com.typemytype.robofont.mark = (
0.656,
1,
0.6,
1
);
};
},
{
glyphname = k;
lastChange = "2017-11-16 23:22:27 +0000";
layers = (
{
layerId = "0FCA90BE-146C-409C-AA6F-2BDBAA20F869";
shapes = (
{
closed = 1;
nodes = (
(393,0,l),
(393,1474,l),
(175,1474,l),
(175,0,l)
);
},
{
closed = 1;
nodes = (
(405,555,l),
(860,0,l),
(1137,0,l),
(618,610,l)
);
},
{
closed = 1;
nodes = (
(618,524,l),
(1089,1032,l),
(827,1032,l),
(405,555,l)
);
}
);
width = 1137;
},
{
layerId = "0C6ED426-E59F-42BE-A2AF-648DBA17C507";
shapes = (
{
closed = 1;
nodes = (
(281,0,l),
(281,1474,l),
(205,1474,l),
(205,0,l)
);
},
{
closed = 1;
nodes = (
(311,551,l),
(875,0,l),
(992,0,l),
(393,578,l)
);
},
{
closed = 1;
nodes = (
(371,508,l),
(939,1027,l),
(827,1027,l),
(311,551,l)
);
}
);
width = 1002;
},
{
layerId = "27ACF26B-8C89-4195-A22E-C9A713B2D4DA";
shapes = (
{
closed = 1;
nodes = (
(573,0,l),
(573,1484,l),
(140,1484,l),
(140,0,l)
);
},
{
closed = 1;
nodes = (
(578,555,l),
(872,0,l),
(1361,0,l),
(996,647,l)
);
},
{
closed = 1;
nodes = (
(1022,540,l),
(1331,1044,l),
(865,1044,l),
(578,555,l)
);
}
);
width = 1361;
},
{
layerId = "758B6861-60C6-4092-9073-6CD691788EA2";
shapes = (
{
closed = 1;
nodes = (
(345,0,l),
(345,1474,l),
(147,1474,l),
(147,0,l)
);
},
{
closed = 1;
nodes = (
(353,555,l),
(730,0,l),
(975,0,l),
(544,607,l)
);
},
{
closed = 1;
nodes = (
(543,522,l),
(931,1032,l),
(700,1032,l),
(353,555,l)
);
}
);
width = 974;
},
{
layerId = "83D261EB-5180-4991-884D-E57EC90CAEFB";
shapes = (
{
closed = 1;
nodes = (
(421,0,l),
(421,1474,l),
(195,1474,l),
(195,0,l)
);
},
{
closed = 1;
nodes = (
(431,555,l),
(943,0,l),
(1243,0,l),
(664,613,l)
);
},
{
closed = 1;
nodes = (
(663,521,l),
(1189,1032,l),
(905,1032,l),
(431,555,l)
);
}
);
width = 1238;
},
{
layerId = "DCA03E4F-A7C4-4A27-9237-642BF2693270";
shapes = (
{
closed = 1;
nodes = (
(436,0,l),
(436,1499,l),
(202,1499,l),
(202,0,l)
);
},
{
closed = 1;
nodes = (
(449,594,l),
(942,0,l),
(1239,0,l),
(677,656,l)
);
},
{
closed = 1;
nodes = (
(677,562,l),
(1187,1105,l),
(906,1105,l),
(449,594,l)
);
}
);
width = 1254;
},
{
layerId = "5A3B0B44-0D2D-4186-9E39-19797E3BFD87";
shapes = (
{
closed = 1;
nodes = (
(360,0,l),
(360,1514,l),
(158,1514,l),
(158,0,l)
);
},
{
closed = 1;
nodes = (
(371,538,l),
(791,0,l),
(1047,0,l),
(569,588,l)
);
},
{
closed = 1;
nodes = (
(565,506,l),
(998,1001,l),
(760,1001,l),
(371,538,l)
);
}
);
width = 1044;
}
);
unicode = 107;
userData = {
com.typemytype.robofont.mark = (
0.656,
1,
0.6,
1
);
};
},
{
glyphname = l;
lastChange = "2017-11-16 23:22:27 +0000";
layers = (
{
layerId = "0FCA90BE-146C-409C-AA6F-2BDBAA20F869";
shapes = (
{
closed = 1;
nodes = (
(393,0,l),
(393,1474,l),
(373,1474,o),
(353,1474,o),
(333,1474,cs),
(185,1474,o),
(175,1381,o),
(175,1316,cs),
(175,0,l)
);
}
);
width = 568;
},
{
layerId = "0C6ED426-E59F-42BE-A2AF-648DBA17C507";
shapes = (
{
closed = 1;
nodes = (
(281,0,l),
(281,1474,l),
(276,1474,o),
(272,1474,o),
(267,1474,cs),
(218,1474,o),
(205,1436,o),
(205,1390,cs),
(205,0,l,{
name = hr00;
})
);
}
);
width = 486;
},
{
layerId = "27ACF26B-8C89-4195-A22E-C9A713B2D4DA";
shapes = (
{
closed = 1;
nodes = (
(573,0,l),
(573,1484,l),
(515,1484,o),
(457,1484,o),
(399,1484,cs),
(154,1484,o),
(140,1383,o),
(140,1223,cs),
(140,0,l,{
name = hr00;
})
);
}
);
width = 713;
},
{
layerId = "758B6861-60C6-4092-9073-6CD691788EA2";
shapes = (
{
closed = 1;
nodes = (
(345,0,l),
(345,1474,l),
(326,1474,o),
(308,1474,o),
(289,1474,cs),
(155,1474,o),
(147,1387,o),
(147,1324,cs),
(147,0,l,{
name = hr00;
})
);
}
);
width = 492;
},
{
layerId = "83D261EB-5180-4991-884D-E57EC90CAEFB";
shapes = (
{
closed = 1;
nodes = (
(421,0,l),
(421,1474,l),
(401,1474,o),
(382,1474,o),
(362,1474,cs),
(206,1474,o),
(195,1380,o),
(195,1309,cs),
(195,0,l)
);
}
);
width = 616;
},
{
layerId = "DCA03E4F-A7C4-4A27-9237-642BF2693270";
shapes = (
{
closed = 1;
nodes = (
(436,0,l),
(436,1499,l),
(388,1499,o),
(340,1499,o),
(292,1499,cs),
(208,1499,o),
(202,1444,o),
(202,1402,cs),
(202,0,l,{
name = hr00;
})
);
}
);
width = 638;
},
{
layerId = "5A3B0B44-0D2D-4186-9E39-19797E3BFD87";
shapes = (
{
closed = 1;
nodes = (
(360,0,l),
(360,1511,l),
(340,1514,o),
(320,1516,o),
(300,1516,cs),
(176,1516,o),
(158,1439,o),
(158,1366,cs),
(158,0,l,{
name = hr00;
})
);
}
);
width = 518;
}
);
unicode = 108;
userData = {
com.typemytype.robofont.mark = (
0.656,
1,
0.6,
1
);
};
},
{
glyphname = m;
lastChange = "2017-11-16 23:22:27 +0000";
layers = (
{
layerId = "0FCA90BE-146C-409C-AA6F-2BDBAA20F869";
shapes = (
{
closed = 1;
nodes = (
(1112,809,o),
(1222,872,o),
(1332,872,cs),
(1453,872,o),
(1501,796,o),
(1501,668,cs),
(1501,0,l),
(1719,0,l),
(1719,692,ls),
(1719,949,o),
(1594,1059,o),
(1395,1059,cs),
(1254,1059,o),
(1126,1004,o),
(1041,861,c),
(1018,861,l),
(1048,666,l)
);
},
{
closed = 1;
nodes = (
(449,808,o),
(559,872,o),
(669,872,cs),
(790,872,o),
(839,795,o),
(839,668,cs),
(839,0,l),
(1056,0,l),
(1056,692,ls),
(1056,998,o),
(880,1059,o),
(732,1059,cs),
(595,1059,o),
(473,1006,o),
(393,881,c),
(370,881,l),
(385,665,l)
);
},
{
closed = 1;
nodes = (
(393,0,l),
(393,702,l),
(384,848,l),
(384,890,ls),
(384,937,o),
(376,1032,o),
(238,1032,cs),
(217,1032,o),
(196,1032,o),
(175,1032,c),
(175,0,l)
);
}
);
width = 1884;
},
{
layerId = "0C6ED426-E59F-42BE-A2AF-648DBA17C507";
shapes = (
{
closed = 1;
nodes = (
(1050,902,o),
(1200,978,o),
(1341,978,cs),
(1516,978,o),
(1579,861,o),
(1579,703,cs),
(1579,0,l),
(1655,0,l),
(1655,717,ls),
(1655,947,o),
(1524,1049,o),
(1344,1049,cs),
(1204,1049,o),
(1066,986,o),
(956,839,c),
(940,839,l),
(959,728,l)
);
},
{
closed = 1;
nodes = (
(361,898,o),
(509,978,o),
(654,978,cs),
(830,978,o),
(892,861,o),
(892,703,cs),
(892,0,l),
(968,0,l),
(968,706,ls),
(968,972,o),
(806,1049,o),
(656,1049,cs),
(517,1049,o),
(379,982,o),
(284,855,c),
(263,855,l),
(272,728,l)
);
},
{
closed = 1;
nodes = (
(281,0,l),
(281,760,l),
(279,837,l),
(279,943,ls),
(279,989,o),
(266,1027,o),
(217,1027,cs),
(213,1027,o),
(209,1027,o),
(205,1027,c),
(205,0,l)
);
}
);
width = 1850;
},
{
layerId = "27ACF26B-8C89-4195-A22E-C9A713B2D4DA";
shapes = (
{
closed = 1;
nodes = (
(1235,700,o),
(1292,737,o),
(1350,737,cs),
(1394,737,o),
(1424,717,o),
(1424,639,cs),
(1424,0,l),
(1856,0,l),
(1856,689,ls),
(1856,979,o),
(1710,1079,o),
(1511,1079,cs),
(1405,1079,o),
(1257,1050,o),
(1189,899,c),
(1167,899,l),
(1210,637,l)
);
},
{
closed = 1;
nodes = (
(593,700,o),
(650,737,o),
(708,737,cs),
(752,737,o),
(782,717,o),
(782,639,cs),
(782,0,l),
(1214,0,l),
(1214,689,ls),
(1214,979,o),
(1068,1079,o),
(869,1079,cs),
(765,1079,o),
(626,1052,o),
(555,915,c),
(532,915,l),
(568,637,l)
);
},
{
closed = 1;
nodes = (
(572,0,l),
(572,686,l),
(543,895,l),
(543,915,ls),
(543,930,o),
(543,1044,o),
(330,1044,cs),
(267,1044,o),
(203,1044,o),
(140,1044,c),
(140,0,l)
);
}
);
width = 1986;
},
{
layerId = "758B6861-60C6-4092-9073-6CD691788EA2";
shapes = (
{
closed = 1;
nodes = (
(949,818,o),
(1038,884,o),
(1130,884,cs),
(1228,884,o),
(1268,809,o),
(1268,682,cs),
(1268,0,l),
(1466,0,l),
(1466,705,ls),
(1466,953,o),
(1360,1059,o),
(1190,1059,cs),
(1070,1059,o),
(962,1005,o),
(892,867,c),
(873,867,l),
(899,681,l)
);
},
{
closed = 1;
nodes = (
(389,819,o),
(479,884,o),
(569,884,cs),
(667,884,o),
(708,808,o),
(708,682,cs),
(708,0,l),
(906,0,l),
(906,704,ls),
(906,998,o),
(754,1059,o),
(629,1059,cs),
(513,1059,o),
(411,1006,o),
(344,887,c),
(325,887,l),
(338,680,l)
);
},
{
closed = 1;
nodes = (
(345,0,l),
(345,709,l),
(336,847,l),
(336,896,ls),
(336,943,o),
(330,1032,o),
(205,1032,cs),
(186,1032,o),
(166,1032,o),
(147,1032,c),
(147,0,l)
);
}
);
width = 1603;
},
{
layerId = "83D261EB-5180-4991-884D-E57EC90CAEFB";
shapes = (
{
closed = 1;
nodes = (
(1216,798,o),
(1339,862,o),
(1468,862,cs),
(1605,862,o),
(1659,789,o),
(1659,665,cs),
(1659,0,l),
(1885,0,l),
(1885,691,ls),
(1885,950,o),
(1749,1059,o),
(1529,1059,cs),
(1372,1059,o),
(1231,1003,o),
(1136,860,c),
(1111,860,l),
(1144,663,l)
);
},
{
closed = 1;
nodes = (
(485,800,o),
(610,862,o),
(736,862,cs),
(873,862,o),
(927,789,o),
(927,665,cs),
(927,0,l),
(1153,0,l),
(1153,691,ls),
(1153,997,o),
(957,1059,o),
(795,1059,cs),
(645,1059,o),
(510,1006,o),
(421,880,c),
(397,880,l),
(412,662,l)
);
},
{
closed = 1;
nodes = (
(421,0,l),
(421,700,l),
(412,850,l),
(412,891,ls),
(412,936,o),
(403,1032,o),
(256,1032,cs),
(236,1032,o),
(216,1032,o),
(195,1032,c),
(195,0,l)
);
}
);
width = 2069;
},
{
layerId = "DCA03E4F-A7C4-4A27-9237-642BF2693270";
shapes = (
{
closed = 1;
nodes = (
(1216,863,o),
(1325,923,o),
(1452,923,cs),
(1590,923,o),
(1636,852,o),
(1636,713,cs),
(1636,0,l),
(1870,0,l),
(1870,741,ls),
(1870,1027,o),
(1741,1135,o),
(1514,1135,cs),
(1353,1135,o),
(1231,1081,o),
(1144,917,c),
(1119,917,l),
(1144,701,l)
);
},
{
closed = 1;
nodes = (
(499,862,o),
(608,923,o),
(735,923,cs),
(873,923,o),
(919,851,o),
(919,713,cs),
(919,0,l),
(1153,0,l),
(1153,741,ls),
(1153,1074,o),
(968,1135,o),
(799,1135,cs),
(648,1135,o),
(523,1087,o),
(437,936,c),
(412,936,l),
(427,700,l)
);
},
{
closed = 1;
nodes = (
(436,0,l),
(436,750,l),
(423,912,l),
(423,1035,ls),
(423,1057,o),
(419,1105,o),
(346,1105,cs),
(298,1105,o),
(250,1105,o),
(202,1105,c),
(202,0,l)
);
}
);
width = 2062;
},
{
layerId = "5A3B0B44-0D2D-4186-9E39-19797E3BFD87";
shapes = (
{
closed = 1;
nodes = (
(1024,792,o),
(1126,854,o),
(1224,854,cs),
(1336,854,o),
(1382,774,o),
(1382,651,cs),
(1382,0,l),
(1584,0,l),
(1584,673,ls),
(1584,917,o),
(1467,1026,o),
(1284,1026,cs),
(1161,1026,o),
(1037,977,o),
(956,830,c),
(937,830,l),
(965,651,l)
);
},
{
closed = 1;
nodes = (
(414,796,o),
(519,854,o),
(613,854,cs),
(724,854,o),
(771,773,o),
(771,651,cs),
(771,0,l),
(972,0,l),
(972,672,ls),
(972,963,o),
(808,1026,o),
(672,1026,cs),
(548,1026,o),
(432,974,o),
(358,849,c),
(339,849,l),
(353,650,l)
);
},
{
closed = 1;
nodes = (
(360,0,l),
(360,685,l),
(352,822,l),
(352,867,ls),
(352,927,o),
(336,1004,o),
(219,1004,cs),
(200,1004,o),
(179,1002,o),
(158,998,c),
(158,0,l)
);
}
);
width = 1732;
}
);
unicode = 109;
userData = {
com.typemytype.robofont.mark = (
0.656,
1,
0.6,
1
);
};
},
{
glyphname = n;
lastChange = "2017-11-16 23:22:27 +0000";
layers = (
{
layerId = "0FCA90BE-146C-409C-AA6F-2BDBAA20F869";
shapes = (
{
closed = 1;
nodes = (
(452,803,o),
(559,872,o),
(683,872,cs),
(822,872,o),
(866,790,o),
(866,656,cs),
(866,0,l),
(1084,0,l),
(1084,681,ls),
(1084,940,o),
(964,1059,o),
(747,1059,cs),
(595,1059,o),
(474,1001,o),
(393,878,c),
(370,878,l),
(385,663,l)
);
},
{
closed = 1;
nodes = (
(393,0,l),
(393,699,l),
(384,847,l),
(384,891,ls),
(384,938,o),
(376,1032,o),
(238,1032,cs),
(217,1032,o),
(196,1032,o),
(175,1032,c),
(175,0,l)
);
}
);
width = 1249;
},
{
layerId = "0C6ED426-E59F-42BE-A2AF-648DBA17C507";
shapes = (
{
closed = 1;
nodes = (
(369,897,o),
(505,978,o),
(668,978,cs),
(871,978,o),
(918,852,o),
(918,685,cs),
(918,0,l),
(994,0,l),
(994,707,ls),
(994,932,o),
(885,1049,o),
(673,1049,cs),
(509,1049,o),
(387,978,o),
(284,851,c),
(263,851,l),
(272,724,l)
);
},
{
closed = 1;
nodes = (
(281,0,l),
(281,757,l),
(279,845,l),
(279,943,ls),
(279,989,o),
(266,1027,o),
(217,1027,cs),
(213,1027,o),
(209,1027,o),
(205,1027,c),
(205,0,l)
);
}
);
width = 1189;
},
{
layerId = "27ACF26B-8C89-4195-A22E-C9A713B2D4DA";
shapes = (
{
closed = 1;
nodes = (
(594,698,o),
(655,737,o),
(716,737,cs),
(763,737,o),
(795,715,o),
(795,637,cs),
(795,0,l),
(1228,0,l),
(1228,689,ls),
(1228,979,o),
(1078,1079,o),
(875,1079,cs),
(769,1079,o),
(627,1052,o),
(555,915,c),
(532,915,l),
(568,635,l)
);
},
{
closed = 1;
nodes = (
(573,0,l),
(573,686,l),
(543,895,l),
(543,915,ls),
(543,930,o),
(543,1044,o),
(330,1044,cs),
(267,1044,o),
(203,1044,o),
(140,1044,c),
(140,0,l)
);
}
);
width = 1358;
},
{
layerId = "758B6861-60C6-4092-9073-6CD691788EA2";
shapes = (
{
closed = 1;
nodes = (
(392,817,o),
(480,884,o),
(582,884,cs),
(694,884,o),
(731,801,o),
(731,670,cs),
(731,0,l),
(929,0,l),
(929,694,ls),
(929,943,o),
(826,1059,o),
(642,1059,cs),
(514,1059,o),
(411,1003,o),
(344,884,c),
(325,884,l),
(338,678,l)
);
},
{
closed = 1;
nodes = (
(345,0,l),
(345,706,l),
(336,847,l),
(336,897,ls),
(336,943,o),
(330,1032,o),
(205,1032,cs),
(186,1032,o),
(166,1032,o),
(147,1032,c),
(147,0,l)
);
}
);
width = 1066;
},
{
layerId = "83D261EB-5180-4991-884D-E57EC90CAEFB";
shapes = (
{
closed = 1;
nodes = (
(485,791,o),
(603,862,o),
(752,862,cs),
(910,862,o),
(959,783,o),
(959,654,cs),
(959,0,l),
(1185,0,l),
(1185,681,ls),
(1185,942,o),
(1055,1059,o),
(813,1059,cs),
(644,1059,o),
(511,1002,o),
(421,877,c),
(396,877,l),
(411,659,l)
);
},
{
closed = 1;
nodes = (
(421,0,l),
(421,697,l),
(412,849,l),
(412,892,ls),
(412,936,o),
(403,1032,o),
(256,1032,cs),
(236,1032,o),
(216,1032,o),
(195,1032,c),
(195,0,l)
);
}
);
width = 1369;
},
{
layerId = "DCA03E4F-A7C4-4A27-9237-642BF2693270";
shapes = (
{
closed = 1;
nodes = (
(505,863,o),
(614,923,o),
(751,923,cs),
(904,923,o),
(949,848,o),
(949,701,cs),
(949,0,l),
(1183,0,l),
(1183,730,ls),
(1183,1021,o),
(1056,1135,o),
(814,1135,cs),
(644,1135,o),
(522,1079,o),
(437,933,c),
(412,933,l),
(427,698,l)
);
},
{
closed = 1;
nodes = (
(436,0,l),
(436,747,l),
(423,911,l),
(423,1036,ls),
(423,1058,o),
(419,1105,o),
(346,1105,cs),
(298,1105,o),
(250,1105,o),
(202,1105,c),
(202,0,l)
);
}
);
width = 1375;
},
{
layerId = "5A3B0B44-0D2D-4186-9E39-19797E3BFD87";
shapes = (
{
closed = 1;
nodes = (
(415,786,o),
(514,854,o),
(626,854,cs),
(752,854,o),
(796,769,o),
(796,639,cs),
(796,0,l),
(998,0,l),
(998,663,ls),
(998,907,o),
(885,1026,o),
(686,1026,cs),
(554,1026,o),
(436,974,o),
(358,846,c),
(339,846,l),
(353,648,l)
);
},
{
closed = 1;
nodes = (
(360,0,l),
(360,683,l),
(352,821,l),
(352,868,ls),
(352,933,o),
(332,1004,o),
(220,1004,cs),
(202,1004,o),
(179,1002,o),
(158,998,c),
(158,0,l)
);
}
);
width = 1146;
}
);
unicode = 110;
userData = {
com.typemytype.robofont.mark = (
0.656,
1,
0.6,
1
);
};
},
{
glyphname = o;
lastChange = "2017-11-16 23:22:27 +0000";
layers = (
{
layerId = "0FCA90BE-146C-409C-AA6F-2BDBAA20F869";
shapes = (
{
closed = 1;
nodes = (
(100,163,o),
(301,-22,o),
(607,-22,cs),
(908,-22,o),
(1126,158,o),
(1126,525,cs),
(1126,877,o),
(926,1059,o),
(618,1059,cs),
(315,1059,o),
(100,883,o),
(100,517,cs)
);
},
{
closed = 1;
nodes = (
(322,762,o),
(436,877,o),
(612,877,cs),
(789,877,o),
(903,760,o),
(903,520,cs),
(903,280,o),
(789,160,o),
(613,160,cs),
(435,160,o),
(322,282,o),
(322,521,cs)
);
}
);
width = 1226;
},
{
layerId = "0C6ED426-E59F-42BE-A2AF-648DBA17C507";
shapes = (
{
closed = 1;
nodes = (
(120,161,o),
(304,-22,o),
(584,-22,cs),
(860,-22,o),
(1061,156,o),
(1061,521,cs),
(1061,869,o),
(878,1049,o),
(596,1049,cs),
(318,1049,o),
(120,875,o),
(120,512,cs,{
name = hr00;
})
);
},
{
closed = 1;
nodes = (
(199,828,o),
(356,980,o),
(590,980,cs),
(825,980,o),
(982,825,o),
(982,517,cs),
(982,208,o),
(825,50,o),
(591,50,cs),
(354,50,o),
(199,211,o),
(199,518,cs)
);
}
);
width = 1181;
},
{
layerId = "27ACF26B-8C89-4195-A22E-C9A713B2D4DA";
shapes = (
{
closed = 1;
nodes = (
(80,162,o),
(303,-25,o),
(647,-25,cs),
(987,-25,o),
(1234,151,o),
(1234,535,cs),
(1234,897,o),
(1010,1079,o),
(666,1079,cs),
(326,1079,o),
(80,909,o),
(80,524,cs,{
name = hr00;
})
);
},
{
closed = 1;
nodes = (
(521,699,o),
(577,757,o),
(657,757,cs),
(737,757,o),
(793,699,o),
(793,532,cs),
(793,363,o),
(737,302,o),
(657,302,cs),
(577,302,o),
(521,363,o),
(521,532,cs)
);
}
);
width = 1314;
},
{
layerId = "758B6861-60C6-4092-9073-6CD691788EA2";
shapes = (
{
closed = 1;
nodes = (
(83,163,o),
(249,-22,o),
(517,-22,cs),
(774,-22,o),
(961,152,o),
(961,525,cs),
(961,883,o),
(790,1059,o),
(526,1059,cs),
(267,1059,o),
(83,889,o),
(83,517,cs,{
name = hr00;
})
);
},
{
closed = 1;
nodes = (
(285,776,o),
(378,889,o),
(522,889,cs),
(667,889,o),
(759,774,o),
(759,520,cs),
(759,267,o),
(667,148,o),
(523,148,cs),
(371,148,o),
(285,275,o),
(285,521,cs)
);
}
);
width = 1044;
},
{
layerId = "83D261EB-5180-4991-884D-E57EC90CAEFB";
shapes = (
{
closed = 1;
nodes = (
(112,163,o),
(332,-22,o),
(666,-22,cs),
(995,-22,o),
(1233,158,o),
(1233,525,cs),
(1233,877,o),
(1015,1059,o),
(678,1059,cs),
(346,1059,o),
(112,883,o),
(112,518,cs)
);
},
{
closed = 1;
nodes = (
(341,757,o),
(471,868,o),
(671,868,cs),
(873,868,o),
(1003,755,o),
(1003,520,cs),
(1003,286,o),
(873,170,o),
(672,170,cs),
(470,170,o),
(341,288,o),
(341,521,cs)
);
}
);
width = 1345;
},
{
layerId = "DCA03E4F-A7C4-4A27-9237-642BF2693270";
shapes = (
{
closed = 1;
nodes = (
(125,169,o),
(326,-30,o),
(672,-30,cs),
(1012,-30,o),
(1232,163,o),
(1232,560,cs),
(1232,939,o),
(1031,1135,o),
(684,1135,cs),
(343,1135,o),
(125,946,o),
(125,550,cs,{
name = hr00;
})
);
},
{
closed = 1;
nodes = (
(363,807,o),
(472,928,o),
(678,928,cs),
(885,928,o),
(993,807,o),
(993,555,cs),
(993,302,o),
(885,176,o),
(679,176,cs),
(472,176,o),
(363,303,o),
(363,555,cs)
);
}
);
width = 1357;
},
{
layerId = "5A3B0B44-0D2D-4186-9E39-19797E3BFD87";
shapes = (
{
closed = 1;
nodes = (
(90,158,o),
(279,-25,o),
(558,-25,cs),
(833,-25,o),
(1038,153,o),
(1038,506,cs),
(1038,846,o),
(848,1026,o),
(568,1026,cs),
(293,1026,o),
(90,852,o),
(90,499,cs,{
name = hr00;
})
);
},
{
closed = 1;
nodes = (
(296,740,o),
(404,859,o),
(563,859,cs),
(723,859,o),
(831,738,o),
(831,502,cs),
(831,266,o),
(723,143,o),
(564,143,cs),
(403,143,o),
(296,268,o),
(296,503,cs)
);
}
);
width = 1128;
}
);
unicode = 111;
userData = {
com.typemytype.robofont.mark = (
0.656,
1,
0.6,
1
);
};
},
{
glyphname = p;
lastChange = "2017-11-16 23:22:27 +0000";
layers = (
{
layerId = "0FCA90BE-146C-409C-AA6F-2BDBAA20F869";
shapes = (
{
closed = 1;
nodes = (
(402,52,l),
(471,7,o),
(565,-22,o),
(669,-22,cs),
(953,-22,o),
(1143,194,o),
(1143,539,cs),
(1143,885,o),
(952,1059,o),
(712,1059,cs),
(579,1059,o),
(465,1005,o),
(392,875,c),
(371,875,l),
(386,657,l),
(444,808,o),
(549,873,o),
(662,873,cs),
(807,873,o),
(921,767,o),
(921,524,cs),
(921,317,o),
(839,161,o),
(631,161,cs),
(556,161,o),
(453,181,o),
(380,244,c),
(380,52,l)
);
},
{
closed = 1;
nodes = (
(393,-427,l),
(393,695,l),
(384,839,l),
(384,891,ls),
(384,938,o),
(376,1032,o),
(238,1032,cs),
(217,1032,o),
(196,1032,o),
(175,1032,c),
(175,-427,l)
);
}
);
width = 1243;
},
{
layerId = "0C6ED426-E59F-42BE-A2AF-648DBA17C507";
shapes = (
{
closed = 1;
nodes = (
(285,80,l),
(363,18,o),
(467,-22,o),
(591,-22,cs),
(857,-22,o),
(1071,161,o),
(1071,536,cs),
(1071,868,o),
(904,1049,o),
(640,1049,cs),
(484,1049,o),
(370,986,o),
(283,855,c),
(264,855,l),
(274,726,l),
(348,905,o),
(492,978,o),
(636,978,cs),
(839,978,o),
(992,834,o),
(992,533,cs),
(992,228,o),
(834,47,o),
(594,47,cs),
(498,47,o),
(370,76,o),
(268,186,c),
(268,94,l)
);
},
{
closed = 1;
nodes = (
(281,-427,l),
(281,758,l),
(279,834,l),
(279,943,ls),
(279,989,o),
(266,1027,o),
(217,1027,cs),
(212,1027,o),
(208,1027,o),
(205,1027,c),
(205,-427,l)
);
}
);
width = 1191;
},
{
layerId = "27ACF26B-8C89-4195-A22E-C9A713B2D4DA";
shapes = (
{
closed = 1;
nodes = (
(584,19,l),
(649,-12,o),
(726,-25,o),
(794,-25,cs),
(1083,-25,o),
(1264,208,o),
(1264,546,cs),
(1264,873,o),
(1094,1079,o),
(837,1079,cs),
(743,1079,o),
(620,1051,o),
(555,908,c),
(528,908,l),
(570,609,l),
(575,672,o),
(615,745,o),
(697,745,cs),
(778,745,o),
(822,676,o),
(822,526,cs),
(822,430,o),
(804,306,o),
(679,306,cs),
(646,306,o),
(594,315,o),
(559,336,c),
(567,19,l)
);
},
{
closed = 1;
nodes = (
(572,-427,l),
(572,690,l),
(543,873,l),
(543,915,ls),
(543,931,o),
(542,1044,o),
(330,1044,cs),
(267,1044,o),
(203,1044,o),
(140,1044,c),
(140,-427,l)
);
}
);
width = 1344;
},
{
layerId = "758B6861-60C6-4092-9073-6CD691788EA2";
shapes = (
{
closed = 1;
nodes = (
(353,47,l),
(410,5,o),
(489,-22,o),
(575,-22,cs),
(818,-22,o),
(977,192,o),
(977,536,cs),
(977,885,o),
(813,1059,o),
(612,1059,cs),
(501,1059,o),
(404,1006,o),
(343,882,c),
(325,882,l),
(339,673,l),
(384,816,o),
(469,885,o),
(564,885,cs),
(682,885,o),
(775,778,o),
(775,520,cs),
(775,309,o),
(713,148,o),
(539,148,cs),
(479,148,o),
(393,167,o),
(334,229,c),
(334,49,l)
);
},
{
closed = 1;
nodes = (
(345,-427,l),
(345,703,l),
(336,840,l),
(336,897,ls),
(336,943,o),
(330,1032,o),
(205,1032,cs),
(186,1032,o),
(166,1032,o),
(147,1032,c),
(147,-427,l)
);
}
);
width = 1060;
},
{
layerId = "83D261EB-5180-4991-884D-E57EC90CAEFB";
shapes = (
{
closed = 1;
nodes = (
(430,51,l),
(506,6,o),
(613,-22,o),
(726,-22,cs),
(1042,-22,o),
(1251,195,o),
(1251,538,cs),
(1251,883,o),
(1040,1059,o),
(775,1059,cs),
(628,1059,o),
(501,1005,o),
(420,874,c),
(397,874,l),
(412,653,l),
(479,798,o),
(599,863,o),
(728,863,cs),
(890,863,o),
(1022,760,o),
(1022,524,cs),
(1022,325,o),
(928,170,o),
(691,170,cs),
(608,170,o),
(489,189,o),
(406,249,c),
(405,51,l)
);
},
{
closed = 1;
nodes = (
(421,-427,l),
(421,695,l),
(412,841,l),
(412,892,ls),
(412,937,o),
(403,1032,o),
(256,1032,cs),
(236,1032,o),
(216,1032,o),
(195,1032,c),
(195,-427,l)
);
}
);
width = 1363;
},
{
layerId = "DCA03E4F-A7C4-4A27-9237-642BF2693270";
shapes = (
{
closed = 1;
nodes = (
(446,47,l),
(523,-3,o),
(617,-30,o),
(728,-30,cs),
(1050,-30,o),
(1246,198,o),
(1246,575,cs),
(1246,952,o),
(1049,1135,o),
(777,1135,cs),
(625,1135,o),
(505,1077,o),
(437,929,c),
(414,929,l),
(428,690,l),
(492,860,o),
(600,924,o),
(728,924,cs),
(891,924,o),
(1009,820,o),
(1009,556,cs),
(1009,336,o),
(927,178,o),
(688,178,cs),
(615,178,o),
(507,193,o),
(422,263,c),
(422,47,l)
);
},
{
closed = 1;
nodes = (
(436,-427,l),
(436,744,l),
(423,901,l),
(423,1036,ls),
(423,1058,o),
(419,1105,o),
(346,1105,cs),
(298,1105,o),
(250,1105,o),
(202,1105,c),
(202,-427,l)
);
}
);
width = 1371;
},
{
layerId = "5A3B0B44-0D2D-4186-9E39-19797E3BFD87";
shapes = (
{
closed = 1;
nodes = (
(366,52,l),
(429,4,o),
(519,-25,o),
(615,-25,cs),
(874,-25,o),
(1052,187,o),
(1052,519,cs),
(1052,855,o),
(870,1026,o),
(654,1026,cs),
(533,1026,o),
(425,973,o),
(358,843,c),
(338,843,l),
(354,643,l),
(407,791,o),
(505,855,o),
(607,855,cs),
(740,855,o),
(847,745,o),
(847,506,cs),
(847,300,o),
(768,143,o),
(579,143,cs),
(511,143,o),
(416,163,o),
(348,228,c),
(348,52,l)
);
},
{
closed = 1;
nodes = (
(360,-442,l),
(360,679,l),
(352,813,l),
(352,868,ls),
(352,975,o),
(292,1004,o),
(219,1004,cs),
(200,1004,o),
(179,1002,o),
(158,998,c),
(158,-442,l)
);
}
);
width = 1142;
}
);
unicode = 112;
userData = {
com.typemytype.robofont.mark = (
0.656,
1,
0.6,
1
);
};
},
{
glyphname = q;
lastChange = "2017-11-16 23:22:27 +0000";
layers = (
{
layerId = "0FCA90BE-146C-409C-AA6F-2BDBAA20F869";
shapes = (
{
closed = 1;
nodes = (
(857,356,l),
(808,223,o),
(702,163,o),
(591,163,cs),
(436,163,o),
(323,282,o),
(323,513,cs),
(323,731,o),
(423,875,o),
(618,875,cs),
(696,875,o),
(777,852,o),
(850,792,c),
(850,-427,l),
(1068,-427,l),
(1068,1042,l),
(1041,1042,o),
(1013,1042,o),
(986,1042,cs),
(868,1042,o),
(860,968,o),
(860,922,cs),
(860,912,l),
(884,965,l),
(856,965,l),
(781,1021,o),
(696,1059,o),
(578,1059,cs),
(305,1059,o),
(100,858,o),
(100,506,cs),
(100,165,o),
(292,-22,o),
(538,-22,cs),
(663,-22,o),
(770,27,o),
(841,131,c),
(857,131,l)
);
}
);
width = 1243;
},
{
layerId = "0C6ED426-E59F-42BE-A2AF-648DBA17C507";
shapes = (
{
closed = 1;
nodes = (
(917,307,l),
(841,111,o),
(689,49,o),
(559,49,cs),
(349,49,o),
(199,211,o),
(199,509,cs),
(199,816,o),
(357,980,o),
(595,980,cs),
(694,980,o),
(810,952,o),
(910,857,c),
(910,-427,l),
(986,-427,l),
(986,1027,l),
(980,1027,o),
(975,1027,o),
(969,1027,cs),
(918,1027,o),
(910,990,o),
(910,945,cs),
(910,935,l),
(923,951,l),
(906,951,l),
(824,1012,o),
(726,1049,o),
(600,1049,cs),
(334,1049,o),
(120,883,o),
(120,508,cs),
(120,175,o),
(289,-22,o),
(555,-22,cs),
(700,-22,o),
(822,36,o),
(905,162,c),
(921,162,l)
);
}
);
width = 1191;
},
{
layerId = "27ACF26B-8C89-4195-A22E-C9A713B2D4DA";
shapes = (
{
closed = 1;
nodes = (
(774,421,l),
(771,364,o),
(723,308,o),
(651,308,cs),
(565,308,o),
(522,387,o),
(522,531,cs),
(522,630,o),
(542,748,o),
(663,748,cs),
(695,748,o),
(733,740,o),
(772,713,c),
(772,-427,l),
(1204,-427,l),
(1204,1054,l),
(1139,1054,o),
(1073,1054,o),
(1008,1054,cs),
(840,1054,o),
(790,983,o),
(790,884,cs),
(790,874,l),
(829,976,l),
(800,976,l),
(727,1050,o),
(638,1079,o),
(540,1079,cs),
(270,1079,o),
(80,857,o),
(80,516,cs),
(80,191,o),
(254,-25,o),
(511,-25,cs),
(593,-25,o),
(692,-3,o),
(754,74,c),
(781,74,l)
);
}
);
width = 1344;
},
{
layerId = "758B6861-60C6-4092-9073-6CD691788EA2";
shapes = (
{
closed = 1;
nodes = (
(721,342,l),
(682,207,o),
(594,150,o),
(505,150,cs),
(378,150,o),
(285,266,o),
(285,516,cs),
(285,747,o),
(365,887,o),
(527,887,cs),
(590,887,o),
(656,866,o),
(715,808,c),
(715,-419,l),
(913,-419,l),
(913,1042,l),
(888,1042,o),
(863,1042,o),
(838,1042,cs),
(731,1042,o),
(725,972,o),
(725,926,cs),
(725,916,l),
(746,971,l),
(722,971,l),
(658,1023,o),
(587,1059,o),
(487,1059,cs),
(256,1059,o),
(83,866,o),
(83,509,cs),
(83,160,o),
(248,-22,o),
(454,-22,cs),
(559,-22,o),
(648,25,o),
(707,126,c),
(721,126,l)
);
}
);
width = 1060;
},
{
layerId = "83D261EB-5180-4991-884D-E57EC90CAEFB";
shapes = (
{
closed = 1;
nodes = (
(950,359,l),
(893,232,o),
(772,172,o),
(647,172,cs),
(472,172,o),
(342,289,o),
(342,513,cs),
(342,723,o),
(457,865,o),
(679,865,cs),
(767,865,o),
(859,843,o),
(942,786,c),
(942,-428,l),
(1168,-428,l),
(1168,1042,l),
(1140,1042,o),
(1112,1042,o),
(1085,1042,cs),
(958,1042,o),
(953,968,o),
(953,918,cs),
(953,907,l),
(980,964,l),
(949,964,l),
(865,1020,o),
(771,1059,o),
(639,1059,cs),
(339,1059,o),
(112,857,o),
(112,507,cs),
(112,167,o),
(324,-22,o),
(597,-22,cs),
(734,-22,o),
(855,26,o),
(934,129,c),
(950,129,l)
);
}
);
width = 1363;
},
{
layerId = "DCA03E4F-A7C4-4A27-9237-642BF2693270";
shapes = (
{
closed = 1;
nodes = (
(943,390,l),
(888,238,o),
(780,180,o),
(656,180,cs),
(481,180,o),
(364,296,o),
(364,548,cs),
(364,783,o),
(465,927,o),
(687,927,cs),
(781,927,o),
(860,901,o),
(936,832,c),
(936,-427,l),
(1169,-427,l),
(1169,1110,l),
(1114,1110,o),
(1060,1110,o),
(1005,1110,cs),
(953,1110,o),
(949,1079,o),
(949,1058,cs),
(949,968,l),
(965,1024,l),
(935,1024,l),
(860,1102,o),
(769,1135,o),
(647,1135,cs),
(339,1135,o),
(125,927,o),
(125,540,cs),
(125,165,o),
(327,-30,o),
(604,-30,cs),
(745,-30,o),
(858,21,o),
(922,140,c),
(943,140,l)
);
}
);
width = 1371;
},
{
layerId = "5A3B0B44-0D2D-4186-9E39-19797E3BFD87";
shapes = (
{
closed = 1;
nodes = (
(789,337,l),
(744,204,o),
(646,145,o),
(545,145,cs),
(401,145,o),
(297,264,o),
(297,496,cs),
(297,714,o),
(389,857,o),
(568,857,cs),
(640,857,o),
(715,834,o),
(782,773,c),
(782,-442,l),
(984,-442,l),
(984,998,l),
(952,1005,o),
(925,1008,o),
(902,1008,cs),
(812,1008,o),
(791,958,o),
(791,896,cs),
(791,886,l),
(815,932,l),
(789,932,l),
(721,990,o),
(640,1026,o),
(531,1026,cs),
(279,1026,o),
(90,833,o),
(90,490,cs),
(90,157,o),
(268,-25,o),
(494,-25,cs),
(610,-25,o),
(710,23,o),
(776,130,c),
(789,130,l)
);
}
);
width = 1142;
}
);
unicode = 113;
userData = {
com.typemytype.robofont.mark = (
0.656,
1,
0.6,
1
);
};
},
{
glyphname = r;
lastChange = "2017-11-16 23:22:27 +0000";
layers = (
{
layerId = "0FCA90BE-146C-409C-AA6F-2BDBAA20F869";
shapes = (
{
closed = 1;
nodes = (
(393,0,l),
(393,615,l),
(384,829,l),
(384,890,ls),
(384,938,o),
(376,1032,o),
(238,1032,cs),
(217,1032,o),
(196,1032,o),
(175,1032,c),
(175,0,l)
);
},
{
closed = 1;
nodes = (
(441,776,o),
(549,858,o),
(691,858,cs),
(713,858,o),
(747,856,o),
(786,847,c),
(824,1040,l),
(782,1052,o),
(742,1055,o),
(708,1055,cs),
(556,1055,o),
(459,993,o),
(392,852,c),
(371,852,l),
(387,553,l)
);
}
);
width = 834;
},
{
layerId = "0C6ED426-E59F-42BE-A2AF-648DBA17C507";
shapes = (
{
closed = 1;
nodes = (
(281,0,l),
(281,696,l),
(279,807,l),
(279,943,ls),
(279,989,o),
(266,1027,o),
(217,1027,cs),
(213,1027,o),
(209,1027,o),
(205,1027,c),
(205,0,l)
);
},
{
closed = 1;
nodes = (
(337,893,o),
(455,972,o),
(587,972,cs),
(617,972,o),
(654,968,o),
(697,957,c),
(713,1034,l),
(669,1046,o),
(630,1049,o),
(593,1049,cs),
(449,1049,o),
(350,985,o),
(284,831,c),
(266,831,l),
(275,641,l)
);
}
);
width = 718;
},
{
layerId = "27ACF26B-8C89-4195-A22E-C9A713B2D4DA";
shapes = (
{
closed = 1;
nodes = (
(573,0,l),
(573,536,l),
(543,865,l),
(543,898,ls),
(543,930,o),
(543,1044,o),
(330,1044,cs),
(267,1044,o),
(203,1044,o),
(140,1044,c),
(140,0,l)
);
},
{
closed = 1;
nodes = (
(611,665,o),
(719,714,o),
(838,714,cs),
(872,714,o),
(904,712,o),
(942,704,c),
(1010,1053,l),
(968,1064,o),
(931,1068,o),
(897,1068,cs),
(731,1068,o),
(627,1002,o),
(556,871,c),
(528,871,l),
(568,481,l)
);
}
);
width = 1015;
},
{
layerId = "758B6861-60C6-4092-9073-6CD691788EA2";
shapes = (
{
closed = 1;
nodes = (
(345,0,l),
(345,624,l),
(336,827,l),
(336,896,ls),
(336,943,o),
(330,1032,o),
(205,1032,cs),
(186,1032,o),
(166,1032,o),
(147,1032,c),
(147,0,l)
);
},
{
closed = 1;
nodes = (
(385,792,o),
(475,869,o),
(597,869,cs),
(614,869,o),
(643,867,o),
(676,858,c),
(710,1040,l),
(675,1052,o),
(641,1055,o),
(612,1055,cs),
(482,1055,o),
(400,995,o),
(343,858,c),
(325,858,l),
(340,572,l)
);
}
);
width = 719;
},
{
layerId = "83D261EB-5180-4991-884D-E57EC90CAEFB";
shapes = (
{
closed = 1;
nodes = (
(421,0,l),
(421,610,l),
(412,831,l),
(412,890,ls),
(412,936,o),
(403,1032,o),
(256,1032,cs),
(236,1032,o),
(216,1032,o),
(195,1032,c),
(195,0,l)
);
},
{
closed = 1;
nodes = (
(473,767,o),
(591,846,o),
(750,846,cs),
(775,846,o),
(812,844,o),
(856,836,c),
(894,1040,l),
(848,1052,o),
(805,1055,o),
(768,1055,cs),
(603,1055,o),
(494,994,o),
(420,852,c),
(398,852,l),
(414,549,l)
);
}
);
width = 906;
},
{
layerId = "DCA03E4F-A7C4-4A27-9237-642BF2693270";
shapes = (
{
closed = 1;
nodes = (
(435,0,l),
(435,652,l),
(423,890,l),
(423,1034,ls),
(423,1058,o),
(419,1105,o),
(346,1105,cs),
(298,1105,o),
(250,1105,o),
(202,1105,c),
(202,0,l)
);
},
{
closed = 1;
nodes = (
(489,828,o),
(601,903,o),
(754,903,cs),
(784,903,o),
(818,900,o),
(861,891,c),
(901,1113,l),
(856,1125,o),
(814,1129,o),
(772,1129,cs),
(599,1129,o),
(500,1060,o),
(437,904,c),
(412,904,l),
(429,577,l)
);
}
);
width = 926;
},
{
layerId = "5A3B0B44-0D2D-4186-9E39-19797E3BFD87";
shapes = (
{
closed = 1;
nodes = (
(360,0,l),
(360,603,l),
(352,802,l),
(352,867,ls),
(352,928,o),
(336,1004,o),
(220,1004,cs),
(202,1004,o),
(181,1002,o),
(158,998,c),
(158,0,l)
);
},
{
closed = 1;
nodes = (
(405,762,o),
(506,840,o),
(633,840,cs),
(658,840,o),
(687,837,o),
(723,828,c),
(758,1008,l),
(720,1020,o),
(685,1024,o),
(650,1024,cs),
(513,1024,o),
(419,963,o),
(358,821,c),
(340,821,l),
(355,543,l)
);
}
);
width = 763;
}
);
unicode = 114;
userData = {
com.typemytype.robofont.mark = (
0.656,
1,
0.6,
1
);
};
},
{
glyphname = s;
lastChange = "2017-11-16 23:22:27 +0000";
layers = (
{
layerId = "0FCA90BE-146C-409C-AA6F-2BDBAA20F869";
shapes = (
{
closed = 1;
nodes = (
(142,55,o),
(282,-22,o),
(488,-22,cs),
(744,-22,o),
(903,97,o),
(903,297,cs),
(903,513,o),
(716,571,o),
(546,618,cs),
(406,656,o),
(324,680,o),
(324,761,cs),
(324,820,o),
(367,885,o),
(526,885,cs),
(643,885,o),
(731,850,o),
(793,810,c),
(879,959,l),
(823,997,o),
(708,1059,o),
(523,1059,cs),
(267,1059,o),
(111,941,o),
(111,746,cs),
(111,536,o),
(291,484,o),
(468,436,cs),
(606,398,o),
(692,373,o),
(692,285,cs),
(692,218,o),
(643,156,o),
(485,156,cs),
(351,156,o),
(247,201,o),
(170,253,c),
(85,100,l)
);
}
);
width = 988;
},
{
layerId = "0C6ED426-E59F-42BE-A2AF-648DBA17C507";
shapes = (
{
closed = 1;
nodes = (
(155,55,o),
(268,-22,o),
(457,-22,cs),
(670,-22,o),
(822,75,o),
(822,267,cs),
(822,463,o),
(663,509,o),
(495,557,cs),
(331,603,o),
(213,637,o),
(213,775,cs),
(213,897,o),
(304,980,o),
(479,980,cs),
(622,980,o),
(707,924,o),
(764,876,c),
(807,930,l),
(752,980,o),
(651,1049,o),
(482,1049,cs),
(271,1049,o),
(134,943,o),
(134,769,cs),
(134,578,o),
(300,534,o),
(458,490,cs),
(612,447,o),
(743,413,o),
(743,261,cs),
(743,109,o),
(612,50,o),
(458,50,cs),
(298,50,o),
(201,113,o),
(150,159,c),
(105,101,l)
);
}
);
width = 927;
},
{
layerId = "27ACF26B-8C89-4195-A22E-C9A713B2D4DA";
shapes = (
{
closed = 1;
nodes = (
(194,19,o),
(357,-25,o),
(537,-25,cs),
(830,-25,o),
(1033,92,o),
(1033,328,cs),
(1033,575,o),
(811,637,o),
(641,678,cs),
(505,711,o),
(468,714,o),
(468,752,cs),
(468,769,o),
(475,801,o),
(591,801,cs),
(692,801,o),
(782,777,o),
(882,742,c),
(997,991,l),
(870,1045,o),
(746,1079,o),
(587,1079,cs),
(286,1079,o),
(83,958,o),
(83,736,cs),
(83,506,o),
(299,440,o),
(461,398,cs),
(591,364,o),
(649,356,o),
(649,310,cs),
(649,298,o),
(645,261,o),
(525,261,cs),
(402,261,o),
(285,300,o),
(174,350,c),
(54,88,l)
);
}
);
width = 1088;
},
{
layerId = "758B6861-60C6-4092-9073-6CD691788EA2";
shapes = (
{
closed = 1;
nodes = (
(120,55,o),
(240,-22,o),
(419,-22,cs),
(638,-22,o),
(774,93,o),
(774,289,cs),
(774,502,o),
(614,558,o),
(473,609,cs),
(359,650,o),
(284,680,o),
(284,768,cs),
(284,832,o),
(324,896,o),
(452,896,cs),
(546,896,o),
(618,862,o),
(671,822,c),
(753,957,l),
(701,999,o),
(604,1059,o),
(446,1059,cs),
(230,1059,o),
(93,946,o),
(93,756,cs),
(93,551,o),
(250,496,o),
(387,445,cs),
(504,402,o),
(585,369,o),
(585,274,cs),
(585,206,o),
(543,145,o),
(415,145,cs),
(306,145,o),
(220,189,o),
(153,238,c),
(71,100,l)
);
}
);
width = 845;
},
{
layerId = "83D261EB-5180-4991-884D-E57EC90CAEFB";
shapes = (
{
closed = 1;
nodes = (
(157,54,o),
(312,-22,o),
(536,-22,cs),
(815,-22,o),
(982,96,o),
(982,296,cs),
(982,516,o),
(779,574,o),
(593,620,cs),
(439,658,o),
(345,681,o),
(345,758,cs),
(345,815,o),
(396,878,o),
(571,878,cs),
(704,878,o),
(800,842,o),
(866,802,c),
(954,958,l),
(893,999,o),
(764,1059,o),
(566,1059,cs),
(291,1059,o),
(124,944,o),
(124,747,cs),
(124,536,o),
(317,481,o),
(514,433,cs),
(666,396,o),
(764,372,o),
(764,288,cs),
(764,224,o),
(706,163,o),
(532,163,cs),
(380,163,o),
(268,210,o),
(185,262,c),
(99,102,l)
);
}
);
width = 1078;
},
{
layerId = "DCA03E4F-A7C4-4A27-9237-642BF2693270";
shapes = (
{
closed = 1;
nodes = (
(166,49,o),
(312,-30,o),
(538,-30,cs),
(826,-30,o),
(987,98,o),
(987,316,cs),
(987,555,o),
(795,611,o),
(602,664,cs),
(439,709,o),
(362,728,o),
(362,814,cs),
(362,874,o),
(399,939,o),
(581,939,cs),
(715,939,o),
(804,905,o),
(872,864,c),
(964,1031,l),
(903,1072,o),
(784,1135,o),
(579,1135,cs),
(290,1135,o),
(133,1008,o),
(133,795,cs),
(133,565,o),
(316,515,o),
(519,460,cs),
(677,417,o),
(761,395,o),
(761,302,cs),
(761,234,o),
(716,171,o),
(537,171,cs),
(386,171,o),
(279,216,o),
(197,272,c),
(105,99,l)
);
}
);
width = 1092;
},
{
layerId = "5A3B0B44-0D2D-4186-9E39-19797E3BFD87";
shapes = (
{
closed = 1;
nodes = (
(128,50,o),
(258,-25,o),
(447,-25,cs),
(681,-25,o),
(831,90,o),
(831,284,cs),
(831,493,o),
(657,546,o),
(501,593,cs),
(368,633,o),
(295,657,o),
(295,739,cs),
(295,802,o),
(339,864,o),
(482,864,cs),
(591,864,o),
(670,828,o),
(727,789,c),
(809,927,l),
(757,965,o),
(651,1026,o),
(480,1026,cs),
(245,1026,o),
(99,911,o),
(99,722,cs),
(99,523,o),
(262,474,o),
(429,425,cs),
(556,388,o),
(637,361,o),
(637,270,cs),
(637,198,o),
(588,141,o),
(446,141,cs),
(321,141,o),
(227,186,o),
(156,236,c),
(75,94,l)
);
}
);
width = 906;
}
);
unicode = 115;
userData = {
com.typemytype.robofont.mark = (
0.656,
1,
0.6,
1
);
};
},
{
glyphname = t;
lastChange = "2017-11-16 23:22:27 +0000";
layers = (
{
layerId = "0FCA90BE-146C-409C-AA6F-2BDBAA20F869";
shapes = (
{
closed = 1;
nodes = (
(185,89,o),
(281,-22,o),
(499,-22,cs),
(582,-22,o),
(664,-6,o),
(738,28,c),
(686,189,l),
(636,171,o),
(583,161,o),
(537,161,cs),
(453,161,o),
(402,194,o),
(402,311,cs),
(402,1303,l),
(382,1303,o),
(362,1303,o),
(342,1303,c),
(196,1303,o),
(185,1213,o),
(185,1145,cs),
(185,299,ls)
);
},
{
closed = 1;
nodes = (
(692,840,l),
(692,1018,l),
(52,1018,l),
(52,840,l)
);
}
);
width = 763;
},
{
layerId = "0C6ED426-E59F-42BE-A2AF-648DBA17C507";
shapes = (
{
closed = 1;
nodes = (
(210,80,o),
(262,-22,o),
(443,-22,cs),
(503,-22,o),
(568,-11,o),
(630,19,c),
(611,79,l),
(545,56,o),
(490,47,o),
(440,47,cs),
(345,47,o),
(286,79,o),
(286,224,c),
(286,1297,l),
(281,1297,o),
(277,1297,o),
(272,1297,c),
(223,1297,o),
(210,1259,o),
(210,1213,cs),
(210,224,ls)
);
},
{
closed = 1;
nodes = (
(597,947,l),
(597,1017,l),
(80,1017,l),
(80,947,l)
);
}
);
width = 660;
},
{
layerId = "27ACF26B-8C89-4195-A22E-C9A713B2D4DA";
shapes = (
{
closed = 1;
nodes = (
(150,89,o),
(340,-25,o),
(618,-25,cs),
(726,-25,o),
(827,-8,o),
(910,29,c),
(817,319,l),
(781,309,o),
(747,303,o),
(716,303,cs),
(639,303,o),
(582,339,o),
(582,444,cs),
(582,1341,l),
(522,1341,o),
(463,1341,o),
(403,1341,cs),
(164,1341,o),
(150,1241,o),
(150,1080,cs),
(150,429,ls)
);
},
{
closed = 1;
nodes = (
(854,721,l),
(854,1022,l),
(10,1022,l),
(10,721,l)
);
}
);
width = 930;
},
{
layerId = "758B6861-60C6-4092-9073-6CD691788EA2";
shapes = (
{
closed = 1;
nodes = (
(156,82,o),
(240,-22,o),
(429,-22,cs),
(499,-22,o),
(570,-8,o),
(634,26,c),
(587,176,l),
(547,158,o),
(502,149,o),
(464,149,cs),
(394,149,o),
(354,178,o),
(354,290,cs),
(354,1303,l),
(335,1303,o),
(316,1303,o),
(297,1303,cs),
(168,1303,o),
(156,1210,o),
(156,1141,cs),
(156,279,ls)
);
},
{
closed = 1;
nodes = (
(594,855,l),
(594,1020,l),
(43,1020,l),
(43,855,l)
);
}
);
width = 655;
},
{
layerId = "83D261EB-5180-4991-884D-E57EC90CAEFB";
shapes = (
{
closed = 1;
nodes = (
(205,89,o),
(305,-22,o),
(541,-22,cs),
(631,-22,o),
(716,-6,o),
(797,28,c),
(746,198,l),
(690,181,o),
(630,171,o),
(579,171,cs),
(485,171,o),
(430,204,o),
(430,320,cs),
(430,1303,l),
(411,1303,o),
(391,1303,o),
(372,1303,cs),
(217,1303,o),
(205,1212,o),
(205,1138,cs),
(205,308,ls)
);
},
{
closed = 1;
nodes = (
(751,835,l),
(751,1018,l),
(59,1018,l),
(59,835,l)
);
}
);
width = 828;
},
{
layerId = "DCA03E4F-A7C4-4A27-9237-642BF2693270";
shapes = (
{
closed = 1;
nodes = (
(208,82,o),
(305,-30,o),
(548,-30,cs),
(640,-30,o),
(724,-14,o),
(804,23,c),
(748,206,l),
(694,187,o),
(641,178,o),
(587,178,cs),
(490,178,o),
(440,207,o),
(440,338,cs),
(440,1397,l),
(392,1397,o),
(345,1397,o),
(297,1397,cs),
(214,1397,o),
(208,1345,o),
(208,1301,cs),
(208,325,ls)
);
},
{
closed = 1;
nodes = (
(754,889,l),
(754,1085,l),
(65,1085,l),
(65,889,l)
);
}
);
width = 844;
},
{
layerId = "5A3B0B44-0D2D-4186-9E39-19797E3BFD87";
shapes = (
{
closed = 1;
nodes = (
(164,84,o),
(254,-25,o),
(455,-25,cs),
(530,-25,o),
(603,-10,o),
(672,22,c),
(624,171,l),
(578,153,o),
(530,143,o),
(489,143,cs),
(414,143,o),
(365,177,o),
(365,295,cs),
(365,1285,l),
(345,1288,o),
(326,1290,o),
(307,1290,cs),
(183,1290,o),
(164,1209,o),
(164,1132,cs),
(164,284,ls)
);
},
{
closed = 1;
nodes = (
(628,839,l),
(628,1001,l),
(40,1001,l),
(40,839,l)
);
}
);
width = 690;
}
);
unicode = 116;
userData = {
com.typemytype.robofont.mark = (
1,
0.826,
0.6,
1
);
};
},
{
glyphname = u;
lastChange = "2017-11-16 23:22:27 +0000";
layers = (
{
layerId = "0FCA90BE-146C-409C-AA6F-2BDBAA20F869";
shapes = (
{
closed = 1;
nodes = (
(858,82,o),
(865,0,o),
(984,0,cs),
(1011,0,o),
(1038,0,o),
(1065,0,c),
(1065,1032,l),
(848,1032,l),
(848,352,l),
(858,192,l),
(858,131,ls)
);
},
{
closed = 1;
nodes = (
(165,245,o),
(176,-22,o),
(500,-22,cs),
(650,-22,o),
(767,35,o),
(848,162,c),
(872,162,l),
(854,389,l),
(803,237,o),
(693,165,o),
(568,165,cs),
(387,165,o),
(383,325,o),
(383,424,cs),
(383,1032,l),
(165,1032,l),
(165,407,ls)
);
}
);
width = 1240;
},
{
layerId = "0C6ED426-E59F-42BE-A2AF-648DBA17C507";
shapes = (
{
closed = 1;
nodes = (
(893,37,o),
(901,0,o),
(946,0,cs),
(955,0,o),
(962,0,o),
(969,0,c),
(969,1027,l),
(893,1027,l),
(893,278,l),
(893,200,l),
(893,82,ls)
);
},
{
closed = 1;
nodes = (
(195,245,o),
(198,-22,o),
(512,-22,cs),
(652,-22,o),
(788,31,o),
(889,177,c),
(905,177,l),
(899,315,l),
(838,156,o),
(692,49,o),
(520,49,cs),
(276,49,o),
(271,263,o),
(271,403,cs),
(271,1027,l),
(195,1027,l),
(195,397,ls)
);
}
);
width = 1174;
},
{
layerId = "27ACF26B-8C89-4195-A22E-C9A713B2D4DA";
shapes = (
{
closed = 1;
nodes = (
(824,116,o),
(824,0,o),
(1008,0,cs),
(1079,0,o),
(1149,0,o),
(1220,0,c),
(1220,1044,l),
(788,1044,l),
(788,380,l),
(824,150,l),
(824,127,ls)
);
},
{
closed = 1;
nodes = (
(130,219,o),
(162,-25,o),
(488,-25,cs),
(618,-25,o),
(732,14,o),
(812,148,c),
(829,148,l),
(791,442,l),
(781,363,o),
(724,315,o),
(652,315,cs),
(564,315,o),
(562,384,o),
(562,426,cs),
(562,1044,l),
(130,1044,l),
(130,384,ls)
);
}
);
width = 1360;
},
{
layerId = "758B6861-60C6-4092-9073-6CD691788EA2";
shapes = (
{
closed = 1;
nodes = (
(725,77,o),
(731,0,o),
(839,0,cs),
(864,0,o),
(888,0,o),
(913,0,c),
(913,1032,l),
(716,1032,l),
(716,345,l),
(725,193,l),
(725,126,ls)
);
},
{
closed = 1;
nodes = (
(138,238,o),
(149,-22,o),
(426,-22,cs),
(553,-22,o),
(649,33,o),
(716,156,c),
(737,156,l),
(721,374,l),
(681,232,o),
(593,152,o),
(488,152,cs),
(339,152,o),
(336,311,o),
(336,412,cs),
(336,1032,l),
(138,1032,l),
(138,397,ls)
);
}
);
width = 1060;
},
{
layerId = "83D261EB-5180-4991-884D-E57EC90CAEFB";
shapes = (
{
closed = 1;
nodes = (
(948,84,o),
(956,0,o),
(1083,0,cs),
(1109,0,o),
(1136,0,o),
(1163,0,c),
(1163,1032,l),
(939,1032,l),
(939,354,l),
(948,189,l),
(948,131,ls)
);
},
{
closed = 1;
nodes = (
(184,243,o),
(195,-22,o),
(552,-22,cs),
(718,-22,o),
(849,35,o),
(938,162,c),
(964,162,l),
(945,392,l),
(886,245,o),
(762,174,o),
(621,174,cs),
(414,174,o),
(410,328,o),
(410,424,cs),
(410,1032,l),
(184,1032,l),
(184,405,ls)
);
}
);
width = 1358;
},
{
layerId = "DCA03E4F-A7C4-4A27-9237-642BF2693270";
shapes = (
{
closed = 1;
nodes = (
(943,38,o),
(946,0,o),
(999,0,cs),
(1055,0,o),
(1110,0,o),
(1164,0,c),
(1164,1105,l),
(930,1115,l),
(930,373,l),
(943,196,l),
(943,59,ls)
);
},
{
closed = 1;
nodes = (
(192,243,o),
(200,-30,o),
(561,-30,cs),
(731,-30,o),
(851,31,o),
(929,176,c),
(955,176,l),
(937,425,l),
(879,252,o),
(768,182,o),
(631,182,cs),
(426,182,o),
(426,339,o),
(426,448,cs),
(426,1105,l),
(192,1105,l),
(192,428,ls)
);
}
);
width = 1366;
},
{
layerId = "5A3B0B44-0D2D-4186-9E39-19797E3BFD87";
shapes = (
{
closed = 1;
nodes = (
(788,52,o),
(814,-3,o),
(915,-3,cs),
(934,-3,o),
(956,-1,o),
(980,3,c),
(980,1001,l),
(778,1001,l),
(778,336,l),
(788,187,l),
(788,123,ls)
);
},
{
closed = 1;
nodes = (
(148,235,o),
(161,-25,o),
(458,-25,cs),
(595,-25,o),
(706,30,o),
(780,158,c),
(803,158,l),
(784,368,l),
(737,220,o),
(635,147,o),
(523,147,cs),
(357,147,o),
(350,307,o),
(350,406,cs),
(350,1001,l),
(148,1001,l),
(148,390,ls)
);
}
);
width = 1138;
}
);
unicode = 117;
userData = {
com.typemytype.robofont.mark = (
0.656,
1,
0.6,
1
);
};
},
{
glyphname = v;
lastChange = "2017-11-16 23:22:27 +0000";
layers = (
{
layerId = "0FCA90BE-146C-409C-AA6F-2BDBAA20F869";
shapes = (
{
closed = 1;
nodes = (
(643,0,l),
(1031,1032,l),
(809,1032,l),
(591,398,ls),
(566,324,o),
(540,250,o),
(515,176,c),
(558,229,l),
(502,229,l),
(544,176,l),
(518,250,o),
(493,324,o),
(467,398,cs),
(248,1032,l),
(17,1032,l),
(399,0,l)
);
}
);
width = 1045;
},
{
layerId = "0C6ED426-E59F-42BE-A2AF-648DBA17C507";
shapes = (
{
closed = 1;
nodes = (
(513,0,l),
(888,1027,l),
(804,1027,l),
(545,299,ls),
(515,215,o),
(484,130,o),
(454,46,c),
(474,72,l),
(450,72,l),
(470,46,l),
(440,131,o),
(411,215,o),
(381,300,cs),
(126,1027,l),
(40,1027,l),
(408,0,l)
);
}
);
width = 924;
},
{
layerId = "27ACF26B-8C89-4195-A22E-C9A713B2D4DA";
shapes = (
{
closed = 1;
nodes = (
(845,0,l),
(1238,1044,l),
(820,1044,l),
(664,476,ls),
(646,412,o),
(629,346,o),
(610,281,c),
(688,379,l),
(584,379,l),
(659,281,l),
(640,345,o),
(621,409,o),
(601,476,cs),
(435,1044,l),
(1,1044,l),
(390,0,l)
);
}
);
width = 1237;
},
{
layerId = "758B6861-60C6-4092-9073-6CD691788EA2";
shapes = (
{
closed = 1;
nodes = (
(556,0,l),
(886,1032,l),
(686,1032,l),
(505,381,ls),
(484,306,o),
(464,229,o),
(442,134,c),
(480,195,l),
(430,195,l),
(466,134,l),
(443,230,o),
(423,306,o),
(402,381,cs),
(220,1032,l),
(12,1032,l),
(337,0,l)
);
}
);
width = 895;
},
{
layerId = "83D261EB-5180-4991-884D-E57EC90CAEFB";
shapes = (
{
closed = 1;
nodes = (
(690,0,l),
(1116,1032,l),
(885,1032,l),
(640,394,ls),
(612,321,o),
(583,247,o),
(555,174,c),
(600,230,l),
(547,230,l),
(591,174,l),
(562,247,o),
(532,320,o),
(504,394,cs),
(260,1032,l),
(19,1032,l),
(438,0,l)
);
}
);
width = 1132;
},
{
layerId = "DCA03E4F-A7C4-4A27-9237-642BF2693270";
shapes = (
{
closed = 1;
nodes = (
(708,0,l),
(1127,1105,l),
(889,1105,l),
(654,428,ls),
(627,350,o),
(601,266,o),
(580,178,c),
(617,230,l),
(556,230,l),
(592,178,l),
(569,266,o),
(544,350,o),
(517,428,cs),
(281,1105,l),
(33,1105,l),
(446,0,l)
);
}
);
width = 1157;
},
{
layerId = "5A3B0B44-0D2D-4186-9E39-19797E3BFD87";
shapes = (
{
closed = 1;
nodes = (
(591,0,l),
(950,1001,l),
(745,1001,l),
(543,369,ls),
(520,297,o),
(496,224,o),
(473,152,c),
(513,201,l),
(461,201,l),
(500,152,l),
(476,224,o),
(453,297,o),
(429,370,cs),
(226,1001,l),
(13,1001,l),
(365,0,l)
);
}
);
width = 960;
}
);
unicode = 118;
userData = {
com.typemytype.robofont.mark = (
0.656,
1,
0.6,
1
);
};
},
{
glyphname = w;
lastChange = "2017-11-16 23:22:27 +0000";
layers = (
{
layerId = "0FCA90BE-146C-409C-AA6F-2BDBAA20F869";
shapes = (
{
closed = 1;
nodes = (
(597,0,l),
(766,569,ls),
(789,645,o),
(811,721,o),
(834,797,c),
(809,763,l),
(845,763,l),
(821,797,l),
(843,721,o),
(866,645,o),
(888,569,cs),
(1055,0,l),
(1309,0,l),
(1619,1032,l),
(1392,1032,l),
(1226,379,ls),
(1211,321,o),
(1197,264,o),
(1182,206,c),
(1213,242,l),
(1165,242,l),
(1197,206,l),
(1180,264,o),
(1163,322,o),
(1146,380,cs),
(959,1020,l),
(709,1020,l),
(522,380,ls),
(505,322,o),
(488,264,o),
(471,206,c),
(501,242,l),
(457,242,l),
(483,206,l),
(469,264,o),
(454,321,o),
(440,379,cs),
(278,1032,l),
(43,1032,l),
(346,0,l)
);
}
);
width = 1659;
},
{
layerId = "0C6ED426-E59F-42BE-A2AF-648DBA17C507";
shapes = (
{
closed = 1;
nodes = (
(471,0,l),
(678,702,ls),
(706,796,o),
(733,889,o),
(760,983,c),
(724,924,l),
(765,924,l),
(728,983,l),
(755,890,o),
(782,796,o),
(809,703,cs),
(1014,0,l),
(1125,0,l),
(1436,1027,l),
(1355,1027,l),
(1121,236,ls),
(1100,167,o),
(1080,97,o),
(1059,28,c),
(1083,74,l),
(1059,74,l),
(1084,28,l),
(1064,98,o),
(1043,169,o),
(1023,239,cs),
(798,1017,l),
(695,1017,l),
(466,239,ls),
(445,169,o),
(425,98,o),
(404,28,c),
(428,74,l),
(404,74,l),
(428,28,l),
(408,97,o),
(388,167,o),
(369,236,cs),
(148,1027,l),
(63,1027,l),
(360,0,l)
);
}
);
width = 1490;
},
{
layerId = "27ACF26B-8C89-4195-A22E-C9A713B2D4DA";
shapes = (
{
closed = 1;
nodes = (
(789,0,l),
(897,570,ls),
(911,643,o),
(926,717,o),
(941,790,c),
(893,668,l),
(971,668,l),
(899,790,l),
(914,717,o),
(931,644,o),
(946,570,cs),
(1063,0,l),
(1522,0,l),
(1821,1044,l),
(1407,1044,l),
(1315,461,ls),
(1307,411,o),
(1298,362,o),
(1290,312,c),
(1338,364,l),
(1254,364,l),
(1299,312,l),
(1288,363,o),
(1278,412,o),
(1267,461,cs),
(1147,1029,l),
(727,1029,l),
(618,461,ls),
(608,411,o),
(599,362,o),
(589,312,c),
(633,364,l),
(559,364,l),
(597,312,l),
(588,362,o),
(580,411,o),
(571,461,cs),
(472,1044,l),
(43,1044,l),
(321,0,l)
);
}
);
width = 1855;
},
{
layerId = "758B6861-60C6-4092-9073-6CD691788EA2";
shapes = (
{
closed = 1;
nodes = (
(517,0,l),
(656,591,ls),
(675,671,o),
(693,749,o),
(713,847,c),
(693,814,l),
(723,814,l),
(704,847,l),
(723,749,o),
(742,670,o),
(760,592,cs),
(898,0,l),
(1126,0,l),
(1388,1032,l),
(1182,1032,l),
(1048,357,ls),
(1036,298,o),
(1024,218,o),
(1012,159,c),
(1040,206,l),
(997,206,l),
(1026,159,l),
(1012,219,o),
(997,299,o),
(983,359,cs),
(829,1020,l),
(601,1020,l),
(447,359,ls),
(433,299,o),
(419,239,o),
(404,159,c),
(431,206,l),
(391,206,l),
(416,159,l),
(403,238,o),
(391,298,o),
(380,357,cs),
(249,1032,l),
(35,1032,l),
(291,0,l)
);
}
);
width = 1420;
},
{
layerId = "83D261EB-5180-4991-884D-E57EC90CAEFB";
shapes = (
{
closed = 1;
nodes = (
(642,0,l),
(832,582,ls),
(857,658,o),
(883,733,o),
(909,809,c),
(883,769,l),
(919,769,l),
(890,809,l),
(915,733,o),
(940,659,o),
(965,582,cs),
(1153,0,l),
(1417,0,l),
(1757,1032,l),
(1522,1032,l),
(1334,366,ls),
(1317,308,o),
(1301,252,o),
(1284,195,c),
(1317,232,l),
(1268,232,l),
(1302,195,l),
(1283,252,o),
(1264,309,o),
(1245,367,cs),
(1034,1020,l),
(774,1020,l),
(565,367,ls),
(546,309,o),
(527,252,o),
(508,195,c),
(540,232,l),
(495,232,l),
(523,195,l),
(508,252,o),
(491,308,o),
(475,366,cs),
(292,1032,l),
(48,1032,l),
(382,0,l)
);
}
);
width = 1802;
},
{
layerId = "DCA03E4F-A7C4-4A27-9237-642BF2693270";
shapes = (
{
closed = 1;
nodes = (
(655,0,l),
(825,585,ls),
(856,690,o),
(885,803,o),
(907,928,c),
(885,887,l),
(924,887,l),
(904,928,l),
(925,803,o),
(954,689,o),
(984,585,cs),
(1152,0,l),
(1423,0,l),
(1758,1105,l),
(1515,1105,l),
(1351,460,ls),
(1321,343,o),
(1309,267,o),
(1297,186,c),
(1321,229,l),
(1268,229,l),
(1295,186,l),
(1281,267,o),
(1266,344,o),
(1232,460,cs),
(1047,1090,l),
(778,1090,l),
(594,460,ls),
(560,343,o),
(543,267,o),
(530,186,c),
(554,229,l),
(506,229,l),
(528,186,l),
(517,267,o),
(501,343,o),
(472,460,cs),
(313,1105,l),
(60,1105,l),
(388,0,l)
);
}
);
width = 1815;
},
{
layerId = "5A3B0B44-0D2D-4186-9E39-19797E3BFD87";
shapes = (
{
closed = 1;
nodes = (
(547,0,l),
(702,574,ls),
(723,649,o),
(743,724,o),
(764,799,c),
(741,767,l),
(774,767,l),
(752,799,l),
(773,724,o),
(794,649,o),
(814,574,cs),
(967,0,l),
(1201,0,l),
(1487,1001,l),
(1279,1001,l),
(1126,346,ls),
(1113,289,o),
(1100,232,o),
(1086,175,c),
(1113,209,l),
(1069,209,l),
(1098,175,l),
(1083,232,o),
(1066,290,o),
(1051,347,cs),
(879,989,l),
(652,989,l),
(477,347,ls),
(462,290,o),
(446,232,o),
(430,175,c),
(458,209,l),
(417,209,l),
(441,175,l),
(428,232,o),
(414,289,o),
(401,346,cs),
(252,1001,l),
(37,1001,l),
(315,0,l)
);
}
);
width = 1520;
}
);
unicode = 119;
userData = {
com.typemytype.robofont.guides = (
{
angle = 0;
isGlobal = 0;
magnetic = 5;
x = 0;
y = 273;
},
{
angle = 74.49;
isGlobal = 0;
magnetic = 5;
x = 590;
y = 0;
},
{
angle = 105.91;
isGlobal = 0;
magnetic = 5;
x = 1188;
y = 0;
}
);
com.typemytype.robofont.mark = (
0.656,
1,
0.6,
1
);
};
},
{
glyphname = x;
lastChange = "2017-11-16 23:22:27 +0000";
layers = (
{
layerId = "0FCA90BE-146C-409C-AA6F-2BDBAA20F869";
shapes = (
{
closed = 1;
nodes = (
(262,0,l),
(507,401,l),
(627,506,l),
(978,1032,l),
(736,1032,l),
(504,654,l),
(383,546,l),
(20,0,l)
);
},
{
closed = 1;
nodes = (
(997,0,l),
(535,674,l),
(509,674,l),
(286,1032,l),
(37,1032,l),
(469,380,l),
(501,380,l),
(747,0,l)
);
}
);
width = 1017;
},
{
layerId = "0C6ED426-E59F-42BE-A2AF-648DBA17C507";
shapes = (
{
closed = 1;
nodes = (
(120,0,l),
(462,506,l),
(476,506,l),
(840,1027,l),
(745,1027,l),
(416,547,l),
(405,547,l),
(25,0,l)
);
},
{
closed = 1;
nodes = (
(853,0,l),
(447,588,l),
(441,588,l),
(134,1027,l),
(44,1027,l),
(429,464,l),
(436,464,l),
(759,0,l)
);
}
);
width = 878;
},
{
layerId = "27ACF26B-8C89-4195-A22E-C9A713B2D4DA";
shapes = (
{
closed = 1;
nodes = (
(470,0,l),
(639,321,l),
(858,469,l),
(1248,1044,l),
(793,1044,l),
(631,732,l),
(414,578,l),
(15,0,l)
);
},
{
closed = 1;
nodes = (
(1257,0,l),
(692,789,l),
(651,789,l),
(502,1044,l),
(32,1044,l),
(580,273,l),
(625,273,l),
(788,0,l)
);
}
);
width = 1272;
},
{
layerId = "758B6861-60C6-4092-9073-6CD691788EA2";
shapes = (
{
closed = 1;
nodes = (
(231,0,l),
(437,416,l),
(548,506,l),
(843,1032,l),
(628,1032,l),
(435,640,l),
(323,546,l),
(17,0,l)
);
},
{
closed = 1;
nodes = (
(860,0,l),
(464,661,l),
(442,661,l),
(253,1032,l),
(32,1032,l),
(401,394,l),
(429,394,l),
(638,0,l)
);
}
);
width = 876;
},
{
layerId = "83D261EB-5180-4991-884D-E57EC90CAEFB";
shapes = (
{
closed = 1;
nodes = (
(280,0,l),
(553,403,l),
(676,503,l),
(1064,1032,l),
(807,1032,l),
(548,651,l),
(424,548,l),
(22,0,l)
);
},
{
closed = 1;
nodes = (
(1091,0,l),
(579,673,l),
(555,673,l),
(302,1032,l),
(38,1032,l),
(515,382,l),
(546,382,l),
(822,0,l)
);
}
);
width = 1108;
},
{
layerId = "DCA03E4F-A7C4-4A27-9237-642BF2693270";
shapes = (
{
closed = 1;
nodes = (
(294,0,l),
(557,426,l),
(685,538,l),
(1069,1105,l),
(809,1105,l),
(559,702,l),
(429,587,l),
(35,0,l)
);
},
{
closed = 1;
nodes = (
(1088,0,l),
(587,725,l),
(559,725,l),
(318,1105,l),
(51,1105,l),
(522,401,l),
(555,401,l),
(819,0,l)
);
}
);
width = 1123;
},
{
layerId = "5A3B0B44-0D2D-4186-9E39-19797E3BFD87";
shapes = (
{
closed = 1;
nodes = (
(238,0,l),
(465,397,l),
(577,491,l),
(901,1001,l),
(678,1001,l),
(463,626,l),
(350,530,l),
(15,0,l)
);
},
{
closed = 1;
nodes = (
(918,0,l),
(492,649,l),
(470,649,l),
(260,1001,l),
(31,1001,l),
(431,377,l),
(460,377,l),
(688,0,l)
);
}
);
width = 933;
}
);
unicode = 120;
userData = {
com.typemytype.robofont.guides = (
{
angle = 0;
isGlobal = 0;
magnetic = 5;
x = 0;
y = 717;
}
);
com.typemytype.robofont.mark = (
0.656,
1,
0.6,
1
);
};
},
{
glyphname = y;
lastChange = "2017-11-16 23:22:27 +0000";
layers = (
{
layerId = "0FCA90BE-146C-409C-AA6F-2BDBAA20F869";
shapes = (
{
closed = 1;
nodes = (
(4,-406,l),
(92,-440,o),
(162,-448,o),
(221,-448,cs),
(448,-448,o),
(529,-332,o),
(669,47,cs),
(1031,1032,l),
(811,1032,l),
(578,343,ls),
(565,304,o),
(552,265,o),
(539,226,c),
(496,113,l),
(452,-3,ls),
(367,-225,o),
(308,-275,o),
(205,-275,cs),
(159,-275,o),
(112,-265,o),
(56,-248,c)
);
},
{
closed = 1;
nodes = (
(468,0,l),
(554,226,l),
(527,226,l),
(514,265,o),
(500,304,o),
(487,343,cs),
(250,1032,l),
(19,1032,l),
(396,0,l)
);
}
);
width = 1049;
},
{
layerId = "0C6ED426-E59F-42BE-A2AF-648DBA17C507";
shapes = (
{
closed = 1;
nodes = (
(4,-414,l),
(66,-439,o),
(114,-445,o),
(155,-445,cs),
(308,-445,o),
(378,-362,o),
(476,-97,cs),
(890,1027,l),
(806,1027,l),
(511,215,ls),
(495,171,o),
(478,125,o),
(462,80,c),
(446,36,l),
(399,-89,ls),
(319,-305,o),
(264,-376,o),
(154,-376,cs),
(122,-376,o),
(79,-370,o),
(28,-351,c)
);
},
{
closed = 1;
nodes = (
(438,0,l),
(471,80,l),
(459,80,l),
(443,126,o),
(426,172,o),
(410,217,cs),
(124,1027,l),
(39,1027,l),
(408,0,l)
);
}
);
width = 924;
},
{
layerId = "27ACF26B-8C89-4195-A22E-C9A713B2D4DA";
shapes = (
{
closed = 1;
nodes = (
(14,-393,l),
(141,-438,o),
(239,-449,o),
(329,-449,cs),
(659,-449,o),
(766,-299,o),
(954,231,cs),
(1243,1044,l),
(825,1044,l),
(667,470,ls),
(658,438,o),
(649,406,o),
(640,374,c),
(579,226,l),
(512,49,ls),
(450,-113,o),
(395,-145,o),
(289,-145,cs),
(219,-145,o),
(164,-131,o),
(102,-112,c)
);
},
{
closed = 1;
nodes = (
(525,0,l),
(682,374,l),
(632,374,l),
(622,406,o),
(613,438,o),
(603,470,cs),
(435,1044,l),
(2,1044,l),
(389,0,l)
);
}
);
width = 1252;
},
{
layerId = "758B6861-60C6-4092-9073-6CD691788EA2";
shapes = (
{
closed = 1;
nodes = (
(2,-403,l),
(79,-436,o),
(140,-444,o),
(195,-444,cs),
(389,-444,o),
(471,-343,o),
(583,31,cs),
(884,1032,l),
(688,1032,l),
(496,323,ls),
(492,308,o),
(471,230,o),
(461,189,c),
(424,105,l),
(387,-12,ls),
(316,-236,o),
(264,-282,o),
(178,-282,cs),
(138,-282,o),
(99,-272,o),
(52,-256,c)
);
},
{
closed = 1;
nodes = (
(402,0,l),
(474,189,l),
(454,189,l),
(443,233,o),
(432,273,o),
(418,323,cs),
(223,1032,l),
(14,1032,l),
(335,0,l)
);
}
);
width = 903;
},
{
layerId = "83D261EB-5180-4991-884D-E57EC90CAEFB";
shapes = (
{
closed = 1;
nodes = (
(8,-405,l),
(102,-440,o),
(177,-448,o),
(240,-448,cs),
(483,-448,o),
(570,-330,o),
(730,59,cs),
(1131,1032,l),
(896,1032,l),
(634,347,ls),
(619,309,o),
(605,270,o),
(590,232,c),
(543,121,l),
(498,1,ls),
(403,-217,o),
(337,-266,o),
(224,-266,cs),
(175,-266,o),
(124,-256,o),
(63,-239,c)
);
},
{
closed = 1;
nodes = (
(516,0,l),
(607,232,l),
(576,232,l),
(561,270,o),
(546,309,o),
(531,347,cs),
(265,1032,l),
(19,1032,l),
(439,0,l)
);
}
);
width = 1147;
},
{
layerId = "DCA03E4F-A7C4-4A27-9237-642BF2693270";
shapes = (
{
closed = 1;
nodes = (
(19,-434,l),
(114,-471,o),
(189,-480,o),
(253,-480,cs),
(497,-480,o),
(578,-351,o),
(735,65,cs),
(1127,1105,l),
(891,1105,l),
(638,373,ls),
(624,332,o),
(607,277,o),
(596,236,c),
(547,120,l),
(503,1,ls),
(416,-235,o),
(347,-284,o),
(236,-284,cs),
(186,-284,o),
(136,-273,o),
(75,-255,c)
);
},
{
closed = 1;
nodes = (
(520,0,l),
(611,236,l),
(582,236,l),
(571,277,o),
(554,332,o),
(540,373,cs),
(283,1105,l),
(36,1105,l),
(445,0,l)
);
}
);
width = 1158;
},
{
layerId = "5A3B0B44-0D2D-4186-9E39-19797E3BFD87";
shapes = (
{
closed = 1;
nodes = (
(-4,-417,l),
(75,-451,o),
(141,-459,o),
(195,-459,cs),
(400,-459,o),
(489,-341,o),
(608,6,cs),
(950,1001,l),
(748,1001,l),
(533,318,ls),
(523,285,o),
(509,241,o),
(493,195,c),
(452,89,l),
(412,-28,ls),
(334,-256,o),
(267,-300,o),
(180,-300,cs),
(139,-300,o),
(95,-290,o),
(44,-272,c)
);
},
{
closed = 1;
nodes = (
(431,0,l),
(513,195,l),
(487,195,l),
(462,270,o),
(450,309,o),
(447,318,cs),
(228,1001,l),
(15,1001,l),
(364,0,l)
);
}
);
width = 967;
}
);
unicode = 121;
userData = {
com.typemytype.robofont.mark = (
0.656,
1,
0.6,
1
);
};
},
{
glyphname = z;
lastChange = "2017-11-16 23:22:27 +0000";
layers = (
{
layerId = "0FCA90BE-146C-409C-AA6F-2BDBAA20F869";
shapes = (
{
closed = 1;
nodes = (
(948,0,l),
(948,185,l),
(554,185,ls),
(498,185,o),
(373,185,o),
(317,185,c),
(349,182,l),
(343,193,l),
(325,164,l),
(367,213,o),
(428,284,o),
(470,333,cs),
(921,857,l),
(921,1032,l),
(72,1032,l),
(72,847,l),
(442,847,ls),
(495,847,o),
(613,847,o),
(666,847,c),
(636,851,l),
(641,841,l),
(659,866,l),
(622,822,o),
(569,760,o),
(531,716,cs),
(65,175,l),
(65,0,l)
);
}
);
width = 1013;
},
{
layerId = "0C6ED426-E59F-42BE-A2AF-648DBA17C507";
shapes = (
{
closed = 1;
nodes = (
(866,0,l),
(866,69,l),
(411,69,ls),
(346,69,o),
(206,69,o),
(141,69,c),
(172,62,l),
(166,74,l),
(152,47,l),
(201,113,o),
(267,200,o),
(316,266,cs),
(838,963,l),
(838,1027,l),
(81,1027,l),
(81,958,l),
(508,958,ls),
(570,958,o),
(696,958,o),
(758,958,c),
(737,965,l),
(742,954,l),
(751,973,l),
(708,915,o),
(653,842,o),
(610,784,cs),
(70,64,l),
(70,0,l)
);
}
);
width = 936;
},
{
layerId = "27ACF26B-8C89-4195-A22E-C9A713B2D4DA";
shapes = (
{
closed = 1;
nodes = (
(1062,0,l),
(1062,311,l),
(721,311,ls),
(673,311,o),
(624,311,o),
(576,311,c),
(624,303,l),
(616,324,l),
(589,285,l),
(622,320,o),
(654,354,o),
(687,389,cs),
(1035,757,l),
(1035,1044,l),
(67,1044,l),
(67,733,l),
(383,733,ls),
(429,733,o),
(474,733,o),
(520,733,c),
(481,738,l),
(488,723,l),
(511,754,l),
(481,723,o),
(452,693,o),
(422,662,cs),
(60,286,l),
(60,0,l)
);
}
);
width = 1122;
},
{
layerId = "758B6861-60C6-4092-9073-6CD691788EA2";
shapes = (
{
closed = 1;
nodes = (
(808,0,l),
(808,170,l),
(476,170,ls),
(428,170,o),
(333,169,o),
(276,167,c),
(300,163,l),
(294,178,l),
(279,151,l),
(326,212,o),
(370,272,o),
(405,323,cs),
(786,873,l),
(786,1032,l),
(61,1032,l),
(61,862,l),
(374,862,ls),
(420,862,o),
(512,863,o),
(566,865,c),
(542,869,l),
(548,854,l),
(563,881,l),
(522,827,o),
(481,773,o),
(449,726,cs),
(56,158,l),
(56,0,l)
);
}
);
width = 864;
},
{
layerId = "83D261EB-5180-4991-884D-E57EC90CAEFB";
shapes = (
{
closed = 1;
nodes = (
(1042,0,l),
(1042,193,l),
(612,193,ls),
(553,193,o),
(412,193,o),
(350,193,c),
(386,189,l),
(379,201,l),
(358,171,l),
(405,219,o),
(471,287,o),
(518,336,cs),
(1012,850,l),
(1012,1032,l),
(80,1032,l),
(80,839,l),
(483,839,ls),
(539,839,o),
(672,839,o),
(731,839,c),
(698,843,l),
(704,833,l),
(723,858,l),
(682,815,o),
(625,755,o),
(583,712,cs),
(72,182,l),
(72,0,l)
);
}
);
width = 1114;
},
{
layerId = "DCA03E4F-A7C4-4A27-9237-642BF2693270";
shapes = (
{
closed = 1;
nodes = (
(1038,0,l),
(1037,206,l),
(601,206,ls),
(513,206,o),
(404,200,o),
(317,191,c),
(364,190,l),
(352,214,l),
(323,182,l),
(392,235,o),
(453,289,o),
(542,388,cs),
(1009,911,l),
(1009,1105,l),
(93,1105,l),
(94,899,l),
(496,899,ls),
(583,899,o),
(689,905,o),
(777,914,c),
(730,915,l),
(742,891,l),
(771,923,l),
(701,869,o),
(641,816,o),
(555,720,cs),
(85,194,l),
(85,0,l)
);
}
);
width = 1123;
},
{
layerId = "5A3B0B44-0D2D-4186-9E39-19797E3BFD87";
shapes = (
{
closed = 1;
nodes = (
(871,0,l),
(871,169,l),
(505,169,ls),
(454,169,o),
(338,169,o),
(287,169,c),
(316,166,l),
(311,177,l),
(294,149,l),
(333,198,o),
(389,268,o),
(428,317,cs),
(846,846,l),
(846,1001,l),
(64,1001,l),
(64,832,l),
(408,832,ls),
(456,832,o),
(563,832,o),
(612,832,c),
(586,836,l),
(591,827,l),
(606,849,l),
(572,806,o),
(525,745,o),
(490,701,cs),
(58,155,l),
(58,0,l)
);
}
);
width = 929;
}
);
unicode = 122;
userData = {
com.typemytype.robofont.mark = (
0.656,
1,
0.6,
1
);
};
},
{
glyphname = g.alt;
lastChange = "2017-11-16 23:22:27 +0000";
layers = (
{
layerId = "0FCA90BE-146C-409C-AA6F-2BDBAA20F869";
shapes = (
{
closed = 1;
nodes = (
(162,-362,l),
(283,-415,o),
(425,-448,o),
(562,-448,cs),
(830,-448,o),
(1068,-324,o),
(1068,86,cs),
(1068,1042,l),
(1041,1042,o),
(1013,1042,o),
(986,1042,cs),
(868,1042,o),
(860,968,o),
(860,923,cs),
(860,913,l),
(884,965,l),
(856,965,l),
(780,1021,o),
(697,1059,o),
(578,1059,cs),
(306,1059,o),
(100,857,o),
(100,507,cs),
(100,168,o),
(292,-17,o),
(539,-17,cs),
(659,-17,o),
(769,26,o),
(841,130,c),
(857,130,l),
(857,357,l),
(808,224,o),
(702,164,o),
(591,164,cs),
(436,164,o),
(323,281,o),
(323,514,cs),
(323,732,o),
(422,874,o),
(618,874,cs),
(697,874,o),
(777,851,o),
(850,791,c),
(850,41,ls),
(850,-206,o),
(703,-268,o),
(535,-268,cs),
(421,-268,o),
(310,-238,o),
(219,-198,c)
);
}
);
width = 1243;
},
{
layerId = "0C6ED426-E59F-42BE-A2AF-648DBA17C507";
shapes = (
{
closed = 1;
nodes = (
(188,-367,l),
(290,-416,o),
(418,-445,o),
(539,-445,cs),
(771,-445,o),
(986,-339,o),
(986,23,cs),
(986,1027,l),
(980,1027,o),
(975,1027,o),
(969,1027,cs),
(918,1027,o),
(910,990,o),
(910,945,cs),
(910,935,l),
(923,951,l),
(906,951,l),
(824,1012,o),
(726,1049,o),
(600,1049,cs),
(334,1049,o),
(120,883,o),
(120,509,cs),
(120,178,o),
(289,-19,o),
(555,-19,cs),
(700,-19,o),
(822,39,o),
(905,164,c),
(921,164,l),
(917,309,l),
(841,115,o),
(689,52,o),
(559,52,cs),
(349,52,o),
(199,214,o),
(199,512,cs),
(199,817,o),
(357,980,o),
(596,980,cs),
(700,980,o),
(813,949,o),
(910,857,c),
(910,17,ls),
(910,-300,o),
(728,-376,o),
(537,-376,cs),
(421,-376,o),
(307,-348,o),
(214,-302,c)
);
}
);
width = 1191;
},
{
layerId = "27ACF26B-8C89-4195-A22E-C9A713B2D4DA";
shapes = (
{
closed = 1;
nodes = (
(128,-371,l),
(284,-434,o),
(457,-462,o),
(598,-462,cs),
(935,-462,o),
(1204,-302,o),
(1204,149,cs),
(1204,1054,l),
(1138,1054,o),
(1071,1054,o),
(1005,1054,cs),
(837,1054,o),
(787,983,o),
(787,884,cs),
(787,874,l),
(829,976,l),
(800,976,l),
(727,1050,o),
(638,1079,o),
(540,1079,cs),
(270,1079,o),
(80,861,o),
(80,526,cs),
(80,199,o),
(260,-6,o),
(512,-6,cs),
(595,-6,o),
(692,16,o),
(754,92,c),
(781,92,l),
(774,432,l),
(771,375,o),
(723,319,o),
(651,319,cs),
(565,319,o),
(522,397,o),
(522,540,cs),
(522,638,o),
(542,755,o),
(663,755,cs),
(695,755,o),
(733,747,o),
(772,720,c),
(772,34,ls),
(772,-106,o),
(672,-143,o),
(541,-143,cs),
(412,-143,o),
(290,-108,o),
(222,-82,c)
);
}
);
width = 1337;
},
{
layerId = "758B6861-60C6-4092-9073-6CD691788EA2";
shapes = (
{
closed = 1;
nodes = (
(134,-358,l),
(238,-411,o),
(361,-444,o),
(479,-444,cs),
(709,-444,o),
(913,-327,o),
(913,69,cs),
(913,1042,l),
(888,1042,o),
(863,1042,o),
(838,1042,cs),
(732,1042,o),
(726,977,o),
(726,933,cs),
(726,923,l),
(747,971,l),
(722,971,l),
(658,1024,o),
(588,1059,o),
(489,1059,cs),
(257,1059,o),
(83,866,o),
(83,510,cs),
(83,163,o),
(248,-17,o),
(455,-17,cs),
(555,-17,o),
(647,25,o),
(707,126,c),
(721,126,l),
(721,343,l),
(681,206,o),
(593,151,o),
(505,151,cs),
(378,151,o),
(285,265,o),
(285,516,cs),
(285,748,o),
(364,886,o),
(527,886,cs),
(591,886,o),
(656,865,o),
(715,808,c),
(715,29,ls),
(715,-219,o),
(595,-276,o),
(454,-276,cs),
(360,-276,o),
(268,-246,o),
(192,-208,c)
);
}
);
width = 1060;
},
{
layerId = "83D261EB-5180-4991-884D-E57EC90CAEFB";
shapes = (
{
closed = 1;
nodes = (
(183,-367,l),
(314,-420,o),
(467,-451,o),
(614,-451,cs),
(908,-451,o),
(1168,-325,o),
(1168,88,cs),
(1168,1042,l),
(1141,1042,o),
(1112,1042,o),
(1085,1042,cs),
(959,1042,o),
(953,970,o),
(953,917,cs),
(953,907,l),
(980,964,l),
(949,964,l),
(865,1020,o),
(771,1059,o),
(640,1059,cs),
(340,1059,o),
(112,856,o),
(112,506,cs),
(112,168,o),
(324,-17,o),
(601,-17,cs),
(738,-17,o),
(855,28,o),
(935,130,c),
(950,130,l),
(950,363,l),
(893,235,o),
(772,175,o),
(646,175,cs),
(472,175,o),
(342,290,o),
(342,515,cs),
(342,725,o),
(456,865,o),
(679,865,cs),
(768,865,o),
(859,843,o),
(942,786,c),
(942,39,ls),
(942,-199,o),
(778,-261,o),
(593,-261,cs),
(463,-261,o),
(343,-231,o),
(241,-192,c)
);
}
);
width = 1363;
},
{
layerId = "5A3B0B44-0D2D-4186-9E39-19797E3BFD87";
shapes = (
{
closed = 1;
nodes = (
(147,-377,l),
(259,-428,o),
(390,-459,o),
(517,-459,cs),
(764,-459,o),
(984,-341,o),
(984,53,cs),
(984,998,l),
(952,1005,o),
(925,1008,o),
(903,1008,cs),
(812,1008,o),
(791,958,o),
(791,897,cs),
(791,887,l),
(815,932,l),
(789,932,l),
(722,989,o),
(641,1026,o),
(531,1026,cs),
(280,1026,o),
(90,834,o),
(90,490,cs),
(90,157,o),
(268,-25,o),
(494,-25,cs),
(607,-25,o),
(709,21,o),
(776,130,c),
(789,130,l),
(789,336,l),
(743,203,o),
(646,145,o),
(545,145,cs),
(401,145,o),
(297,262,o),
(297,496,cs),
(297,714,o),
(388,857,o),
(569,857,cs),
(641,857,o),
(715,834,o),
(782,773,c),
(782,11,ls),
(782,-235,o),
(648,-295,o),
(494,-295,cs),
(387,-295,o),
(284,-264,o),
(200,-225,c)
);
}
);
width = 1142;
},
{
layerId = "DCA03E4F-A7C4-4A27-9237-642BF2693270";
shapes = (
{
closed = 1;
nodes = (
(192,-370,l),
(323,-428,o),
(471,-462,o),
(623,-462,cs),
(918,-462,o),
(1169,-334,o),
(1169,112,cs),
(1169,1110,l),
(1114,1110,o),
(1060,1110,o),
(1005,1110,cs),
(953,1110,o),
(949,1079,o),
(949,1058,cs),
(949,969,l),
(965,1024,l),
(935,1024,l),
(863,1099,o),
(775,1135,o),
(647,1135,cs),
(340,1135,o),
(125,930,o),
(125,551,cs),
(125,185,o),
(325,-1,o),
(606,-1,cs),
(741,-1,o),
(855,43,o),
(922,163,c),
(943,163,l),
(943,413,l),
(888,260,o),
(780,203,o),
(655,203,cs),
(481,203,o),
(364,313,o),
(364,558,cs),
(364,785,o),
(464,927,o),
(688,927,cs),
(777,927,o),
(857,904,o),
(936,832,c),
(936,61,ls),
(936,-199,o),
(783,-259,o),
(599,-259,cs),
(464,-259,o),
(352,-228,o),
(253,-186,c)
);
}
);
width = 1371;
}
);
unicode = 57345;
userData = {
com.typemytype.robofont.mark = (
0.656,
1,
0.6,
1
);
};
},
{
glyphname = zero;
lastChange = "2017-11-16 23:22:27 +0000";
layers = (
{
layerId = "0FCA90BE-146C-409C-AA6F-2BDBAA20F869";
shapes = (
{
closed = 1;
nodes = (
(910,-22,o),
(1123,205,o),
(1123,711,cs),
(1123,1208,o),
(927,1432,o),
(624,1432,cs),
(332,1432,o),
(120,1213,o),
(120,704,cs),
(120,209,o),
(315,-22,o),
(617,-22,cs)
);
},
{
closed = 1;
nodes = (
(452,160,o),
(342,319,o),
(342,709,cs),
(342,1098,o),
(452,1250,o),
(621,1250,cs),
(791,1250,o),
(901,1098,o),
(901,709,cs),
(901,319,o),
(791,160,o),
(621,160,cs)
);
}
);
width = 1243;
},
{
layerId = "0C6ED426-E59F-42BE-A2AF-648DBA17C507";
shapes = (
{
closed = 1;
nodes = (
(854,-22,o),
(1053,202,o),
(1053,715,cs),
(1053,1202,o),
(874,1432,o),
(602,1432,cs),
(337,1432,o),
(140,1214,o),
(140,702,cs),
(140,213,o),
(320,-22,o),
(590,-22,cs)
);
},
{
closed = 1;
nodes = (
(370,50,o),
(219,263,o),
(219,710,cs),
(219,1162,o),
(372,1363,o),
(596,1363,cs),
(821,1363,o),
(974,1159,o),
(974,709,cs),
(974,259,o),
(821,50,o),
(597,50,cs)
);
}
);
width = 1193;
},
{
layerId = "27ACF26B-8C89-4195-A22E-C9A713B2D4DA";
shapes = (
{
closed = 1;
nodes = (
(1018,-25,o),
(1257,206,o),
(1257,704,cs),
(1257,1215,o),
(1031,1432,o),
(677,1432,cs),
(339,1432,o),
(100,1211,o),
(100,704,cs),
(100,201,o),
(322,-25,o),
(677,-25,cs)
);
},
{
closed = 1;
nodes = (
(588,299,o),
(537,389,o),
(537,706,cs),
(537,1015,o),
(585,1104,o),
(678,1104,cs),
(772,1104,o),
(820,1019,o),
(820,707,cs),
(820,394,o),
(772,299,o),
(677,299,cs)
);
}
);
width = 1357;
},
{
layerId = "758B6861-60C6-4092-9073-6CD691788EA2";
shapes = (
{
closed = 1;
nodes = (
(779,-22,o),
(960,191,o),
(960,714,cs),
(960,1221,o),
(790,1432,o),
(534,1432,cs),
(281,1432,o),
(101,1226,o),
(101,703,cs),
(101,197,o),
(269,-22,o),
(526,-22,cs)
);
},
{
closed = 1;
nodes = (
(392,146,o),
(302,299,o),
(302,709,cs),
(302,1119,o),
(392,1265,o),
(530,1265,cs),
(669,1265,o),
(758,1119,o),
(758,709,cs),
(758,298,o),
(669,146,o),
(530,146,cs)
);
}
);
width = 1061;
},
{
layerId = "83D261EB-5180-4991-884D-E57EC90CAEFB";
shapes = (
{
closed = 1;
nodes = (
(995,-22,o),
(1228,205,o),
(1228,711,cs),
(1228,1208,o),
(1014,1432,o),
(684,1432,cs),
(365,1432,o),
(134,1213,o),
(134,704,cs),
(134,208,o),
(347,-22,o),
(676,-22,cs)
);
},
{
closed = 1;
nodes = (
(489,170,o),
(364,324,o),
(364,709,cs),
(364,1092,o),
(489,1240,o),
(680,1240,cs),
(873,1240,o),
(998,1093,o),
(998,709,cs),
(998,324,o),
(873,170,o),
(681,170,cs)
);
}
);
width = 1362;
},
{
layerId = "DCA03E4F-A7C4-4A27-9237-642BF2693270";
shapes = (
{
closed = 1;
nodes = (
(971,-23,o),
(1187,198,o),
(1187,715,cs),
(1187,1227,o),
(989,1442,o),
(666,1442,cs),
(355,1442,o),
(140,1230,o),
(140,709,cs),
(140,200,o),
(338,-23,o),
(659,-23,cs)
);
},
{
closed = 1;
nodes = (
(484,182,o),
(378,323,o),
(378,714,cs),
(378,1102,o),
(484,1237,o),
(663,1237,cs),
(843,1237,o),
(949,1103,o),
(949,714,cs),
(949,323,o),
(843,182,o),
(663,182,cs)
);
}
);
width = 1327;
},
{
layerId = "5A3B0B44-0D2D-4186-9E39-19797E3BFD87";
shapes = (
{
closed = 1;
nodes = (
(851,-25,o),
(1052,202,o),
(1052,711,cs),
(1052,1207,o),
(867,1432,o),
(582,1432,cs),
(306,1432,o),
(105,1213,o),
(105,702,cs),
(105,207,o),
(290,-25,o),
(574,-25,cs)
);
},
{
closed = 1;
nodes = (
(416,143,o),
(311,309,o),
(311,708,cs),
(311,1106,o),
(416,1265,o),
(578,1265,cs),
(741,1265,o),
(847,1106,o),
(847,708,cs),
(847,308,o),
(741,143,o),
(578,143,cs)
);
}
);
width = 1157;
}
);
unicode = 48;
userData = {
com.typemytype.robofont.mark = (
0.656,
1,
0.6,
1
);
};
},
{
glyphname = one;
lastChange = "2017-11-16 23:22:27 +0000";
layers = (
{
layerId = "0FCA90BE-146C-409C-AA6F-2BDBAA20F869";
shapes = (
{
closed = 1;
nodes = (
(612,0,l),
(612,1412,l),
(417,1412,l),
(25,1172,l),
(128,1022,l),
(395,1187,l),
(395,0,l)
);
}
);
width = 802;
},
{
layerId = "0C6ED426-E59F-42BE-A2AF-648DBA17C507";
shapes = (
{
closed = 1;
nodes = (
(470,0,l),
(470,1412,l),
(399,1412,l),
(40,1179,l),
(81,1121,l),
(394,1324,l),
(394,0,l)
);
}
);
width = 690;
},
{
layerId = "27ACF26B-8C89-4195-A22E-C9A713B2D4DA";
shapes = (
{
closed = 1;
nodes = (
(832,0,l),
(832,1412,l),
(449,1412,l),
(0,1155,l),
(182,878,l),
(401,1011,l),
(401,0,l)
);
}
);
width = 992;
},
{
layerId = "758B6861-60C6-4092-9073-6CD691788EA2";
shapes = (
{
closed = 1;
nodes = (
(532,0,l),
(532,1412,l),
(355,1412,l),
(20,1173,l),
(118,1041,l),
(335,1201,l),
(335,0,l)
);
}
);
width = 694;
},
{
layerId = "83D261EB-5180-4991-884D-E57EC90CAEFB";
shapes = (
{
closed = 1;
nodes = (
(660,0,l),
(660,1412,l),
(456,1412,l),
(35,1174,l),
(136,1011,l),
(434,1174,l),
(434,0,l)
);
}
);
width = 870;
},
{
layerId = "DCA03E4F-A7C4-4A27-9237-642BF2693270";
shapes = (
{
closed = 1;
nodes = (
(651,0,l),
(651,1422,l),
(442,1422,l),
(33,1178,l),
(143,1008,l),
(419,1169,l),
(419,0,l)
);
}
);
width = 863;
},
{
layerId = "5A3B0B44-0D2D-4186-9E39-19797E3BFD87";
shapes = (
{
closed = 1;
nodes = (
(569,0,l),
(569,1412,l),
(389,1412,l),
(15,1169,l),
(110,1031,l),
(368,1204,l),
(368,0,l)
);
}
);
width = 742;
}
);
unicode = 49;
userData = {
com.typemytype.robofont.mark = (
1,
0.826,
0.6,
1
);
};
},
